<?xml version="1.0" encoding="UTF-8" standalone="no"?>
<!-- Created with Inkscape (http://www.inkscape.org/) -->

<svg
   xmlns:dc="http://purl.org/dc/elements/1.1/"
   xmlns:cc="http://creativecommons.org/ns#"
   xmlns:rdf="http://www.w3.org/1999/02/22-rdf-syntax-ns#"
   xmlns:svg="http://www.w3.org/2000/svg"
   xmlns="http://www.w3.org/2000/svg"
   xmlns:sodipodi="http://sodipodi.sourceforge.net/DTD/sodipodi-0.dtd"
   xmlns:inkscape="http://www.inkscape.org/namespaces/inkscape"
   width="60"
   height="60"
   viewBox="0 0 15.875 15.875"
   version="1.1"
   id="svg3755"
   inkscape:version="0.92.3 (2405546, 2018-03-11)"
   sodipodi:docname="consulting.svg">
  <defs
     id="defs3749" />
  <sodipodi:namedview
     id="base"
     pagecolor="#ffffff"
     bordercolor="#666666"
     borderopacity="1.0"
     inkscape:pageopacity="0.0"
     inkscape:pageshadow="2"
     inkscape:zoom="14.993284"
     inkscape:cx="31.327717"
     inkscape:cy="30.102301"
     inkscape:document-units="px"
     inkscape:current-layer="layer1"
     showgrid="false"
     units="px"
     inkscape:window-width="1890"
     inkscape:window-height="1052"
     inkscape:window-x="30"
     inkscape:window-y="0"
     inkscape:window-maximized="1" />
  <metadata
     id="metadata3752">
    <rdf:RDF>
      <cc:Work
         rdf:about="">
        <dc:format>image/svg+xml</dc:format>
        <dc:type
           rdf:resource="http://purl.org/dc/dcmitype/StillImage" />
        <dc:title></dc:title>
      </cc:Work>
    </rdf:RDF>
  </metadata>
  <g
     inkscape:label="Layer 1"
     inkscape:groupmode="layer"
     id="layer1"
     transform="translate(0,-281.12499)">
    <g
       id="g3662"
       transform="matrix(0.00520952,0,0,-0.00520952,-37.702358,269.10975)"
       style="stroke-width:6.7717762">
      <path
         inkscape:connector-curvature="0"
         id="path588"
         style="fill:#ffca22;fill-opacity:1;fill-rule:nonzero;stroke:none;stroke-width:6.7717762"
         d="m 7802.5117,-4367.6514 c -1.38,14.35 -35.25,30.78 -34.88,9.89 0.66,-37.08 12.95,-71.94 26.35,-106.11 15.86,-40.42 31.13,-81.29 48.42,-121.11 5.6,-12.9 43.34,-21.82 36.16,-2.51 -26.52,71.36 -68.68,143.09 -76.05,219.84" />
      <path
         inkscape:connector-curvature="0"
         id="path590"
         style="fill:#ffca22;fill-opacity:1;fill-rule:nonzero;stroke:none;stroke-width:6.7717762"
         d="m 7949.9617,-4584.4214 c 3.07,2.59 -7.29,15.9 -9.62,20.47 -4.9,9.62 -9.81,19.25 -14.72,28.87 -10.27,20.13 -20.61,40.2 -30.79,60.37 -18.86,37.37 -34.93,75 -48.24,114.68 -4.57,13.64 -37.65,29.16 -32.18,5.58 11.05,-47.64 33.6,-92.54 54.91,-136.23 11.58,-23.73 23.2,-47.43 34.84,-71.13 8.02,-16.32 13.52,-37.79 32.21,-44.48 6.17,-2.21 19.76,-4.55 22.74,4.02 l 0.64,1.84 c 2.32,6.66 -3.9,12.62 -9.79,16.01" />
      <path
         inkscape:connector-curvature="0"
         id="path592"
         style="fill:#ffca22;fill-opacity:1;fill-rule:nonzero;stroke:none;stroke-width:6.7717762"
         d="m 7910.5917,-4370.1414 c -6.13,13.23 -41.81,24.55 -32.55,2.75 31.72,-74.66 62.63,-149.71 92.59,-225.1 5.5,-13.81 43.97,-17.06 36.21,1.85 -30.48,74.22 -62.45,147.74 -96.25,220.5" />
      <path
         inkscape:connector-curvature="0"
         id="path594"
         style="fill:#ffca22;fill-opacity:1;fill-rule:nonzero;stroke:none;stroke-width:6.7717762"
         d="m 7965.7617,-4373.4914 c -4.46,14.5 -38.9,26.25 -32.49,3.46 23.33,-83.02 68.81,-160.36 106.78,-237.33 6.6,-13.37 45.3,-16.33 36.22,1.45 -38.53,75.48 -85.5,151.09 -110.51,232.42" />
      <path
         inkscape:connector-curvature="0"
         id="path596"
         style="fill:#ffca22;fill-opacity:1;fill-rule:nonzero;stroke:none;stroke-width:6.7717762"
         d="m 8033.9917,-4404.0314 c -7.24,11.21 -41.53,15.84 -30.28,-2.76 47.17,-78.03 97.6,-153.83 150.32,-228.22 5.36,-7.58 15.65,-12.39 25.04,-11.21 6.03,0.76 16.93,5.85 11.11,13.84 -54.3,74.51 -106.19,150.89 -156.19,228.35" />
      <path
         inkscape:connector-curvature="0"
         id="path598"
         style="fill:#ffca22;fill-opacity:1;fill-rule:nonzero;stroke:none;stroke-width:6.7717762"
         d="m 8101.3517,-4364.2014 c -8.85,14.54 -41.53,18.08 -28.33,-4.34 53.99,-91.67 109.91,-182.08 168.27,-271.03 8.19,-12.49 47.04,-12.91 36.12,3.02 -61.06,89.19 -119.87,180.01 -176.06,272.35" />
      <path
         inkscape:connector-curvature="0"
         id="path600"
         style="fill:#ffca22;fill-opacity:1;fill-rule:nonzero;stroke:none;stroke-width:6.7717762"
         d="m 8203.9117,-4382.7914 c -6.67,11.13 -40.58,18.45 -30.39,-1.11 38.43,-73.66 75.75,-147.82 113.79,-221.67 6.69,-12.98 44.84,-14.47 36,4.2 -35.42,74.89 -76.85,147.57 -119.4,218.58" />
      <path
         inkscape:connector-curvature="0"
         id="path602"
         style="fill:#ffca22;fill-opacity:1;fill-rule:nonzero;stroke:none;stroke-width:6.7717762"
         d="m 8340.5917,-4519.7614 c -18.85,35.81 -37.12,71.92 -54.85,108.3 -3.91,8.02 -13.28,16.37 -22.73,16.38 -8.07,0.02 -13.68,-5.32 -9.82,-13.63 16.34,-35.21 32.69,-70.43 49.26,-105.53 16.94,-35.86 32.39,-75.94 55.17,-108.43 6.69,-9.53 41.6,-15.29 34.11,3.54 -13.62,34.23 -33.97,66.75 -51.14,99.37" />
      <path
         inkscape:connector-curvature="0"
         id="path604"
         style="fill:#ffca22;fill-opacity:1;fill-rule:nonzero;stroke:none;stroke-width:6.7717762"
         d="m 8400.7917,-4511.4114 c -19.33,29.68 -38.08,59.72 -56.41,90.01 -7.63,12.62 -44.4,19.26 -32.65,-1.17 18.52,-32.18 37.64,-64 57.17,-95.58 20.17,-32.62 39.53,-68.46 64.69,-97.46 6.91,-7.96 43.8,-14.29 34.06,3.91 -18.76,35.02 -45.15,66.98 -66.86,100.29" />
      <path
         inkscape:connector-curvature="0"
         id="path606"
         style="fill:#ffca22;fill-opacity:1;fill-rule:nonzero;stroke:none;stroke-width:6.7717762"
         d="m 8398.3517,-4392.0414 c -10.12,13.53 -43.11,14.72 -27.91,-6.48 51.86,-72.33 100.85,-147.95 156.19,-217.66 5.78,-7.29 16.11,-11.7 25.51,-10.1 6.6,1.12 15.96,6.28 10.49,14.31 -51.38,75.41 -109.59,146.89 -164.28,219.93" />
      <path
         inkscape:connector-curvature="0"
         id="path608"
         style="fill:#ffca22;fill-opacity:1;fill-rule:nonzero;stroke:none;stroke-width:6.7717762"
         d="m 8504.8217,-4390.2714 c -8.17,15 -40.37,19.72 -28.45,-3.41 39.45,-76.55 75.58,-155.32 117.97,-230.3 7.11,-12.57 45.24,-13.95 35.96,4.6 -38.89,77.8 -83.87,152.75 -125.48,229.11" />
      <path
         inkscape:connector-curvature="0"
         id="path610"
         style="fill:#ffca22;fill-opacity:1;fill-rule:nonzero;stroke:none;stroke-width:6.7717762"
         d="m 8644.2117,-4509.0214 c -21.04,35.77 -41.16,71.99 -60.38,108.77 -6.92,13.24 -43.16,20.72 -32.67,-0.46 17.8,-35.91 35.93,-71.72 54.85,-107.06 19.04,-35.57 37.66,-76.76 63.51,-107.82 7.7,-9.26 42.02,-10.97 33.51,7.23 -16.05,34.37 -39.56,66.59 -58.82,99.34" />
      <path
         inkscape:connector-curvature="0"
         id="path612"
         style="fill:#ffca22;fill-opacity:1;fill-rule:nonzero;stroke:none;stroke-width:6.7717762"
         d="m 8721.8117,-4504.6214 c -25.29,37.84 -49.54,76.26 -72.39,115.63 -7.44,12.83 -43.93,19.29 -32.63,-1.52 20.54,-37.81 41.84,-75.25 64.56,-111.79 22.67,-36.44 45.72,-78.17 75.56,-109.12 7.79,-8.08 43.72,-10.13 33.43,7.6 -19.98,34.46 -46.35,66.02 -68.53,99.2" />
      <path
         inkscape:connector-curvature="0"
         id="path614"
         style="fill:#ffca22;fill-opacity:1;fill-rule:nonzero;stroke:none;stroke-width:6.7717762"
         d="m 8733.8317,-4397.6214 c -8.27,12.11 -45.29,16.98 -32.54,-2.95 39.23,-61.33 76.26,-126.57 121.55,-183.65 7.44,-9.4 45.24,-7.5 36.74,6.67 -37.49,62.3 -84.73,119.83 -125.75,179.93" />
      <path
         inkscape:connector-curvature="0"
         id="path616"
         style="fill:#ffca22;fill-opacity:1;fill-rule:nonzero;stroke:none;stroke-width:6.7717762"
         d="m 8864.9817,-4497.6814 c -19.1,35.76 -38.4,71.38 -57.3,107.22 -4.34,8.23 -13.67,14.47 -23.21,14.64 -6.24,0.1 -17.38,-3.35 -12.95,-12.13 19.41,-38.42 38.44,-77.02 57.66,-115.52 18.4,-36.68 34,-78.38 57.6,-111.94 6.5,-9.12 43.7,-12.73 37.2,3.84 -15.4,39.37 -39.1,76.65 -59,113.89" />
      <path
         inkscape:connector-curvature="0"
         id="path618"
         style="fill:#ffca22;fill-opacity:1;fill-rule:nonzero;stroke:none;stroke-width:6.7717762"
         d="m 8879.2817,-4384.0414 c -6.7,10.52 -40.3,18.87 -30.4,-1.44 35.8,-73.48 81.2,-142.64 128.7,-209.05 8.6,-12.06 46.5,-5.49 34.5,11.15 -46.9,64.76 -89.8,131.99 -132.8,199.34" />
      <path
         inkscape:connector-curvature="0"
         id="path620"
         style="fill:#ffca22;fill-opacity:1;fill-rule:nonzero;stroke:none;stroke-width:6.7717762"
         d="m 9079.4817,-4559.3714 c -12.5,6.01 -22.8,28.3 -31,39.4 -12,16.37 -23.8,32.83 -35.5,49.41 -25.2,35.67 -49.3,71.99 -72.3,109.08 -8,12.76 -44.8,17.19 -32.6,-2.95 23.9,-39.49 48.2,-78.77 73.6,-117.31 12.7,-19.36 25.7,-38.57 39.1,-57.52 12.2,-17.31 20.7,-33.68 41.5,-40.37 14.6,-4.69 38.8,9.82 17.2,20.26" />
      <path
         inkscape:connector-curvature="0"
         id="path622"
         style="fill:#ffca22;fill-opacity:1;fill-rule:nonzero;stroke:none;stroke-width:6.7717762"
         d="m 9129.0817,-4537.3214 c -15.1,28.69 -37.3,54.49 -54.8,81.89 -18.5,28.93 -35.8,58.57 -52.1,88.76 -4.5,8.18 -13.9,14.32 -23.4,14.37 -6.4,0.04 -17.2,-3.49 -12.8,-12.26 15.6,-31.59 32.3,-62.6 50.4,-92.88 17.4,-29.26 35.1,-63.78 59.4,-87.84 8,-7.93 43,-10.33 33.3,7.96" />
      <path
         inkscape:connector-curvature="0"
         id="path624"
         style="fill:#ffca22;fill-opacity:1;fill-rule:nonzero;stroke:none;stroke-width:6.7717762"
         d="m 9087.2817,-4444.4114 c 5.7,-9.27 42.3,-16.82 37.4,0.59 -10.1,35.73 -29.1,70.23 -43.6,104.45 -5.6,13.41 -43.8,19.51 -36.2,0.52 13.5,-34.16 23.3,-74.21 42.4,-105.56" />
      <path
         inkscape:connector-curvature="0"
         id="path626"
         style="fill:#ffca22;fill-opacity:1;fill-rule:nonzero;stroke:none;stroke-width:6.7717762"
         d="m 7789.5317,-5076.4914 c -5.36,13.31 -39.34,24.72 -31.21,2.76 22.21,-60.01 46.06,-117.57 89.51,-164.13 14.84,-15.9 40.67,-5.28 21.71,15.01 -37.78,40.44 -59.28,94.95 -80.01,146.36" />
      <path
         inkscape:connector-curvature="0"
         id="path628"
         style="fill:#ffca22;fill-opacity:1;fill-rule:nonzero;stroke:none;stroke-width:6.7717762"
         d="m 7813.4917,-5028.9814 c -4.5,7.22 -14.64,18.05 -24,15.69 -9.12,-2.29 -9.48,-10.53 -5.4,-18.38 36.43,-70.11 72.32,-142.3 113.01,-209.76 7.78,-12.9 44.53,-22.18 33.61,1.66 -33.22,72.45 -75.3,143.59 -117.22,210.79" />
      <path
         inkscape:connector-curvature="0"
         id="path630"
         style="fill:#ffca22;fill-opacity:1;fill-rule:nonzero;stroke:none;stroke-width:6.7717762"
         d="m 7900.0617,-5053.8914 c -6.68,12.73 -41.68,20.23 -31.31,-0.48 28.77,-57.49 55.33,-116.21 79.14,-176.17 3.68,-9.26 13.24,-16.63 22.87,-17.47 6.4,-0.56 18.1,2.39 14.13,12.2 -25.27,62.33 -53.72,122.61 -84.83,181.92" />
      <path
         inkscape:connector-curvature="0"
         id="path632"
         style="fill:#ffca22;fill-opacity:1;fill-rule:nonzero;stroke:none;stroke-width:6.7717762"
         d="m 7980.8417,-5074.9614 c -5.63,14.95 -41.76,27.57 -33.5,3.36 20.98,-61.51 41.53,-123.35 65.61,-183.62 5.84,-14.61 45.06,-20.02 37.33,0.71 -22.45,60.15 -46.84,119.47 -69.44,179.55" />
      <path
         inkscape:connector-curvature="0"
         id="path634"
         style="fill:#ffca22;fill-opacity:1;fill-rule:nonzero;stroke:none;stroke-width:6.7717762"
         d="m 8086.7517,-5164.0414 c -14.99,27.02 -29.14,55.13 -46.82,80.32 -6.94,9.9 -44.04,15.96 -35.11,-3.84 13.32,-29.55 30.13,-57.45 45.65,-85.76 14.47,-26.4 27.07,-58.19 46.42,-80.98 7.54,-8.88 42.43,-16.83 35.03,4.64 -10.35,30.04 -29.89,58.06 -45.17,85.62" />
      <path
         inkscape:connector-curvature="0"
         id="path636"
         style="fill:#ffca22;fill-opacity:1;fill-rule:nonzero;stroke:none;stroke-width:6.7717762"
         d="m 8188.3417,-5185.5214 c -22.33,32.05 -45.47,64.74 -73.86,91.09 -7.79,7.23 -31.91,9.9 -24.27,-7.86 13.21,-30.69 39.74,-57.66 58.62,-84.86 21.13,-30.43 38.71,-64.37 61.06,-93.66 7.18,-9.39 44.26,-15.3 35.03,4.64 -14.85,32.14 -36.55,61.88 -56.58,90.65" />
      <path
         inkscape:connector-curvature="0"
         id="path638"
         style="fill:#ffca22;fill-opacity:1;fill-rule:nonzero;stroke:none;stroke-width:6.7717762"
         d="m 8196.1317,-5099.4514 c -10.16,14.86 -43.64,16.97 -28.82,-6.71 38.89,-62.09 78.82,-126.88 126.1,-182.35 5.86,-6.88 16.54,-11.11 25.23,-9.52 5.78,1.06 14.91,6.31 9.8,14.17 -41.2,63.29 -89.67,122.02 -132.31,184.41" />
      <path
         inkscape:connector-curvature="0"
         id="path640"
         style="fill:#ffca22;fill-opacity:1;fill-rule:nonzero;stroke:none;stroke-width:6.7717762"
         d="m 8324.7417,-5191.0114 c -23.24,29.07 -45.69,58.86 -69.23,87.65 -8.45,10.33 -43.7,13.74 -30.7,-6.55 20.98,-32.74 44.7,-63.62 68.56,-94.06 20.64,-26.33 40.92,-54.78 64.77,-77.98 7.84,-7.63 46.96,-10.54 34.59,7.44 -20.26,29.46 -45.72,55.64 -67.99,83.5" />
      <path
         inkscape:connector-curvature="0"
         id="path642"
         style="fill:#ffca22;fill-opacity:1;fill-rule:nonzero;stroke:none;stroke-width:6.7717762"
         d="m 8312.1817,-5097.6914 c -11.3,10.69 -40.56,9.81 -25.19,-11.19 20.46,-27.98 44.12,-53.56 65.54,-80.75 23.97,-30.44 46.41,-61.97 69.55,-93.07 9.02,-12.12 48.71,-9.96 36.48,8.37 -42.13,63.13 -91.83,125.02 -146.38,176.64" />
      <path
         inkscape:connector-curvature="0"
         id="path644"
         style="fill:#ffca22;fill-opacity:1;fill-rule:nonzero;stroke:none;stroke-width:6.7717762"
         d="m 8409.6917,-5104.7914 c -7.8,8.19 -39.32,11.32 -27.6,-7.49 18.84,-30.26 41.57,-58.05 61.88,-87.25 20.07,-28.83 38.62,-58.91 58.88,-87.56 8.51,-12.02 48.12,-12.74 36.8,6.69 -36.21,62.11 -80.97,124.12 -129.96,175.61" />
      <path
         inkscape:connector-curvature="0"
         id="path646"
         style="fill:#ffca22;fill-opacity:1;fill-rule:nonzero;stroke:none;stroke-width:6.7717762"
         d="m 8544.2217,-5191.2514 c -20.83,28.09 -41.25,56.51 -61.34,85.2 -8.13,11.61 -43.63,14.38 -30.93,-5.14 21.06,-32.38 42.67,-64.34 64.88,-95.87 19.64,-27.88 38.57,-58 61.9,-82.61 7.37,-7.77 46.45,-13.38 34.93,5.45 -20.11,32.86 -46.59,62.17 -69.44,92.97" />
      <path
         inkscape:connector-curvature="0"
         id="path648"
         style="fill:#ffca22;fill-opacity:1;fill-rule:nonzero;stroke:none;stroke-width:6.7717762"
         d="m 8618.4717,-5189.1614 c -22.03,28.58 -43.88,57.3 -65.59,86.16 -10.56,14.04 -45,16.43 -28.88,-6.37 42.33,-59.88 82.18,-126.1 131.22,-180.13 6.15,-6.77 16.14,-11.34 25.14,-9.8 5.92,1.01 14.8,6.07 9.94,14.05 -20.75,34.07 -47.61,64.67 -71.83,96.09" />
      <path
         inkscape:connector-curvature="0"
         id="path650"
         style="fill:#ffca22;fill-opacity:1;fill-rule:nonzero;stroke:none;stroke-width:6.7717762"
         d="m 8646.3817,-5113.7714 c -5.22,5.47 -14.73,14.06 -22.95,10.64 -7.5,-3.12 -7.48,-11.13 -3.49,-17.97 15.51,-26.53 36.02,-50.31 53.61,-75.36 20.89,-29.75 39.22,-61.26 59.64,-91.31 7.08,-10.42 44.84,-14.74 35.12,3.84 -31.6,60.41 -75.48,121.52 -121.93,170.16" />
      <path
         inkscape:connector-curvature="0"
         id="path652"
         style="fill:#ffca22;fill-opacity:1;fill-rule:nonzero;stroke:none;stroke-width:6.7717762"
         d="m 8720.4617,-5113.9514 c -7.69,11.36 -42.5,16.62 -31.03,-4.43 30.18,-55.37 64.43,-111.88 105.57,-159.04 7.9,-9.06 46.18,-10.8 34.68,7.05 -34.31,53.36 -73.65,103.87 -109.22,156.42" />
      <path
         inkscape:connector-curvature="0"
         id="path654"
         style="fill:#ffca22;fill-opacity:1;fill-rule:nonzero;stroke:none;stroke-width:6.7717762"
         d="m 8827.0817,-5179.2014 c -17.8,27.88 -32.77,56.37 -55.8,80.04 -15.04,15.44 -41.2,5.77 -22.03,-14.51 22.19,-23.47 34.18,-55.94 51.68,-83.12 16.77,-26.03 35.85,-53.42 57.75,-75.02 6.5,-6.46 16.3,-10.82 25.4,-8.93 5.8,1.2 14.7,6.62 9.5,14.38 -20.5,30.43 -46.7,55.99 -66.5,87.16" />
      <path
         inkscape:connector-curvature="0"
         id="path656"
         style="fill:#ffca22;fill-opacity:1;fill-rule:nonzero;stroke:none;stroke-width:6.7717762"
         d="m 8901.5817,-5166.8814 c -19.6,30.34 -39.9,60.17 -61.8,88.8 -9.1,12.03 -47.46,16.22 -33.25,-5.11 19.75,-29.57 39.35,-59.22 58.15,-89.46 18.6,-30.01 34.4,-66.58 57,-93.15 7.1,-8.29 43,-18.31 35.2,3.44 -12.2,33.72 -36.1,65.78 -55.3,95.48" />
      <path
         inkscape:connector-curvature="0"
         id="path658"
         style="fill:#ffca22;fill-opacity:1;fill-rule:nonzero;stroke:none;stroke-width:6.7717762"
         d="m 8886.0817,-5064.2814 c -10.3,14.9 -43.9,15.9 -28.7,-7.36 40,-60.96 76.4,-126.6 121.1,-183.8 7.6,-9.75 45.4,-12.11 34.8,6.25 -37.3,64.6 -84.9,123.85 -127.2,184.91" />
      <path
         inkscape:connector-curvature="0"
         id="path660"
         style="fill:#ffca22;fill-opacity:1;fill-rule:nonzero;stroke:none;stroke-width:6.7717762"
         d="m 8954.3817,-5063.4914 c -8.9,13.06 -47.1,17.09 -33.5,-3.96 40.7,-62.61 84,-128 136.4,-180.47 9,-9 46.5,-4.37 33.5,11.75 -46.2,57.39 -94.8,111.2 -136.4,172.68" />
      <path
         inkscape:connector-curvature="0"
         id="path662"
         style="fill:#ffca22;fill-opacity:1;fill-rule:nonzero;stroke:none;stroke-width:6.7717762"
         d="m 9086.9817,-5139.6414 c -22.3,28.98 -43.3,58.62 -62.6,89.88 -8.4,13.55 -46.4,18.38 -33.5,-3.2 35.9,-59.99 74.6,-127.87 125.4,-175.28 8.7,-8.05 46.4,-6.58 33.8,10.98 -19.4,27.01 -42.8,51.23 -63.1,77.62" />
      <path
         inkscape:connector-curvature="0"
         id="path664"
         style="fill:#ffca22;fill-opacity:1;fill-rule:nonzero;stroke:none;stroke-width:6.7717762"
         d="m 9156.8817,-5150.9414 c -18.6,36.12 -39.8,71.03 -59.9,106.24 -7.6,13.3 -47.4,16.13 -37.2,-3.28 19,-36.25 37,-73.55 57.6,-108.79 7.9,-13.54 48,-10.88 39.5,5.83" />
      <path
         inkscape:connector-curvature="0"
         id="path666"
         style="fill:#1f1e21;fill-opacity:1;fill-rule:nonzero;stroke:none;stroke-width:6.7717762"
         d="m 9799.1817,-5223.3314 c 2.8,-0.89 5.7,-1.66 8.5,-2.35 -5.4,-3.79 -10.7,-7.64 -16.3,-11.21 2.8,4.38 5.3,9.02 7.8,13.56 z m -172.6,198.28 c -41.2,49.45 -80.4,101.03 -116.8,154.55 -1.2,2.63 -2.9,5.25 -5.1,7.63 -40.8,60.59 -77.9,123.64 -110.1,188.95 2.5,3.14 5,6.34 7.7,9.42 7.1,8.38 -10.1,22.74 -23.5,23.6 -6.8,14.51 -13.3,29.1 -19.5,43.83 -5.5,12.95 -10.7,26.06 -15.9,39.25 l 1.6,1.68 c 6.5,6.56 -1.4,18.23 -11.4,24.23 -24.1,66.1 -43.6,134.58 -57.5,203.02 -9.4,46.61 -16.3,143.39 56.9,125.64 29.6,-7.14 56.5,-25.18 80.5,-43.1 35.2,-26.28 66.8,-57.16 96.5,-89.43 79.7,-86.61 146.6,-184.89 205.5,-286.51 58,-100.86 109.1,-206.03 143.9,-317.28 14.2,-45.42 28.7,-91.62 33.9,-139.11 3.8,-34.79 4.2,-83.18 -22.1,-110.59 -5.2,-5.35 -11.3,-8.3 -17.9,-9.65 -4.1,0.7 -8,0.58 -11.2,-0.79 -30.6,1.68 -68.2,30.25 -86.1,44.05 -48.6,37.38 -90.3,83.69 -129.4,130.61 z m 33.3,-227.22 c -2.7,-2.77 -3.2,-5.85 -2.2,-8.87 -6.5,3.9 -12.6,8.27 -18.6,13 18.5,32.69 35.7,65.52 47.1,101.48 9.2,-8.52 18.5,-16.86 28.2,-24.87 -13.8,-29.62 -31.7,-57.19 -54.5,-80.74 z m -50.1,30.34 c -3.1,2.95 -6.2,5.91 -9.2,8.82 l -0.3,0.3 c 1.4,1 2.4,2.43 3,4.33 10.6,35.67 24.1,69.13 43.5,100.98 3.2,-3.46 6.5,-6.88 9.8,-10.28 -1.1,-1.02 -2.1,-2.29 -2.7,-4.01 -12.7,-33.99 -25.7,-68.63 -44.1,-100.14 z m -40.3,38.47 c -5.8,5.56 -11.6,11.1 -17.5,16.66 0.9,1.12 1.5,2.44 1.8,4.17 0.4,2.85 -1.9,5.1 -3.6,7.2 2.7,1.29 7.8,14.03 8.1,14.6 12.6,30.28 25,60.64 37.6,90.96 8.8,-10.58 17.8,-21.05 26.9,-31.38 -3.8,0.05 -7.2,-1.2 -9.1,-4.41 -18.7,-30.39 -34.6,-63.31 -44.2,-97.8 z m -51.3,48.97 -1.8,1.68 c -3,2.88 -6,5.78 -9,8.68 18,39.87 32.3,81.14 43.8,123.32 0.9,3.27 -0.2,6.72 -2.5,9.92 7,-8.99 14,-17.91 21,-26.78 -1.8,-1.02 -3.4,-2.59 -4.4,-4.95 -13.3,-31.29 -26.6,-62.58 -39.8,-93.94 -2.5,-5.9 -5.3,-12 -7.3,-17.93 z m -40.9,40.35 c -3.7,3.79 -7.4,7.6 -11,11.43 18.9,41.3 38.2,82.33 59.1,122.6 7.3,-9.75 14.6,-19.44 22,-29.06 -8.6,10.06 -28.2,16.49 -31.8,3.66 -10.4,-37.21 -23.5,-73.11 -38.3,-108.63 z m -39.8,43.41 c -4.4,5.1 -8.7,10.23 -12.9,15.44 22.9,40.25 45.3,80.76 67.4,121.46 3.3,-4.68 6.6,-9.31 9.9,-13.97 -2.2,-0.71 -4.2,-2.16 -5.6,-4.74 -20.5,-38.91 -40.5,-78.18 -58.8,-118.19 z m -38.9,49.48 c -8.1,11.46 -16,23.27 -23.4,35.52 23.1,41.02 46.3,82.05 69.4,123.1 7.5,-11.87 15.1,-23.68 22.9,-35.37 -22.6,-41.29 -45.5,-82.41 -68.9,-123.25 z m -46.4,75.3 c -4.5,8.21 -9.1,16.44 -13.5,24.75 20,39.63 43.8,79.2 72.4,113.89 3.2,-5.63 6.6,-11.2 9.9,-16.79 -23,-40.6 -45.9,-81.22 -68.8,-121.85 z m -35,66.82 c -5.8,11.94 -11.5,23.95 -17.1,36.05 20,39.37 42.4,78.3 68.2,114.59 7.4,-14.62 15,-29.16 22.8,-43.55 -27.5,-34.36 -52.9,-68.57 -73.9,-107.09 z m -41.6,92.28 0.7,1.48 c 13.6,42.53 34.5,81.73 64.2,114.54 2.9,-6.46 6,-12.84 9,-19.25 -25.1,-34.68 -48.8,-69.6 -69.5,-107.17 -1.4,3.47 -2.9,6.92 -4.4,10.4 z m -30,77.88 c 19.8,35.09 42.9,68.54 68.9,99.35 3,-7.61 6.1,-15.2 9.3,-22.75 -29.4,-28.77 -53.8,-62.36 -69.5,-100.22 -2.9,7.86 -5.9,15.72 -8.7,23.62 z m -16.4,48.26 c -3.8,11.63 -7.5,23.28 -11,34.96 19.3,36.82 39.8,73.16 64,106.99 1.4,-4.39 2.7,-8.81 4.1,-13.19 4,-12.18 8.2,-24.29 12.5,-36.34 -25.8,-29.04 -49.1,-59.6 -69.6,-92.42 z m -26.6,89.35 c -2.7,10.06 -5.3,20.14 -7.8,30.23 l 1.2,1.77 c 17.4,38.12 36.6,76.03 60.6,110.64 5,-19.32 10.3,-38.58 15.9,-57.75 -6.9,2.82 -14,2.95 -17.6,-2.25 -18.6,-26.86 -36.4,-54.18 -52.3,-82.64 z m -21.9,92.28 c -2.4,11.68 -4.8,23.37 -7,35.09 4.9,-1.58 9.4,-1.01 11.7,3.12 16.7,29.44 34.4,58.13 53.6,85.87 1.5,-8.39 3.3,-16.72 5.3,-24.88 -23.6,-31.35 -46,-64.06 -63.6,-99.2 z m -24.1,135.66 c 3.8,0.35 7.2,1.88 9.5,4.99 20.3,27.78 45.3,44.39 70.8,63.62 -1.3,-6.55 -2.1,-13.17 -2.6,-19.85 l -0.6,-0.67 c -24.9,-32.53 -48.2,-66.19 -68.5,-101.71 -3,17.83 -5.9,35.7 -8.6,53.62 z m 752.8,-649.76 c -37.3,131.52 -93.3,255.16 -161.4,373.52 -57.9,99.85 -123.5,196.33 -201.3,281.89 -48.8,53.75 -106.9,113.89 -177,139.1 -41,14.76 -82.1,4.26 -108.1,-24.75 -3.8,1.33 -9.4,0.85 -17.2,-2.48 -34.1,-14.6 -66.6,-43.7 -91.9,-70.21 -32.9,-34.46 -28.5,-65.66 -21.4,-110.12 6.7,-42.71 15.3,-85.12 25.6,-127.12 7,-28.72 14.8,-57.24 23.3,-85.56 0.1,-2.27 0.8,-4.63 2.1,-6.95 7.7,-25.51 16.1,-50.84 25,-75.98 0.2,-2.68 1.3,-5.52 3,-8.25 7.9,-21.75 16,-43.38 24.7,-64.82 28.2,-70.16 60.5,-139.27 98.3,-204.81 -2.3,-4.1 -4.6,-8.2 -6.9,-12.31 -6.4,-11.3 15.7,-25.35 28.5,-22.5 8.5,-12.7 17.4,-24.95 26.6,-36.89 -0.9,-1.48 -1.8,-2.98 -2.6,-4.47 -6.1,-10.44 12.3,-23.7 25.2,-23.47 23.7,-27.88 49.2,-54.26 76.4,-80.3 32.1,-30.84 64.2,-61.73 96.5,-92.5 6.5,-6.25 13.1,-12.37 19.8,-18.22 2.4,-5.3 9,-10.45 16,-13.17 18.3,-14.01 38,-25.55 61.1,-32.21 18.6,-5.34 36.2,12.46 16.4,20.52 l 2.2,1.71 c 22.1,23.27 40.1,48.82 53.8,77.61 5.6,-3.87 11.4,-7.58 17.3,-11.05 -10.1,-17.91 -21.5,-35.38 -35.2,-50.47 -3.6,-4.01 -3.4,-8.51 -1,-12.58 -3.4,-1.34 -6.9,-2.64 -10.3,-3.85 -5.7,1.44 -11.2,0.88 -13.4,-5.7 l -0.1,-0.37 c -5.4,-9.58 7.4,-19.02 19.1,-22.3 l 0.3,-0.25 -0.2,0.2 c 4.8,-1.32 9.4,-1.62 12.3,-0.42 49.2,20.18 92.1,50.39 134.8,81.49 1.6,1.15 2.6,2.37 3.2,3.62 82.2,44.44 56.9,172.38 36.5,244.42" />
      <path
         inkscape:connector-curvature="0"
         id="path668"
         style="fill:#1f1e21;fill-opacity:1;fill-rule:nonzero;stroke:none;stroke-width:6.7717762"
         d="m 7968.5017,-4076.3414 -0.94,-0.53 c 0.49,-0.4 3.76,-0.47 7.15,1.33 -1.31,-0.26 -2.63,-0.52 -3.84,-0.57 -1.1,-0.04 -1.81,-0.13 -2.37,-0.23" />
      <path
         inkscape:connector-curvature="0"
         id="path670"
         style="fill:#1f1e21;fill-opacity:1;fill-rule:nonzero;stroke:none;stroke-width:6.7717762"
         d="m 8088.9417,-4622.2614 c -6.75,9.61 -42.77,15.5 -34.1,-3.73 12.94,-28.69 29.27,-55.78 44.33,-83.27 14.05,-25.63 26.29,-56.5 45.08,-78.63 7.31,-8.62 41.19,-16.34 34.01,4.51 -10.05,29.17 -29.02,56.37 -43.86,83.13 -14.55,26.24 -28.29,53.54 -45.46,77.99" />
      <path
         inkscape:connector-curvature="0"
         id="path672"
         style="fill:#1f1e21;fill-opacity:1;fill-rule:nonzero;stroke:none;stroke-width:6.7717762"
         d="m 9100.4817,-4899.1714 c 0,-8.1 0,-16.2 0,-24.31 -9,12.45 -18.1,24.79 -26.2,37.48 -16.5,25.77 -31.9,52.18 -46.6,78.96 9.5,1.9 19.1,3.98 28.5,6.18 8.8,-25.63 17.6,-52.02 31.1,-74.12 1.9,-3.07 7.2,-5.92 13.2,-7.77 0,-5.47 0,-10.95 0,-16.42 z m -17.1,-86.99 c -2,-0.86 -4,-1.6 -6.1,-2.39 -11.5,7.36 -21.1,27.56 -28.8,38.01 -12,16.37 -23.8,32.83 -35.5,49.41 -19.1,27.03 -37.4,54.57 -55.2,82.4 12.5,1.74 25,3.65 37.4,5.74 13,-25.39 26.5,-50.5 41.2,-75.02 17.4,-29.26 35.1,-63.78 59.4,-87.84 l 1.6,-1.25 c -2.4,-3.2 -6.5,-5.89 -14,-9.06 z m -292.46,-49.5 -0.58,1.27 c -19.98,34.46 -46.35,66.02 -68.53,99.21 -20.07,30.02 -39.24,60.58 -57.82,91.52 14.62,0.6 29.23,1.4 43.83,2.18 36.84,-58.28 72.26,-119.42 115.02,-173.3 7.44,-9.4 45.24,-7.51 36.74,6.66 -35.09,58.32 -78.66,112.47 -117.75,168.45 12.96,0.82 25.89,1.88 38.84,2.84 16.24,-32.37 32.34,-64.81 48.51,-97.2 15.1,-30.14 28.4,-63.61 45.8,-93.22 -3.6,-0.42 -7.3,-0.86 -10.9,-1.27 -24.3,-2.72 -48.74,-5.04 -73.16,-7.14 z m -321.71,-11.89 c 0,1.47 -0.44,3.2 -1.56,5.28 -18.76,35.02 -45.15,66.98 -66.86,100.3 -19.33,29.67 -38.08,59.71 -56.41,90 -1.78,2.95 -5.18,5.55 -9.15,7.57 15.67,-0.51 31.33,-0.97 47.01,-1.34 47.55,-67.22 93.27,-136.62 144.39,-201.01 l 0.66,-0.63 c -19.34,-0.17 -38.7,-0.25 -58.08,-0.17 z m -395.9,16.75 c -36.45,70.66 -79.36,141.61 -104.33,217.32 31.07,-5.1 62.36,-8.99 93.47,-12.5 9.42,-1.06 18.87,-1.88 28.29,-2.84 42.49,-71.36 86.21,-141.94 131.36,-211.65 -16.71,0.87 -33.39,1.85 -50.07,2.85 -47.71,66.48 -93.67,134.29 -138.04,203.02 -7.24,11.21 -41.53,15.85 -30.28,-2.76 40.76,-67.43 84.08,-133.13 129.08,-197.77 -14.72,0.98 -29.44,1.94 -44.13,3.02 -5.12,0.38 -10.23,0.89 -15.35,1.31 z m -284.37,80.84 c 0,19.59 0,39.18 0,58.77 0,3.29 0,6.57 0,9.84 1.65,-4.37 3.33,-8.73 5.04,-13.08 13.21,-33.69 26.1,-67.66 40.01,-101.12 -12.85,4.6 -24.82,10.43 -34.56,18.5 -9.61,7.95 -10.49,15.64 -10.49,27.09 z m 55.6,370.48 c 34,-65.64 67.7,-132.88 105.71,-195.91 l 1.12,-1.49 c -7.05,1.27 -14.34,2.58 -21.83,4.01 1.26,3.85 -0.13,9.19 -6.04,15.52 -36.69,39.26 -57.57,92.19 -77.69,142.11 -2.14,5.31 -8.98,10.27 -15.73,12.84 0.15,8.84 1.42,17.56 4.99,25.28 3.15,-0.82 6.3,-1.62 9.47,-2.36 z m -55.38,68.19 c -3.13,11.75 -0.22,27.79 -0.22,39.76 0,42.8 0,85.6 0,128.39 l -0.14,1 c 32.17,-16.25 72.24,-22.74 105.8,-29.18 74.46,-14.28 150.22,-21.95 225.76,-27.67 176.63,-13.36 354.8,-15.32 531.87,-6.37 4.62,-2.05 9.69,-3.1 14.52,-2.31 2.65,0.43 5.89,1.7 8.18,3.63 15.86,0.88 31.73,1.7 47.57,2.77 l 1,0.07 c 10.38,-5.24 29.55,-6.38 30.16,2.26 33.19,2.49 66.35,5.47 99.42,9.2 3.8,-1.08 7.7,-1.56 11.5,-0.82 2.2,0.44 4.9,1.51 7,3.07 13,1.58 26,3.24 39,5.09 10.8,-4.2 25.7,-5.68 25.6,3.94 7.1,1.13 14.2,2.07 21.3,3.29 3.8,0.65 7.7,1.33 11.5,1.99 9.1,-1.86 19.8,-1.05 22.3,4 13.8,2.58 27.6,5.51 41.3,9.02 l 0.1,-0.12 c 8.6,-8.18 43.9,-4.14 33,10.17 7.8,2.81 15.3,6.03 22.7,9.53 l 1.6,-1.55 c 3.3,-2.87 10.7,-4.41 17.9,-4.31 -4.3,-3.99 -7.4,-8.73 -7.4,-13.33 0,-36.89 0,-73.79 0,-110.68 0,-17.22 1,-34.82 0,-52.02 -0.1,-1.8 0,-2.15 0.1,-2.21 l -0.9,-0.97 c 1.4,2.16 -1,-0.72 -5.8,-3.51 -33.2,-19.5 -82.7,-27.34 -122.2,-34.32 -73,-12.89 -147.17,-19.95 -221.08,-25.22 -188.93,-13.48 -379.59,-14 -568.62,-1.95 -76.13,4.86 -152.34,11.73 -227.72,23.77 -46.07,7.35 -95.96,14.67 -138.66,34.57 -9.69,4.51 -23.9,11.49 -26.44,21.02 z m -0.22,258 c 0,3.72 0,7.44 0,11.16 12.32,-28.04 26.42,-54.84 44.57,-79.39 -6.08,2.28 -12.07,4.72 -17.91,7.44 -9.69,4.53 -23.9,11.49 -26.44,21.03 -3.13,11.75 -0.22,27.79 -0.22,39.76 z m 0,72.55 c 7.62,-3.48 15.56,-6.3 23.09,-8.64 27.27,-50.23 54.83,-100.85 84.75,-149.39 -6.59,1.32 -13.16,2.76 -19.71,4.3 -35.13,37.01 -55.62,85.97 -75.28,132.3 -1.83,4.32 -7.12,8.4 -12.85,11.01 0,3.48 0,6.95 0,10.42 z m 102.82,-26.44 c 22.92,-44.9 44.35,-90.55 63.79,-137.07 0.75,-1.78 1.87,-3.42 3.06,-5.02 -1.44,0.23 -2.9,0.39 -4.35,0.62 -6.25,1 -12.59,2.01 -18.97,3.04 -24.43,49.63 -53.38,98.52 -83.38,145.71 13.19,-2.87 26.5,-5.24 39.85,-7.28 z m 69.87,-8.92 c 16.93,-47.3 33.96,-94.64 53.12,-141.09 -7.61,0.96 -15.2,2.1 -22.8,3.15 0.38,1.39 0.36,2.99 -0.47,4.93 -20,46.84 -42.14,92.4 -65.96,137.27 12.05,-1.54 24.07,-2.84 36.11,-4.26 z m 54.16,-6.04 c 12.03,-23.66 26.12,-46.38 39.36,-69.34 14.04,-24.33 26.27,-53.63 45.04,-74.65 -15.73,1.39 -31.45,2.91 -47.16,4.59 -18.71,47.36 -38.63,94.24 -57.7,141.47 6.82,-0.74 13.64,-1.37 20.46,-2.07 z m 79.72,-7.28 c 13.29,-26.87 37.57,-50.77 55.15,-74.81 16.26,-22.25 30.44,-46.45 46.4,-69.02 -5.02,0.31 -10.06,0.52 -15.08,0.84 -15.71,1 -31.44,2.16 -47.16,3.36 0.57,1.85 0.51,4.16 -0.58,7.17 -10.05,27.7 -29.02,53.54 -43.86,78.96 -11.04,18.92 -21.64,38.4 -33.61,56.86 12.91,-1.18 25.83,-2.32 38.74,-3.36 z m 76.56,-5.37 c 31.7,-48.12 64.25,-97.72 101.25,-142.34 -11.66,0.5 -23.31,1.01 -34.95,1.6 -13.98,25.55 -32.29,49.52 -49.35,72.8 -17.92,24.44 -36.57,49.08 -58,70.69 13.67,-0.97 27.35,-1.93 41.05,-2.75 z m 55.69,-2.93 c 19.55,-28.43 41.3,-55.44 63.24,-82.03 16.41,-19.88 32.7,-40.94 50.75,-59.73 -9.03,0.24 -18.05,0.46 -27.07,0.76 -34.45,48.36 -72.99,94.3 -108.35,142.12 7.14,-0.36 14.27,-0.8 21.43,-1.12 z m 64.04,-2.97 c 18.18,-22.46 38.21,-43.6 56.64,-65.84 20.13,-24.27 39.17,-49.29 58.49,-74.18 -7.64,0.09 -15.27,0.19 -22.91,0.31 -19.09,25.36 -42.14,48.34 -62.57,72.6 -19.06,22.66 -37.69,45.7 -56.77,68.34 9.05,-0.41 18.09,-0.8 27.12,-1.23 z m 92.09,-4.18 c 16.85,-24.19 35.93,-47.02 53.33,-70.78 15.69,-21.42 30.47,-43.55 45.89,-65.16 -11.47,-0.09 -22.94,-0.12 -34.41,-0.11 -34.49,48.69 -74.08,96.42 -117.25,138.37 17.48,-0.82 34.96,-1.6 52.44,-2.32 z m 70.15,-2.3 c 17.6,-25.41 35.51,-50.59 53.92,-75.43 14.02,-18.9 27.7,-38.9 42.95,-57.19 -9.02,-0.21 -18.03,-0.39 -27.05,-0.55 -29.57,46.89 -64.45,93.34 -102.54,134.08 10.91,-0.36 21.81,-0.64 32.72,-0.91 z m 72.29,-0.92 c 31.37,-43.24 61.97,-88.91 96.9,-129.39 -10.57,-0.43 -21.14,-0.81 -31.71,-1.16 -17.72,24.36 -38.53,47.03 -56.96,70.62 -15.52,19.88 -30.74,39.98 -45.82,60.19 12.53,-0.16 25.06,-0.3 37.59,-0.26 z m 83.56,2.09 c 14.83,-23.38 33.8,-44.58 50.24,-66.82 14.61,-19.77 27.94,-40.36 41.66,-60.7 -12.9,-0.77 -25.79,-1.5 -38.7,-2.14 -17.64,24.01 -37.78,46.59 -56.44,69.57 -15.73,19.39 -31.27,38.91 -46.83,58.43 16.69,0.32 33.38,0.86 50.07,1.66 z m 66.47,3.79 c 25.18,-43.78 53.28,-88.23 86.01,-127.33 -3.93,-0.29 -7.85,-0.64 -11.77,-0.92 -3.8,-0.27 -7.6,-0.45 -11.4,-0.72 -27.31,45.11 -61.61,89.47 -97.9,126.83 11.67,0.67 23.35,1.38 35.06,2.14 z m 58.57,4.3 c 20.69,-21.52 32.25,-50.68 48.89,-75.22 11.73,-17.31 24.7,-35.2 38.95,-51.35 -7.11,-0.66 -14.2,-1.38 -21.31,-1.99 -30,42.77 -62.9,83.99 -93.35,126.44 8.93,0.65 17.88,1.4 26.82,2.12 z m 70.4,6.45 c 13.67,-19.65 27.25,-39.36 40.35,-59.4 13.7,-21 25.9,-45.48 40.5,-66.78 -8.4,-1.03 -16.7,-2.18 -25.1,-3.1 -17.3,21.24 -36.53,40.91 -51.91,63.84 -14.16,21.11 -26.56,42.56 -42.9,61.65 13.02,1.19 26.05,2.42 39.06,3.79 z m 51.95,6.09 c 27.7,-41.82 54.7,-84.83 85.2,-124.45 -5.7,-0.89 -11.4,-1.86 -17,-2.68 -12.5,23.41 -29.6,45.84 -44,66.96 -13.4,19.71 -27.3,39.02 -41.7,58.04 5.8,0.7 11.7,1.38 17.5,2.13 z m 58.9,8.47 c 29,-41.87 59.8,-84.03 94.6,-121.17 -10.9,-2.16 -21.6,-4.09 -31.8,-5.89 -27.5,42.36 -59.3,82.54 -90,122.92 9.1,1.3 18.2,2.72 27.2,4.14 z m 67.5,11.96 c 25.5,-40.5 53,-82.68 85.9,-117.27 -6.9,-2.64 -14.1,-5.01 -21.6,-7.12 -33.7,38.92 -68.1,76.74 -99.4,117.75 11.7,2.08 23.4,4.32 35.1,6.64 z m 60.4,12.53 c 15.3,-28.15 30.2,-56.63 47,-83.8 1.8,-2.99 5.4,-5.1 9.8,-6.4 0,-7.24 0,-14.46 -0.4,-21.62 l -0.1,-0.81 c -13,14.83 -26.4,29.35 -38.8,44.62 -16.3,20.07 -31.8,40.5 -46.5,61.64 9.5,1.88 19.2,3.95 29,6.37 z m 56.4,21.26 c 0,-16.56 0,-33.12 0,-49.69 -7.8,12.88 -15.7,25.7 -23.5,38.53 8.3,3.19 16.2,6.86 23.5,11.16 z m -68.9,-607.7 c -35.8,61.13 -80.9,117.47 -121.1,175.46 l -2,2.43 c 11.4,1.61 22.7,3.4 34,5.24 -1.6,-2.32 -1.3,-5.81 1.9,-10.75 33.4,-51.51 68.8,-104.88 109.7,-150.99 -7.3,-0.35 -12.4,-3.86 -9.2,-11.95 0.8,-2.04 1.6,-4.15 2.3,-6.23 -5.2,-1.11 -10.4,-2.2 -15.6,-3.21 z m -1048.69,5.07 c -29.36,64.03 -65.85,126.98 -102.86,186.97 4.95,-0.93 9.84,-1.84 14.57,-2.74 9.51,-1.83 19.04,-3.54 28.59,-5.16 27.75,-55.52 53.39,-112.21 76.38,-170.1 3.57,-8.99 12.85,-16.16 22.2,-16.97 6.22,-0.54 17.59,2.32 13.73,11.85 -23.6,58.2 -50.12,114.55 -78.98,170 13.79,-2.02 27.62,-3.85 41.47,-5.54 0.11,-1.47 0.39,-3.08 1.05,-5.02 20.37,-59.73 40.32,-119.78 63.7,-178.29 1.01,-2.53 3.09,-4.77 5.73,-6.64 -28.1,3.54 -56.05,7.85 -83.88,12.72 0.45,2.2 0.06,5.08 -1.7,8.92 z m 23.95,-247.43 c -30.27,73.71 -62.02,146.72 -95.56,219 8.01,-1.83 16.05,-3.55 24.12,-5.15 22.72,-76.63 63.52,-148.54 99.28,-219.89 -8.98,0.92 -17.97,1.84 -26.94,2.87 -0.15,0.98 -0.43,2.03 -0.9,3.17 z m -164.63,280.5 c -15.86,12.43 -9.25,33.52 -9.25,53.27 0,10.4 -0.1,20.71 -0.38,31 16.44,-39.53 36.01,-76.76 64.32,-109.05 -20.27,5.5 -39.69,13.01 -54.69,24.78 z m 31.69,-265.21 c -26.54,67.37 -64.44,135.3 -71.39,207.7 -0.32,3.3 -2.4,6.69 -5.34,9.73 3.45,2.33 6.83,4.63 7.53,5.2 6.16,5.04 8.73,10.61 8.79,15.24 2.16,-1.71 4.43,-3.35 6.87,-4.85 -4.87,-0.28 -7.92,-3.66 -5.95,-12.12 11.05,-47.64 33.6,-92.53 54.91,-136.23 11.58,-23.73 23.2,-47.43 34.84,-71.13 3.01,-6.11 5.66,-12.95 8.78,-19.46 -12.32,1.7 -25.58,3.47 -39.04,5.92 z m 79.82,-11.63 c -1.21,0.95 -2.49,1.83 -3.76,2.56 3.07,2.6 -7.29,15.9 -9.62,20.47 -4.9,9.63 -9.81,19.25 -14.72,28.88 -10.27,20.11 -20.61,40.2 -30.79,60.36 -18.86,37.37 -34.93,75.01 -48.24,114.69 -0.87,2.59 -2.77,5.25 -5.25,7.7 12.19,-4.59 24.9,-7.89 35.41,-10.66 0.21,-1.3 0.58,-2.72 1.29,-4.41 31.24,-73.53 61.67,-147.43 91.21,-221.67 -5.18,0.68 -10.36,1.38 -15.53,2.08 z m 369.59,-14.38 c -31.17,65.9 -67.07,130 -104.21,192.84 11.64,-0.69 23.29,-1.45 34.95,-2.03 16.05,-34.6 32.12,-69.2 48.4,-103.69 15.66,-33.15 30.13,-69.84 50.22,-100.88 -11.43,0.32 -22.86,0.74 -34.28,1.13 5.22,1.93 8.07,5.98 4.92,12.63 z m -138.2,194.96 c 34.34,-66.26 68.03,-132.82 102.2,-199.17 1.76,-3.43 5.75,-6.03 10.47,-7.7 -12.38,0.48 -24.76,1 -37.14,1.56 -46.8,69.08 -92.23,139.12 -136.15,210.08 20.19,-1.81 40.4,-3.37 60.62,-4.77 z m 205.28,-209.57 c -13.6,33.08 -33.16,64.61 -49.8,96.21 -18.77,35.65 -36.95,71.6 -54.61,107.82 8.08,-0.35 16.16,-0.72 24.24,-1.02 -1.21,-2.1 -1.03,-5.18 1.51,-9.6 18.52,-32.19 37.64,-64 57.17,-95.58 20.17,-32.62 39.53,-68.46 64.69,-97.47 l 1.17,-1.06 c -14.79,0.17 -29.58,0.4 -44.37,0.7 z m 312.64,7.62 c -16.05,34.36 -39.56,66.59 -58.82,99.34 -18.13,30.82 -35.44,62.05 -52.22,93.62 12.69,0.29 25.37,0.72 38.06,1.13 16.48,-29.71 33.37,-59.2 51.3,-88.04 21.86,-35.14 44.14,-75.11 72.46,-105.67 -16.59,-1.22 -33.18,-2.27 -49.79,-3.22 -0.22,0.89 -0.52,1.82 -0.99,2.84 z m -140.4,-3.62 c -45.8,67.22 -97,131.32 -146.32,196.18 23.87,-0.4 47.75,-0.61 71.64,-0.65 33.64,-66.54 65.58,-134.26 101.87,-199.35 -8.55,-0.2 -17.12,-0.36 -25.68,-0.5 -0.07,1.33 -0.44,2.75 -1.51,4.32 z m 65.26,-2.69 c -33.86,67.22 -72.1,132.39 -108.66,198.24 13.2,0.08 26.4,0.27 39.6,0.47 15.36,-30.79 30.94,-61.49 47.18,-91.82 18.56,-34.68 36.79,-74.65 61.65,-105.42 -13.25,-0.61 -26.51,-1.02 -39.77,-1.47 z m 88.59,233.22 c -19.57,30.69 -43.73,58.73 -65.81,87.37 -21.39,27.75 -42.61,55.64 -63.68,83.65 -10.25,13.63 -43.7,15.96 -28.05,-6.18 38.96,-55.1 75.85,-115.62 120.12,-166.46 -11.29,-0.46 -22.59,-0.91 -33.9,-1.27 l -0.87,0.61 c -19.3,30.83 -44.15,58.55 -65.71,87.62 -20.23,27.28 -40.06,54.87 -59.56,82.73 -7.89,11.28 -42.36,13.96 -30.04,-4.99 20.46,-31.44 41.44,-62.48 63,-93.09 17.48,-24.81 34.53,-51.25 54.67,-73.92 -10.34,-0.23 -20.69,-0.41 -31.03,-0.57 -0.32,1.02 -0.8,2.11 -1.48,3.27 -35.15,60.31 -78.62,120.53 -126.18,170.52 -7.57,7.96 -38.18,10.99 -26.81,-7.27 18.3,-29.38 40.37,-56.36 60.09,-84.71 18.85,-27.1 36.36,-55.28 55.29,-82.28 -11.53,-0.07 -23.05,-0.04 -34.57,-0.03 -1.27,1.38 -2.71,2.63 -4.31,3.72 -0.06,1.74 -0.75,3.72 -2.24,5.95 -40.91,61.31 -89.17,121.39 -142.13,171.51 -10.98,10.39 -39.38,9.52 -24.46,-10.86 19.87,-27.17 42.84,-52 63.64,-78.41 23.27,-29.55 45.06,-60.17 67.53,-90.36 l 1.36,-1.41 c -9.55,0.09 -19.08,0.25 -28.61,0.39 1.55,2.06 1.51,4.96 -1.25,8.97 -19.67,28.6 -44.39,54.02 -66.02,81.08 -22.56,28.22 -44.36,57.14 -67.22,85.1 -8.2,10.03 -42.42,13.34 -29.8,-6.36 20.37,-31.79 43.4,-61.77 66.57,-91.33 20.04,-25.56 39.73,-53.19 62.88,-75.72 l 1.65,-1.24 c -3.4,0.07 -6.8,0.17 -10.19,0.23 -7.72,3.6 -17,4.1 -20.93,0.49 l -0.26,0.01 c -39.81,60.94 -86.47,117.58 -127.57,177.72 -9.86,14.42 -42.38,16.47 -27.98,-6.52 36.16,-57.74 73.32,-117.79 116.73,-170.09 -13.39,0.42 -26.77,0.85 -40.18,1.4 -0.22,1.11 -0.58,2.29 -1.19,3.62 -14.43,31.21 -35.5,60.08 -54.95,88.01 -21.67,31.12 -44.14,62.86 -71.71,88.45 -7.57,7.02 -30.98,9.61 -23.56,-7.63 12.82,-29.8 38.58,-55.99 56.92,-82.39 19.9,-28.67 36.63,-60.47 57.43,-88.31 -18.09,0.92 -36.17,2.02 -54.24,3.26 -8.82,5.51 -22.92,7.91 -25.71,1.89 -22.68,1.77 -45.31,3.93 -67.9,6.37 -0.96,1.58 -1.95,3.13 -2.91,4.7 l -1.5,2.02 c -0.01,1.39 -0.2,2.89 -0.87,4.66 -21.79,58.4 -45.47,116 -67.42,174.33 -0.62,1.64 -1.65,3.24 -2.92,4.78 30.54,-3.27 61.15,-5.94 91.72,-8.25 200.02,-15.13 402.01,-15.68 602.14,-2.29 36.35,2.44 72.71,5.42 108.98,9.16 -1.9,-2.34 -1.8,-6.02 1.8,-11.39 19.1,-28.71 38.2,-57.5 56.4,-86.85 15.5,-24.99 29,-54.63 46.4,-78.85 -8.8,6.39 -24.8,8.7 -29.3,3.02 -17.7,23.23 -37.7,44.52 -53.6,69.47 -17.2,27.07 -31.78,54.72 -54.14,77.7 -14.6,15 -40,5.61 -21.39,-14.08 21.55,-22.79 33.19,-54.32 50.23,-80.71 15,-23.29 32,-47.49 51.2,-67.59 -8.1,-0.82 -16.2,-1.68 -24.3,-2.43 -33.07,51.28 -70.86,99.9 -105.08,150.45 -7.47,11.03 -41.27,16.14 -30.13,-4.29 28.24,-51.82 60.22,-104.57 98.24,-149.32 -8.91,-0.72 -17.82,-1.49 -26.74,-2.14 -30.23,55.6 -70.57,111.2 -113.29,155.93 -5.08,5.31 -14.31,13.66 -22.3,10.33 -7.27,-3.03 -7.26,-10.8 -3.38,-17.44 15.06,-25.77 34.97,-48.85 52.05,-73.18 17.84,-25.4 33.82,-52.07 50.88,-77.99 -12.85,-0.8 -25.69,-1.63 -38.55,-2.29 z m 198.9,-210.26 c -14.8,32.14 -33.9,63.11 -50.4,94.02 -16.7,31.35 -33.6,62.61 -50.23,93.98 13.83,1.17 27.63,2.58 41.43,3.92 32.5,-64.11 72,-124.98 113.5,-183.63 -18,-3.16 -36.1,-5.89 -54.3,-8.29 z m 91.7,15.32 c -42,58.53 -80.9,118.96 -119.7,179.65 12.6,1.35 25.3,2.78 37.9,4.32 18.4,-30.03 37,-59.92 56.4,-89.33 12.7,-19.36 25.7,-38.57 39.1,-57.52 7.6,-10.83 13.8,-21.31 22.5,-29.27 -12,-2.99 -24.2,-5.5 -36.2,-7.85 z m -30.9,218.8 c -12.4,29.97 -33.5,58.54 -50.6,85.14 -19.1,29.47 -38.8,58.43 -60,86.22 -2.9,3.89 -9,6.9 -15.3,8.47 9.8,1.09 19.7,2.33 29.5,3.57 0.6,-1.74 1.5,-3.62 2.9,-5.79 37.4,-57.12 71.8,-118.41 113.1,-172.55 -3,-0.42 -6.2,-1.53 -8.3,-3.38 -3.8,-0.57 -7.6,-1.14 -11.3,-1.68 z m 36.1,195.75 c 32.7,-54.6 67.8,-115.72 112.8,-161.1 -7.4,-3.17 -15,-5.93 -22.7,-8.31 -42.8,52.57 -87.3,102.54 -125.6,159.19 -3.1,4.64 -10.1,8.08 -17,9.61 16.4,2.83 33.3,5.73 50.1,9.28 -0.4,-2.18 0.2,-5.01 2.4,-8.67 z m 167.2,30.65 c -4.3,14.09 -20.9,10.4 -31.4,15.8 -13.7,7.09 -43,-19.1 -27.7,-27.01 5.2,-2.72 22.2,-3.93 24.1,-6.38 1.6,-2.04 0,-12.33 0,-14.8 0,-13.58 0,-27.17 0,-40.75 -9.7,16.88 -19.6,33.67 -29.2,50.51 -7.4,12.92 -46,15.67 -36.1,-3.18 18.4,-35.2 35.9,-71.41 55.9,-105.63 1.8,-3.04 5.2,-5.2 9.4,-6.58 0,-6.28 0,-12.56 0,-18.83 0,-1.65 0,-3.31 0,-4.96 -13,15.62 -26.5,30.91 -38.9,47 -21.6,28.14 -42,56.91 -60.8,87.26 -2.8,4.61 -9.2,8.14 -15.7,9.94 23.6,5.85 46.7,13.47 67.8,24.55 14.2,7.48 30.5,18.08 36.5,33.83 4.5,12.02 2,28.07 2,40.56 0,45.76 0,91.52 0,137.28 0,5.79 -4.5,7.23 -10.2,6.05 -0.3,1.5 -1,3.18 -2.4,5.08 -2,2.69 -4.2,5.25 -6.4,7.89 7.4,5.83 13.7,12.83 17,21.38 4.5,12.02 2,28.07 2,40.56 0,45.76 0,91.52 0,137.28 0,2.93 -1.1,4.73 -3,5.67 -6.9,18.42 -32.6,32.23 -54.3,39.44 -53.3,17.65 -112,25.29 -167.4,32.49 -61.5,7.99 -123.4,13.38 -185.3,17.39 -127.1,8.24 -254.6,9.81 -381.91,6.87 -81.12,-1.87 -162.22,-6.14 -243.17,-11.8 -33.73,-2.36 -67.6,-4.59 -101.13,-9.07 -16.67,-2.23 -53.56,-5.69 -51.78,-30.2 0.65,-8.93 10.92,-7.94 20.17,-2.76 l 0.94,0.53 c 7.66,4.56 14.36,11.94 13.86,18.87 0.78,-10.82 -3.48,-15.86 -7.65,-18.07 1.85,0.37 3.7,0.79 5.37,1.04 11.02,1.7 22.16,2.79 33.25,3.88 28.26,2.79 56.59,4.85 84.92,6.76 50.93,3.44 101.91,6.39 152.91,8.49 224.04,9.26 453.17,7.74 675.22,-26.55 45.2,-6.98 96.8,-12.72 139.3,-30.6 8.7,-3.64 19.2,-8.59 25.8,-15.53 9.5,-9.99 8.9,-15.64 -3.5,-21.88 -12.1,-6.1 -26.1,-9.85 -39.9,-13.18 -5.2,0.16 -10,-0.75 -12.5,-3.04 -2.4,-0.55 -4.8,-1.11 -7,-1.68 -10,-2.52 -20.1,-4.72 -30.3,-6.92 -11.2,10.26 -41.6,12.61 -30,-5.72 l 0.2,-0.32 c -12.8,-2.4 -25.5,-4.62 -38.4,-6.65 -11.2,9.37 -39.6,11.24 -30.8,-4.59 -9.7,-1.32 -19.4,-2.59 -29.2,-3.76 -1.2,1.64 -2.4,3.25 -3.6,4.88 -10,13.74 -42.62,14.66 -27.8,-6.79 l 1,-1.46 c -6.9,-0.72 -13.7,-1.47 -20.58,-2.13 -10.76,8.41 -37.51,10.72 -32.07,-2.97 -29,-2.55 -57.91,-4.8 -86.52,-7.05 -58.08,-4.56 -115.74,-6.36 -173.44,-6.31 -4.36,1 -8.56,1.08 -11.62,0.06 -47.59,0.24 -95.22,1.66 -143.14,3.96 -115.14,5.52 -230.57,7.6 -345.2,20.7 -18.63,2.12 -37.85,4.04 -57.23,6.17 -4.05,1.41 -7.97,1.93 -10.94,1.24 -17.52,2.03 -35.08,4.38 -52.44,7.36 -7.5,7.18 -24.29,11.2 -28.57,5.58 -16.81,3.78 -33.26,8.38 -49.02,14.22 -1.39,0.51 -3.24,1.22 -5.35,2.07 -4.87,6.45 -13.62,14.34 -21.8,12.38 l -1.26,-0.45 c -8.23,5.83 -13.75,12.86 -9.34,20.23 6.3,10.55 36.77,16.38 47.05,19.37 26.98,7.86 54.59,13.39 82.22,18.34 16.99,3.05 30.19,32.84 4.69,28.27 -29.74,-5.33 -181,-26.91 -171.14,-85.14 0,-39.67 0,-79.35 0,-119.02 0,-26.3 -6.62,-52.52 17.28,-69.55 2.61,-1.87 5.46,-3.45 8.23,-5.12 -10.35,-1.68 -25.51,-12.61 -25.51,-22.82 0,-40.25 0,-80.5 0,-120.75 0,-26.3 -6.62,-52.52 17.28,-69.55 10.93,-7.79 23.52,-13.72 36.78,-18.63 -17.28,-25.95 -12.75,-58.64 -10.76,-88.56 1.42,-21.41 0.72,-42.97 0.72,-64.41 0,-10.42 -2.15,-22.15 2.88,-31.82 0.85,-1.63 1.83,-3.19 2.91,-4.69 -3.59,-0.08 -7.94,-1.73 -12.66,-5.6 -5.91,-4.82 -12.17,-9.77 -17.86,-15.14 -2.37,-0.72 -4.15,-2.36 -5.01,-5.1 -7.98,-8.64 -13.96,-18.51 -14.28,-30.91 -0.45,-16.59 0,-33.26 0,-49.86 0,-36.04 -3.91,-74.45 0,-110.31 4.13,-37.91 58.6,-49.58 88.63,-56.67 46.67,-11.02 95.11,-16.11 142.66,-21.9 56.4,-6.85 113.16,-10.52 169.97,-13.19 5.59,-6.77 15.03,-11.03 23.83,-9.93 4.49,0.57 11.66,3.54 12.64,8.31 16.62,-0.68 33.24,-1.33 49.85,-1.98 7.67,-10.75 38.23,-12.2 37.7,-1.44 90.19,-3.53 180.45,-6.03 270.72,-4.81 94.65,1.29 189.43,6.64 283.6,16.54 22.1,2.32 44.5,4.74 67,7.52 8.7,-1.83 18.8,-1.37 22.6,2.9 50.9,6.99 101.7,16.64 149.7,33.05 26.7,9.13 60.2,26.29 62.5,58.01 1.1,14.76 0,29.99 0,44.77 0,40.25 0,80.5 0,120.75 0,16.14 -34.9,-1.16 -34.9,-16.64 0,-0.96 0,-1.92 0,-2.88 -3.2,6.85 -6.3,13.67 -9.5,20.48 21,5.66 42.9,13.08 60.6,25.08 10.9,0.08 21.4,4.17 16.2,13.5 8.8,9.58 11.6,19.01 11.7,31.71 0,22.28 0,44.56 0,66.84 0,25.86 0,51.72 0,77.58 0,4.48 1.3,11.42 0,15.75" />
      <path
         inkscape:connector-curvature="0"
         id="path674"
         style="fill:#1f1e21;fill-opacity:1;fill-rule:nonzero;stroke:none;stroke-width:6.7717762"
         d="m 9162.5817,-5050.6514 c 0,7.91 1.1,16.78 0,24.62 -2,13.12 -13,16.72 -20.9,26.3 -10.6,12.7 -42.7,-10.4 -32.6,-22.63 5.7,-6.87 15.9,-11.44 18.5,-19.69 1.7,-5.5 0,-14.81 0,-20.49 0,-24.47 0,-48.93 0,-73.4 0,-21.26 0,-42.53 0,-63.79 0,-1.8 -0.3,-13.43 0,-8.48 -0.2,-3.39 1.4,-0.8 -2.2,-3.39 0.1,0.07 -7.9,-4.87 -11.9,-6.81 -8.2,-3.95 -16.8,-7.06 -25.5,-9.87 -24.6,-7.97 -50,-13.65 -75.3,-18.59 -73.2,-14.25 -147.8,-21.78 -222.03,-27.61 -197.43,-15.48 -396.82,-16.54 -594.48,-4.75 -80.57,4.8 -161.19,11.75 -241,24.02 -49.84,7.67 -103.56,15.31 -149.96,36.2 -9.81,4.42 -25.93,11.97 -28.96,21.49 -3.66,11.51 -0.48,28.09 -0.48,39.87 0,44.82 0,89.65 0,134.48 0,16.14 -34.96,-1.16 -34.96,-16.64 0,-41.7 0,-83.4 0,-125.1 0,-28.21 -6.68,-54.31 19.43,-71.91 37.69,-25.42 90.8,-33.18 134.4,-41.18 81.43,-14.94 164.2,-22.79 246.72,-28.47 207.75,-14.3 417.48,-14.25 625.15,1.37 79.17,5.96 158.57,14.19 236.67,29.03 44.2,8.42 95.8,17.34 133.7,43.58 33.3,23.01 25.7,56.11 25.7,92.17 0,29.89 0,59.78 0,89.67" />
      <path
         inkscape:connector-curvature="0"
         id="path676"
         style="fill:#58a587;fill-opacity:1;fill-rule:nonzero;stroke:none;stroke-width:6.7717762"
         d="m 8681.3517,-3189.3214 c -5.67,7.35 -15.76,13.22 -25.36,11.91 -7.96,-1.08 -12.48,-8.07 -7.14,-15.21 9.4,-12.57 18.31,-25.49 26.36,-38.98 8.39,-14.06 14.41,-29.72 24.36,-42.71 5.54,-7.26 36.65,-17.92 31.59,0.79 -8.12,30.03 -31.04,59.85 -49.81,84.2" />
      <path
         inkscape:connector-curvature="0"
         id="path678"
         style="fill:#58a587;fill-opacity:1;fill-rule:nonzero;stroke:none;stroke-width:6.7717762"
         d="m 8703.0117,-3149.0014 c -5.4,13.83 -40.57,25.95 -32.44,3.81 14.38,-39.16 32.81,-78.29 58.58,-111.35 4.95,-6.36 14.57,-12.78 23.03,-11.47 6.87,1.06 11.48,6.86 7.28,13.89 -20.72,34.68 -41.64,67.25 -56.45,105.12" />
      <path
         inkscape:connector-curvature="0"
         id="path680"
         style="fill:#58a587;fill-opacity:1;fill-rule:nonzero;stroke:none;stroke-width:6.7717762"
         d="m 8720.3217,-3118.9814 c -4.34,6.73 -13.53,17.14 -22.82,15.24 -8.44,-1.74 -10.14,-9.6 -5.79,-16.78 30.04,-49.62 65.51,-98.51 109.8,-136.51 6.08,-5.21 17.76,-12.68 26.17,-8.23 7.9,4.16 6.7,11.82 0.9,17.72 -39.86,40.15 -77.45,80.85 -108.26,128.56" />
      <path
         inkscape:connector-curvature="0"
         id="path682"
         style="fill:#58a587;fill-opacity:1;fill-rule:nonzero;stroke:none;stroke-width:6.7717762"
         d="m 8812.5917,-3159.5814 c -24.51,26.94 -47.08,55.46 -68.05,85.23 -9.69,13.76 -42.83,16.29 -28.17,-5.26 42.42,-62.35 92.48,-123.24 151.91,-170.13 11.5,-9.06 40.9,-5.42 23.8,11.9 -26.2,26.48 -54.3,50.61 -79.49,78.26" />
      <path
         inkscape:connector-curvature="0"
         id="path684"
         style="fill:#58a587;fill-opacity:1;fill-rule:nonzero;stroke:none;stroke-width:6.7717762"
         d="m 8822.7517,-2993.6414 c -10.86,13.33 -43.16,11.23 -27.14,-9.19 53.07,-67.68 106.87,-134.84 160.57,-202.05 1.3,-1.65 3.2,-3.02 5.3,-4.14 -6,2.15 -12.2,2.43 -16.2,-0.7 -5.6,4.08 -11.1,11.07 -14.8,14.55 -8.1,7.72 -16.2,15.61 -24.1,23.64 -14.9,15.18 -29.2,30.89 -43,47.09 -27.2,32.02 -52.23,65.81 -75.09,101.06 -4.34,6.69 -14.01,16.81 -23.15,14.72 -8.53,-1.94 -9.75,-9.74 -5.43,-16.89 30.98,-51.14 66.57,-99.01 107.07,-143.02 20.2,-21.99 73.1,-93.01 109.6,-63.78 7.8,6.24 -0.6,16.58 -11.2,21.78 13.8,-4.71 34.2,-0.49 22.6,13.9 -54.8,67.82 -110,135.41 -165.03,203.03" />
      <path
         inkscape:connector-curvature="0"
         id="path686"
         style="fill:#58a587;fill-opacity:1;fill-rule:nonzero;stroke:none;stroke-width:6.7717762"
         d="m 8883.5817,-2959.1414 c -14.1,14.94 -39.4,6.11 -21.6,-13.15 54.8,-59.02 105.5,-121.98 153.2,-186.73 9.1,-12.34 46,-11.26 31.8,7.52 -50.7,67.43 -105.6,130.99 -163.4,192.36" />
      <path
         inkscape:connector-curvature="0"
         id="path688"
         style="fill:#58a587;fill-opacity:1;fill-rule:nonzero;stroke:none;stroke-width:6.7717762"
         d="m 9058.4817,-3065.0214 c -29.9,39.82 -62.5,77.59 -95.9,114.44 -10.5,11.53 -40.3,8.26 -24.8,-9.51 30.2,-34.81 58.8,-70.81 86.2,-107.88 13.6,-18.35 26.8,-36.97 39.5,-55.93 12.2,-18.2 22.7,-38.07 37.2,-54.48 5.9,-6.64 39,-14.56 31.5,3.2 -16.7,39.2 -48.2,76.17 -73.7,110.16" />
      <path
         inkscape:connector-curvature="0"
         id="path690"
         style="fill:#58a587;fill-opacity:1;fill-rule:nonzero;stroke:none;stroke-width:6.7717762"
         d="m 9103.9817,-3049.7914 c -20.8,30.79 -41.6,61.53 -62.4,92.34 -7.6,11.17 -42,14.69 -30.2,-3.42 19.2,-29.64 38.5,-59.26 57.7,-88.86 18.9,-28.86 36.2,-60.16 57.7,-87.07 8.5,-10.57 44.2,-18.4 32.5,3.66 -15.4,29.11 -36.9,56.07 -55.3,83.35" />
      <path
         inkscape:connector-curvature="0"
         id="path692"
         style="fill:#58a587;fill-opacity:1;fill-rule:nonzero;stroke:none;stroke-width:6.7717762"
         d="m 9144.0817,-3036.1014 c -18.3,24.23 -37.7,47.65 -57.8,70.44 -5.3,5.97 -16.4,14.47 -25.1,11.04 -8.1,-3.23 -8.2,-11.13 -2.8,-17.53 18.5,-22.03 36.2,-44.59 53.3,-67.74 16.5,-22.51 30.9,-47.1 48.6,-68.67 8.1,-9.87 40,-15.03 29.9,5.39 -11.8,23.93 -30,45.84 -46.1,67.07" />
      <path
         inkscape:connector-curvature="0"
         id="path694"
         style="fill:#58a587;fill-opacity:1;fill-rule:nonzero;stroke:none;stroke-width:6.7717762"
         d="m 9155.2817,-2945.8214 c -9,14.54 -41.5,17.06 -28.2,-5.26 22.7,-38.02 44,-77.01 67.9,-114.3 8,-12.62 44.3,-16.23 32.3,4.36 -22.6,39.15 -48.1,76.8 -72,115.2" />
      <path
         inkscape:connector-curvature="0"
         id="path696"
         style="fill:#58a587;fill-opacity:1;fill-rule:nonzero;stroke:none;stroke-width:6.7717762"
         d="m 9212.3817,-2975.7314 c -5.1,6.78 -16.5,13.36 -25.2,10.77 -9.2,-2.73 -6.9,-11.5 -2.6,-17.56 14.4,-20.51 28,-41.89 43.7,-61.42 5.9,-7.28 15.4,-13.42 25.2,-12.19 8.3,1.04 12.2,7.82 7.3,15.13 -14.9,22.52 -32.1,43.72 -48.4,65.27" />
      <path
         inkscape:connector-curvature="0"
         id="path698"
         style="fill:#58a587;fill-opacity:1;fill-rule:nonzero;stroke:none;stroke-width:6.7717762"
         d="m 9281.2817,-2984.4914 c -8.8,9.92 -17.6,19.82 -26.4,29.72 -5.9,6.6 -16.1,13.03 -25.4,10.49 -8.8,-2.43 -7.1,-12.01 -2.4,-17.58 9,-10.52 18,-21.02 26.9,-31.52 5.7,-6.58 17.4,-11.77 26,-8.81 8.9,3.09 6.1,12.3 1.3,17.7" />
      <path
         inkscape:connector-curvature="0"
         id="path700"
         style="fill:#58a587;fill-opacity:1;fill-rule:nonzero;stroke:none;stroke-width:6.7717762"
         d="m 8684.0917,-2877.0414 c -8.49,13.99 -39.59,21.71 -28.55,-2.49 17.15,-37.57 40.11,-75.9 64.92,-108.91 7.42,-9.86 41.51,-16.24 30.22,3.42 -20.98,36.49 -44.75,71.96 -66.59,107.98" />
      <path
         inkscape:connector-curvature="0"
         id="path702"
         style="fill:#58a587;fill-opacity:1;fill-rule:nonzero;stroke:none;stroke-width:6.7717762"
         d="m 8709.9517,-2668.4314 c -1.87,9.08 -9.59,17.55 -18.63,20.14 -6.19,1.77 -17.43,1.26 -15.65,-8.36 6.23,-33.73 14.41,-67.79 24.89,-101.16 -11.44,5.88 -25.91,5.66 -20.78,-9.53 19.81,-58.57 43.52,-117.06 75.06,-170.36 6.29,-10.62 42.87,-15.9 34.27,0.93 -7.38,14.43 -14.74,28.83 -21.96,43.26 12.39,-4.79 29.5,-4.74 23.53,7.63 -34.31,71.1 -64.65,139.56 -80.73,217.45" />
      <path
         inkscape:connector-curvature="0"
         id="path704"
         style="fill:#58a587;fill-opacity:1;fill-rule:nonzero;stroke:none;stroke-width:6.7717762"
         d="m 8776.3917,-2746.5414 c -16.55,40.03 -31.51,80.68 -45.35,121.73 -4.79,14.23 -39.53,26.68 -32.4,4.16 12.81,-40.42 26.74,-80.48 41.97,-120.05 14.58,-37.87 28.34,-78.85 49.51,-113.6 5.29,-8.69 40.76,-22.48 34.16,-2.8 -12.64,37.7 -32.67,73.74 -47.89,110.56" />
      <path
         inkscape:connector-curvature="0"
         id="path706"
         style="fill:#58a587;fill-opacity:1;fill-rule:nonzero;stroke:none;stroke-width:6.7717762"
         d="m 8769.2917,-2596.9414 c -4.57,12.03 -40.23,21.34 -34.06,3.92 10.67,-30.07 21.36,-60.14 32.08,-90.2 10.79,-30.25 19.57,-62.81 34.12,-91.43 5.31,-10.43 39.65,-20.34 34.25,-0.93 -16.64,60.61 -44.09,119.86 -66.39,178.64" />
      <path
         inkscape:connector-curvature="0"
         id="path708"
         style="fill:#58a587;fill-opacity:1;fill-rule:nonzero;stroke:none;stroke-width:6.7717762"
         d="m 8812.5717,-2550.8814 c -3.6,8.19 -12.27,17.06 -21.8,17.59 -8.36,0.47 -13.57,-4.54 -10.56,-13.08 16.16,-45.81 30.36,-95.72 53.27,-138.51 5,-9.32 39.5,-23.54 34.1,-3.56 -12.5,46.82 -35.5,93.22 -55.01,137.56" />
      <path
         inkscape:connector-curvature="0"
         id="path710"
         style="fill:#58a587;fill-opacity:1;fill-rule:nonzero;stroke:none;stroke-width:6.7717762"
         d="m 8862.0817,-2531.5114 c -2.7,7.91 -13.3,14.21 -21.1,15.29 -5.8,0.81 -15.3,-1.64 -12.8,-9.88 6.9,-22.56 13.1,-45.57 21.3,-67.71 3.3,-8.87 12.4,-15.44 21.6,-16.84 7,-1.04 16.8,1.71 14.1,10.8 -6.7,23.07 -15.4,45.61 -23.1,68.34" />
      <path
         inkscape:connector-curvature="0"
         id="path712"
         style="fill:#58a587;fill-opacity:1;fill-rule:nonzero;stroke:none;stroke-width:6.7717762"
         d="m 8894.8817,-2511.2814 c -4.7,8.4 -14.5,13.45 -23.9,13.45 -9.7,0 -7.5,-11.85 -4.5,-17.17 4.8,-8.39 14.6,-13.44 23.9,-13.44 9.8,0 7.5,11.84 4.5,17.16" />
      <path
         inkscape:connector-curvature="0"
         id="path714"
         style="fill:#58a587;fill-opacity:1;fill-rule:nonzero;stroke:none;stroke-width:6.7717762"
         d="m 7773.0117,-2914.0914 c 36.08,-16.69 72.17,-33.35 108.22,-50.09 20.04,-9.31 24.74,14.55 6.93,22.9 -36.87,17.29 -73.71,34.65 -110.56,51.99 -23.8,11.22 -23.16,-16.21 -4.59,-24.8" />
      <path
         inkscape:connector-curvature="0"
         id="path716"
         style="fill:#58a587;fill-opacity:1;fill-rule:nonzero;stroke:none;stroke-width:6.7717762"
         d="m 7756.4217,-2960.5314 c 56.72,-16.08 113.5,-31.84 170.33,-47.51 7.08,-1.95 17.64,-0.19 18.21,8.56 0.58,8.96 -13,15.03 -19.65,16.62 -59.01,14.17 -117.24,32.51 -175.25,50.27 -7.96,2.43 -15.16,-1.84 -14.55,-10.17 0.69,-9.27 13.46,-15.65 20.91,-17.77" />
      <path
         inkscape:connector-curvature="0"
         id="path718"
         style="fill:#58a587;fill-opacity:1;fill-rule:nonzero;stroke:none;stroke-width:6.7717762"
         d="m 7970.2217,-3063.9614 c 25.8,-4.54 18.82,22.72 -1.71,25.16 -73.71,8.77 -146.79,26.48 -218.1,46.7 -8.02,2.27 -15.11,-2.18 -14.32,-10.49 0.89,-9.3 13.8,-15.29 21.29,-17.3 70.36,-18.9 141.2,-31.46 212.84,-44.07" />
      <path
         inkscape:connector-curvature="0"
         id="path720"
         style="fill:#58a587;fill-opacity:1;fill-rule:nonzero;stroke:none;stroke-width:6.7717762"
         d="m 7769.7817,-3082.8814 c 89.89,-25.91 180.99,-46.89 273.02,-63.65 7.24,-1.32 17.56,1.84 17.17,10.49 -0.4,9.26 -14.57,13.14 -21.34,14.39 -90.11,16.56 -179.11,38.04 -266.99,63.92 -25.14,7.41 -21.66,-19.45 -1.86,-25.15" />
      <path
         inkscape:connector-curvature="0"
         id="path722"
         style="fill:#58a587;fill-opacity:1;fill-rule:nonzero;stroke:none;stroke-width:6.7717762"
         d="m 7794.8817,-3115.6314 c -24.42,9.78 -20.81,-17.85 -1.86,-25.16 50.8,-19.61 102.63,-36.51 155.42,-49.91 49.81,-12.65 102.23,-17.64 150.85,-34.15 6.8,-2.31 20.77,-5.72 25.65,2.19 4.85,7.87 -3.33,14.52 -9.91,17.52 -44.12,20.14 -97.7,22.24 -144.61,33.5 -59.82,14.36 -118.43,33.14 -175.54,56.01" />
      <path
         inkscape:connector-curvature="0"
         id="path724"
         style="fill:#58a587;fill-opacity:1;fill-rule:nonzero;stroke:none;stroke-width:6.7717762"
         d="m 7956.9817,-3254.5814 c 33.32,-9.81 66.85,-18.93 100.55,-27.32 31.64,-7.88 74.48,-10.26 102.19,-28.1 7.53,-4.84 19.71,-7.35 27.9,-2.52 6.73,3.97 9.33,11.77 1.52,16.74 -28.26,17.99 -62.14,21.93 -94.21,29.5 -34.91,8.24 -69.64,17.25 -104.16,27.02 -75.45,21.38 -149.83,46.22 -222.94,74.57 -22.45,8.71 -31.29,-13.37 -8.68,-22.13 65.01,-25.2 130.95,-48.07 197.83,-67.76" />
      <path
         inkscape:connector-curvature="0"
         id="path726"
         style="fill:#58a587;fill-opacity:1;fill-rule:nonzero;stroke:none;stroke-width:6.7717762"
         d="m 8192.8417,-3350.7214 c 15.73,-6.57 44.66,9.91 20.71,19.8 -142.22,58.75 -300.38,41.8 -445.75,87.8 -25.02,7.92 -21.57,-19.23 -1.86,-25.16 139.48,-41.94 291.33,-25.76 426.9,-82.44" />
      <path
         inkscape:connector-curvature="0"
         id="path728"
         style="fill:#58a587;fill-opacity:1;fill-rule:nonzero;stroke:none;stroke-width:6.7717762"
         d="m 8227.3817,-3397.6714 c 6.97,-1.62 21.34,-3.1 25.2,5.25 3.82,8.29 -4.98,14.17 -11.94,16.21 -76.71,22.45 -156.62,31.9 -235.98,38.74 -74.52,6.42 -151.01,11.85 -219.07,45.78 -21.34,10.64 -33.55,-9.76 -11.72,-20.69 66.62,-33.33 139.67,-42.14 213.04,-47.83 81.96,-6.36 160.41,-18.83 240.47,-37.46" />
      <path
         inkscape:connector-curvature="0"
         id="path730"
         style="fill:#58a587;fill-opacity:1;fill-rule:nonzero;stroke:none;stroke-width:6.7717762"
         d="m 8253.6017,-3409.9614 c -125.04,50.96 -265.92,11 -394.37,45.8 -25.38,6.87 -20.31,-19.99 -0.49,-25.22 123.93,-32.72 254.66,0.6 377.05,-40.27 14.3,-4.77 39.97,10.66 17.81,19.69" />
      <path
         inkscape:connector-curvature="0"
         id="path732"
         style="fill:#58a587;fill-opacity:1;fill-rule:nonzero;stroke:none;stroke-width:6.7717762"
         d="m 8281.0317,-3494.4514 c 5.18,6.84 1.31,13.93 -6.71,16.43 -127.83,39.9 -267.69,22.75 -392.16,75.34 -6.78,2.86 -17.51,2.24 -19.11,-6.32 -1.69,-8.99 11.17,-16.26 17.52,-18.86 119.15,-48.76 251.12,-33.78 373.26,-70.19 7.65,-2.28 21.51,-3.91 27.2,3.6" />
      <path
         inkscape:connector-curvature="0"
         id="path734"
         style="fill:#58a587;fill-opacity:1;fill-rule:nonzero;stroke:none;stroke-width:6.7717762"
         d="m 8318.4717,-3518.3714 c -132.2,21.04 -287.39,-16.51 -404.41,64.24 -16.67,11.5 -40.97,-1.12 -19.28,-16.27 123.03,-85.92 274.81,-48.41 413.6,-71.08 20.09,-3.29 36.16,18.97 10.09,23.11" />
      <path
         inkscape:connector-curvature="0"
         id="path736"
         style="fill:#58a587;fill-opacity:1;fill-rule:nonzero;stroke:none;stroke-width:6.7717762"
         d="m 8333.5917,-3602.3314 c -36.74,4.39 -73.37,10.6 -109.78,17.56 37.91,-2.19 75.65,-1.73 113.9,-1.78 8.04,-0.02 18.83,3.35 15.62,13.35 -3.07,9.56 -18.54,11.66 -26.55,10.84 -94.26,-9.65 -196.52,8.95 -286.72,35.19 -25.25,7.34 -20.48,-19.65 -0.77,-25.21 44.24,-12.48 89.23,-21.88 134.81,-27.73 -1.81,-1.95 -2.77,-4.7 -2.28,-8.21 1.26,-9.03 14.46,-14.97 22.03,-16.36 47.19,-8.66 94.62,-15.27 142,-22.77 25.88,-4.1 18.23,22.68 -2.26,25.12" />
      <path
         inkscape:connector-curvature="0"
         id="path738"
         style="fill:#1f1e21;fill-opacity:1;fill-rule:nonzero;stroke:none;stroke-width:6.7717762"
         d="m 9296.7817,-2910.3514 c -95,-8.94 -190.1,-17.64 -285,-26.83 -50.7,-4.9 -101.1,-11.5 -150.1,-25.54 -28.4,-8.13 -56.06,-18.33 -83.47,-29.2 93.47,173.13 203.27,333.93 342.27,464.26 57.9,54.33 120.3,102.21 186.6,142.7 10.7,6.5 -0.3,17.7 -12,21.8 5,1.1 10.1,2.2 15.1,3.3 22.8,-183.47 54.2,-372.88 -13.4,-550.49 z m -162.1,-210.51 c -66.9,-45.72 -144.8,-73.13 -222.9,-92.67 -85.7,-21.42 -175.13,-40.22 -263.8,-46.6 33.2,74.98 68.18,149.34 105.73,221.89 41.63,20.76 84.37,39.73 128.87,53.21 49.1,14.83 100,20.5 150.9,25.49 84.2,8.25 168.5,16.24 252.9,24.23 -33,-74.68 -83.9,-139.26 -151.7,-185.55 z m -520.4,385.65 c 20.87,35.33 45.53,67.43 72.97,96.74 -54.28,-148.46 -49.9,-315.03 -15.34,-468.54 0.45,-1.99 1.65,-4.04 3.27,-6.03 -20.97,-43.83 -41.19,-88.14 -60.68,-132.87 -34.91,84.84 -62.55,175.05 -64.38,267.14 -1.7,86.24 20.32,169.34 64.16,243.56 z m 301.8,257.65 c -82,-101.49 -98.29,-237.28 -108.7,-366.18 -0.35,-4.31 2.3,-8.68 6.25,-12.38 -31.26,-50.84 -60.66,-103.1 -88.32,-156.18 l -0.77,-1.5 -2.08,-0.86 c -6.68,-2.77 -7.27,-7.59 -4.65,-12.39 -6.16,-11.99 -12.3,-24 -18.32,-36.08 -21.67,164.25 -27.58,339.85 58.01,487.19 0.53,0.92 0.89,1.83 1.11,2.73 48.19,37.89 101.57,69.47 157.47,95.65 z m 356.4,109.4 c -170,-104.25 -308.6,-257.65 -423.3,-431.95 13.7,126.12 38.6,260.71 138.5,346.16 3.2,2.7 4.2,5.47 3.8,8.13 9.5,3.55 19,6.99 28.5,10.27 82.5,28.39 167.4,48.69 252.5,67.39 z m -1026.53,-1253.13 c -1.66,0.41 -3.45,0.72 -5.47,0.84 -3.02,0.5 -6.05,0.9 -9.08,1.4 -2.72,0.46 -5.26,0.35 -7.6,-0.09 -118.45,12.11 -224.39,96.84 -302.55,180.39 -51.67,55.22 -97.11,117.61 -121.39,189.92 -22.76,67.75 -26.98,139.9 -29.11,210.81 -2.28,75.94 -3.86,151.89 -5.65,227.85 86.31,-80.96 142.37,-184.89 218.31,-274.88 45.11,-53.46 91.34,-102.14 126.05,-163.54 34.22,-60.53 67.07,-121.71 102.85,-181.36 41.3,-68.85 84.96,-136.22 130.39,-202.41 l 1.47,-1.69 c -32.84,3.38 -65.57,7.57 -98.22,12.76 z m -241.47,752.31 c 77.75,-24.05 162.84,-43.71 227.18,-96.46 64.11,-52.56 105.48,-134.2 134.74,-210.27 30.26,-78.61 41.58,-159.3 32.32,-243.03 -4.65,-42.06 -12.37,-83.73 -16.67,-125.84 -3.25,-31.78 -2.22,-62.06 -0.07,-93 -2.03,0.16 -4.05,0.38 -6.08,0.55 4.39,2.45 6.18,6.46 2.3,12 -82.96,118.3 -156.29,241.82 -226.62,367.91 -33.63,60.3 -75.22,110.32 -120.87,161.72 -42.59,47.96 -78.48,100.87 -115.77,152.91 -35.97,50.2 -73.89,98.41 -119.99,139.21 69.71,-22.36 139.61,-44.08 209.53,-65.7 z m 1343.2,511.42 c -0.8,4.1 -4.3,7.6 -8.9,10.3 4,8 -2.8,17.3 -18.6,13.8 -190.8,-41.3 -390.2,-83.73 -553.75,-196.26 -12.01,-8.25 -23.79,-16.92 -35.33,-25.93 -4.14,-0.53 -7.62,-2.2 -9.33,-5.36 -0.61,-1.14 -1.12,-2.32 -1.73,-3.46 -114.67,-93.24 -201.35,-223.22 -208.77,-374.47 -5.68,-115.86 30.62,-225.33 81.94,-327.49 -79.18,-140.54 -125.4,-297.63 -148.35,-457.96 -6.58,22.62 -15.1,44.73 -24.81,66.45 0.29,1.47 0.36,2.96 -0.05,4.46 -20.9,76.69 0.35,158.86 10.06,235.74 10.39,82.28 3.81,162.29 -23.14,240.99 -26.87,78.45 -67.85,163.14 -127.92,221.62 -56.68,55.18 -133.02,79.26 -207.06,101.35 -105.06,31.35 -210.41,62.19 -316.25,90.8 -14.51,3.92 -39.11,-10.45 -24.21,-19.24 -1.89,-2.64 -3.03,-5.46 -2.97,-8.27 1.6,-81.02 3.07,-162.04 4.88,-243.05 1.61,-72.58 4.84,-146.03 25.45,-216.12 21.56,-73.35 64.89,-137.53 115.38,-194.12 44.49,-49.87 94.46,-95.17 150.8,-131.33 64.63,-41.46 133.49,-63.97 209.79,-68.73 48.64,-9.54 98.12,-16.05 147.48,-20.53 0.9,-2.16 1.77,-4.32 2.63,-6.48 l 0.28,-0.76 c 42.34,-107.3 31.98,-218.68 32.18,-333.56 0.06,-40.97 -19.06,-101.11 -13.03,-141.68 1.81,-12.18 62.48,-7.74 62.87,9.38 1.7,73.46 -2.54,146.9 0.12,220.44 2.51,69.32 8.07,138.57 18.32,207.2 19.23,128.82 54.13,255.87 110.06,373.76 7.72,16.27 16.04,32.23 24.62,48.05 88.27,4.74 177.05,22.94 262.84,42.88 86.1,20.02 171.9,46.97 248.3,92.32 73,43.3 133.5,103.46 174.1,178.25 7.6,14.04 14.3,28.48 20.6,43.09 2.4,0.23 4.8,0.46 7.1,0.68 22.3,2.11 22.3,22.63 2.9,23.76 22.8,60.63 35.4,124.98 40,189.63 8.4,119.47 -6.9,242.45 -28.5,359.85" />
    </g>
  </g>
</svg>
