<?xml version="1.0" encoding="UTF-8" standalone="no"?>
<!-- Created with Inkscape (http://www.inkscape.org/) -->

<svg
   xmlns:dc="http://purl.org/dc/elements/1.1/"
   xmlns:cc="http://creativecommons.org/ns#"
   xmlns:rdf="http://www.w3.org/1999/02/22-rdf-syntax-ns#"
   xmlns:svg="http://www.w3.org/2000/svg"
   xmlns="http://www.w3.org/2000/svg"
   xmlns:sodipodi="http://sodipodi.sourceforge.net/DTD/sodipodi-0.dtd"
   xmlns:inkscape="http://www.inkscape.org/namespaces/inkscape"
   width="60"
   height="60"
   viewBox="0 0 15.875 15.875"
   version="1.1"
   id="svg2360"
   inkscape:version="0.92.3 (2405546, 2018-03-11)"
   sodipodi:docname="investment.svg">
  <defs
     id="defs2354" />
  <sodipodi:namedview
     id="base"
     pagecolor="#ffffff"
     bordercolor="#666666"
     borderopacity="1.0"
     inkscape:pageopacity="0.0"
     inkscape:pageshadow="2"
     inkscape:zoom="5.8821281"
     inkscape:cx="49.471451"
     inkscape:cy="42.790495"
     inkscape:document-units="px"
     inkscape:current-layer="layer1"
     showgrid="false"
     units="px"
     fit-margin-top="0"
     fit-margin-left="0"
     fit-margin-right="0"
     fit-margin-bottom="0"
     inkscape:window-width="1890"
     inkscape:window-height="1052"
     inkscape:window-x="30"
     inkscape:window-y="0"
     inkscape:window-maximized="1" />
  <metadata
     id="metadata2357">
    <rdf:RDF>
      <cc:Work
         rdf:about="">
        <dc:format>image/svg+xml</dc:format>
        <dc:type
           rdf:resource="http://purl.org/dc/dcmitype/StillImage" />
        <dc:title></dc:title>
      </cc:Work>
    </rdf:RDF>
  </metadata>
  <g
     inkscape:label="Layer 1"
     inkscape:groupmode="layer"
     id="layer1"
     transform="translate(-71.453357,-114.74225)">
    <g
       id="g2942"
       transform="matrix(0.1682174,0,0,0.1682174,131.27391,116.84521)"
       style="stroke-width:5.94468832">
      <path
         inkscape:connector-curvature="0"
         id="path400"
         style="fill:#f78da7;fill-opacity:1;fill-rule:nonzero;stroke:none;stroke-width:0.20971541"
         d="m -348.88841,45.026627 c -0.71134,-0.898877 -1.40257,-1.813277 -2.07878,-2.738967 -0.18644,-0.255762 -0.54529,-0.500237 -0.88014,-0.449437 -0.27326,0.04163 -0.45833,0.262467 -0.26942,0.52846 1.35312,1.903942 2.72768,3.955344 4.37886,5.614107 0.29545,0.296685 1.51239,0.43462 1.04648,-0.235657 -0.66062,-0.950735 -1.47783,-1.809398 -2.197,-2.718506" />
      <path
         inkscape:connector-curvature="0"
         id="path402"
         style="fill:#f78da7;fill-opacity:1;fill-rule:nonzero;stroke:none;stroke-width:0.20971541"
         d="m -347.06554,40.181931 c -0.11796,-0.183446 -0.23357,-0.368654 -0.35112,-0.55245 0.42016,0.636059 0.84004,1.272469 1.26157,1.907469 0.16055,0.242358 0.31807,0.494241 0.47587,0.7493 -0.46786,-0.697794 -0.93158,-1.398059 -1.38632,-2.104319 z m 2.4274,1.523294 c -0.65056,-0.957085 -1.30196,-1.913819 -1.95598,-2.868435 -1.40892,-2.056694 -2.82455,-4.107744 -4.24159,-6.158794 -0.34258,-0.496006 -1.4799,-0.544338 -0.98463,0.228952 0.10749,0.167923 0.21635,0.334785 0.32441,0.502356 -0.44069,-0.175683 -0.97346,-0.144288 -0.69882,0.371475 1.18276,2.223911 2.45057,4.393494 3.7954,6.523212 0.48478,0.767644 0.97952,1.52894 1.47934,2.286707 -0.5037,-0.637117 -1.00129,-1.278821 -1.48015,-1.933223 -1.54521,-2.112434 -3.02825,-4.269317 -4.45368,-6.4643 -0.17269,-0.265994 -0.50934,-0.535162 -0.84903,-0.505884 -0.27284,0.02328 -0.47763,0.232482 -0.30357,0.509059 1.47987,2.3495 3.02659,4.655608 4.64591,6.910916 1.54079,2.1463 3.08956,4.372327 4.86184,6.335536 0.27217,0.301273 1.59096,0.355248 1.19228,-0.203552 -0.16771,-0.234598 -0.33898,-0.466373 -0.5111,-0.697794 0.39906,0.08114 0.90466,0.01482 0.70623,-0.421923 -0.23714,-0.52211 -0.56583,-1.017058 -0.91571,-1.499658 0.26458,0.252235 1.51063,0.523875 1.19062,-0.148167 -0.46753,-0.981075 -1.19171,-1.869017 -1.80177,-2.766483" />
      <path
         inkscape:connector-curvature="0"
         id="path404"
         style="fill:#f78da7;fill-opacity:1;fill-rule:nonzero;stroke:none;stroke-width:0.20971541"
         d="m -347.61537,36.394508 c 0.91362,1.498248 1.62154,3.137255 2.5601,4.611865 0.24211,0.380645 1.57001,0.678743 1.27826,-0.03704 -0.65278,-1.600554 -1.6353,-3.123495 -2.55969,-4.578704 -1.02926,-1.620663 -2.1397,-3.177116 -3.32232,-4.689123 -0.37137,-0.47484 -1.52618,-0.447323 -0.9707,0.282223 1.07777,1.41605 2.0876,2.891367 3.01435,4.410779" />
      <path
         inkscape:connector-curvature="0"
         id="path406"
         style="fill:#f78da7;fill-opacity:1;fill-rule:nonzero;stroke:none;stroke-width:0.20971541"
         d="m -347.12261,44.651977 c -0.64008,-0.857954 -1.27152,-1.722261 -1.89424,-2.592917 -1.24587,-1.742017 -2.45442,-3.509785 -3.6303,-5.299779 -0.1735,-0.264231 -0.52433,-0.523523 -0.85975,-0.487185 -0.27602,0.02963 -0.46772,0.241652 -0.29228,0.51576 1.1508,1.797402 2.33521,3.573285 3.5578,5.323062 1.21475,1.738842 2.39571,3.677709 3.86376,5.212292 0.31196,0.325967 1.4472,0.421571 1.03819,-0.270227 -0.50147,-0.848431 -1.19352,-1.610783 -1.78318,-2.401006" />
      <path
         inkscape:connector-curvature="0"
         id="path408"
         style="fill:#f78da7;fill-opacity:1;fill-rule:nonzero;stroke:none;stroke-width:0.20971541"
         d="m -302.57377,43.60211 c -0.3429,-1.303512 -0.75388,-2.587977 -1.2326,-3.848452 -0.3609,-0.949677 -0.74825,-1.946627 -1.21885,-2.878667 0.34995,0.2413 0.67698,0.510472 0.97508,0.812449 0.50235,1.572331 0.91334,3.160535 1.27494,4.774141 0.0342,0.151342 0.22648,0.107596 0.38206,-0.0019 -0.0296,0.384527 -0.0896,0.76694 -0.18063,1.142294 z m -0.47131,1.344438 c -0.0441,-0.08643 -0.0808,-0.184857 -0.11254,-0.287515 0.0275,0.08713 0.10196,0.116065 0.19368,0.107244 -0.0261,0.06068 -0.0533,0.12065 -0.0811,0.180271 z m -0.28257,-0.891823 c -0.16158,-0.456848 -0.32597,-0.912635 -0.49354,-1.367367 -0.32032,-0.868185 -0.65158,-1.73214 -0.99448,-2.591506 -0.54681,-1.371598 -1.1303,-2.734731 -1.76107,-4.071761 0.17675,0.07761 0.35102,0.159457 0.52247,0.245888 0.50659,1.335969 1.12536,2.6289 1.60443,3.979686 0.50694,1.429453 0.92428,2.887133 1.27847,4.361391 -0.0582,-0.197556 -0.10231,-0.403931 -0.15628,-0.556331 z m -0.18451,1.737431 c -0.34537,-0.81915 -0.74683,-1.616781 -1.10737,-2.428875 -0.46707,-1.051631 -0.83361,-2.124075 -1.19097,-3.215923 -0.29598,-0.905227 -0.63359,-1.789642 -1.04599,-2.648654 -0.22084,-0.460375 -0.46038,-0.911931 -0.69674,-1.364546 -0.0953,-0.182737 -0.18732,-0.38876 -0.28786,-0.592312 0.23777,0.07902 0.47378,0.162983 0.70696,0.252942 0.68228,1.685218 1.36843,3.367262 2.00801,5.069768 0.34185,0.90946 0.67064,1.823509 0.98743,2.741787 0.14393,0.41769 0.2854,0.836084 0.42404,1.255184 0.0716,0.217313 0.10407,0.557741 0.31891,0.686506 l 0.03,0.0085 c -0.0473,0.07973 -0.0963,0.158043 -0.14641,0.235656 z m -1.28693,1.433687 c -0.92886,-1.47955 -1.62772,-3.128785 -2.39642,-4.696177 0.0272,-0.167568 0.0455,-0.339725 0.0497,-0.5207 l -0.004,-0.04692 0.005,-0.05116 c -0.003,-0.08219 -0.0113,-0.161925 -0.0222,-0.239535 0.0632,-0.05821 0.10442,-0.12841 0.0836,-0.180268 -0.27128,-0.668515 -0.57114,-1.310924 -0.82197,-1.980849 0.22472,0.480484 0.44979,0.960261 0.67628,1.439686 0.46496,0.984956 0.93027,1.969913 1.39523,2.954866 0.45297,0.95885 0.83573,2.084565 1.44674,2.956984 -0.13405,0.127 -0.27093,0.249063 -0.41134,0.364066 z m -1.09784,0.753888 c 0.0169,-0.05115 0.0169,-0.101954 -0.007,-0.146756 -0.35525,-0.65899 -0.71967,-1.311627 -1.05622,-1.980494 -0.28011,-0.555979 -0.51153,-1.283054 -0.9144,-1.779413 0.22084,-0.274108 0.39758,-0.582083 0.52141,-0.924277 0.61136,1.50495 1.19027,3.088569 2.03376,4.467932 -0.18803,0.129468 -0.3803,0.250118 -0.57715,0.363008 z m -1.03999,0.509762 c -0.32809,-0.840316 -0.75601,-1.639358 -1.07809,-2.484966 -0.14676,-0.385586 -0.28152,-0.775759 -0.42404,-1.162754 -0.0226,-0.06103 -0.0381,-0.117475 -0.0557,-0.167923 0.0762,-0.05786 0.14958,-0.118534 0.22013,-0.181682 0.13618,0.572207 0.46391,1.145472 0.70873,1.65735 0.3422,0.715434 0.69745,1.428047 1.0922,2.115963 l 0.0102,0.01199 c -0.15592,0.07479 -0.31362,0.145698 -0.47342,0.212018 z m -1.04987,0.370065 c -0.21378,-0.642408 -0.4572,-1.275998 -0.68898,-1.912056 -0.20955,-0.575379 -0.37782,-1.199444 -0.69814,-1.723671 l -0.0243,-0.02082 c 0.17568,-0.07761 0.34325,-0.164042 0.50271,-0.258586 0.0871,0.229659 0.12453,0.537634 0.18838,0.740479 0.12453,0.395465 0.26635,0.78599 0.41487,1.17334 0.2353,0.615243 0.47448,1.264356 0.80257,1.840793 -0.1644,0.0568 -0.3295,0.111125 -0.49707,0.160515 z m -0.80751,0.208844 c -0.4004,-1.227667 -0.83185,-2.441221 -1.29646,-3.640312 0.0557,0 0.10866,-0.0067 0.14499,-0.01834 0.0977,-0.03104 0.19333,-0.06456 0.28752,-0.09983 -0.0374,0.0448 -0.0628,0.09419 -0.0579,0.138641 l -0.004,7.94e-4 c 0.16827,1.175808 0.70379,2.440162 1.13206,3.570462 -0.0684,0.01659 -0.13687,0.03316 -0.20602,0.04868 z m -0.84067,0.201438 c -0.56162,-1.2954 -0.89676,-2.678997 -1.38147,-4.008967 -0.50554,-1.386417 -1.12113,-2.7305 -1.95369,-3.952171 -0.0268,-0.03951 -0.0716,-0.0508 -0.12276,-0.04339 0,-0.536927 0,-1.073502 0,-1.610429 1.37371,3.115027 2.61337,6.300259 3.64419,9.54546 -0.0642,0.01164 -0.12665,0.03634 -0.18627,0.0695 z m -0.37182,1.160637 c -0.86819,-2.449336 -1.77589,-4.944886 -3.01132,-7.219596 -0.0152,-0.02787 -0.0423,-0.0381 -0.0748,-0.03669 0,-0.33161 0,-0.663575 0,-0.995539 0.67522,1.230841 1.21356,2.524831 1.67323,3.853391 0.23988,0.693563 0.45931,1.393825 0.67451,2.0955 0.18697,0.6096 0.32843,1.338088 0.73836,1.847498 0,0.152049 0,0.303742 0,0.455436 z m 0,2.895954 c -0.0956,0 -0.19121,0 -0.28681,0 -0.42157,-1.420283 -0.88865,-2.826456 -1.39171,-4.219929 -0.25647,-0.710846 -0.51964,-1.419225 -0.80363,-2.119487 -0.21378,-0.527405 -0.39546,-1.12748 -0.6865,-1.633363 0.0515,-0.08608 0.0825,-0.182386 0.0825,-0.285396 0,-0.284691 0,-0.569738 0,-0.854781 0.89958,2.502958 1.97026,4.949118 2.85608,7.458427 l 0.0402,0.05786 c 0.0395,0.156282 0.079,0.31256 0.11854,0.468842 0.0215,0.08467 0.0402,0.176741 0.0713,0.256116 0,0.29069 0,0.581377 0,0.871715 z m -1.51801,0 c -0.99024,-2.549879 -1.88559,-5.143148 -2.91994,-7.675388 0.084,0.01164 0.16757,0.02294 0.25153,0.03316 0.81703,2.579159 1.71274,5.189712 2.87796,7.642225 -0.0699,0 -0.14005,0 -0.20955,0 z m -1.12501,0 c -0.20496,-0.5588 -0.53057,-1.105254 -0.84702,-1.63195 0,-0.500591 0,-1.001183 0,-1.502129 0.36866,1.050573 0.75389,2.094796 1.14089,3.134079 -0.0981,0 -0.19615,0 -0.29387,0 z m -0.84702,0 c 0,-0.10795 0,-0.2159 0,-0.324204 0.0469,0.110421 0.0967,0.218371 0.14852,0.324204 -0.0494,0 -0.0991,0 -0.14852,0 z m -0.57185,-4.03719 c -0.19085,-0.739068 -0.57044,-1.470025 -0.83502,-2.178401 -0.19862,-0.53058 -0.35419,-1.118307 -0.5902,-1.648532 0.1838,0.04092 0.36901,0.07691 0.55527,0.110067 0.33161,1.260123 0.71967,2.50825 1.13983,3.7465 -0.09,-0.0095 -0.17992,-0.01939 -0.26988,-0.02963 z m -1.28164,-0.182739 c -0.34749,-1.293987 -0.72037,-2.614787 -1.13383,-3.902779 0.1651,0.04974 0.33091,0.09737 0.49848,0.140758 0.11183,0.773642 0.44238,1.553985 0.69109,2.284942 0.17145,0.503767 0.31785,1.060802 0.53058,1.570567 -0.19615,-0.02822 -0.39123,-0.05997 -0.58632,-0.09349 z m -1.11055,-0.225777 c -0.56373,-1.316919 -0.74365,-2.82434 -1.31797,-4.139494 0.2032,0.08431 0.40781,0.164746 0.61524,0.239184 0.254,1.331735 0.62266,2.695575 1.05446,3.978978 -0.11748,-0.02506 -0.2346,-0.05115 -0.35173,-0.07867 z m -1.18674,-0.32244 c -0.33443,-1.467554 -0.74753,-3.032125 -1.39594,-4.417483 0.13829,0.07479 0.27799,0.14605 0.41839,0.2159 0.55034,1.408641 0.84103,2.899481 1.35397,4.315179 -0.12595,-0.03598 -0.25118,-0.07479 -0.37642,-0.113596 z m -0.9592,-0.335137 c -0.29351,-0.849842 -0.5962,-1.696157 -0.89888,-2.542117 -0.22966,-0.640998 -0.43674,-1.312333 -0.72425,-1.936046 0.0374,-0.08184 0.0748,-0.163687 0.11183,-0.245533 0.12029,0.07902 0.2413,0.155929 0.36336,0.231071 0.28469,0.85725 0.64805,1.689452 0.91263,2.556579 0.20744,0.679098 0.39053,1.36525 0.5514,2.056341 -0.10584,-0.0381 -0.21096,-0.07973 -0.31609,-0.120295 z m -1.09256,-0.478367 c -0.11571,-0.447675 -0.31044,-0.88759 -0.45508,-1.322213 -0.15698,-0.470958 -0.31785,-0.9398 -0.51505,-1.395587 -0.0215,-0.04939 -0.0684,-0.05891 -0.12348,-0.0448 0.0677,-0.148871 0.13512,-0.297392 0.2032,-0.446262 0.29704,1.121833 0.7366,2.238375 1.14054,3.3274 -0.0836,-0.03916 -0.16722,-0.07761 -0.25013,-0.118534 z m -1.33385,-0.765175 c -0.061,-0.129116 -0.14746,-0.235304 -0.22613,-0.358775 -0.0579,-0.09137 -0.10583,-0.188383 -0.14887,-0.287163 0.0561,-0.12347 0.11218,-0.247295 0.16863,-0.370416 0.11606,0.378179 0.24095,0.757063 0.38206,1.128889 -0.0586,-0.03739 -0.11748,-0.07408 -0.17569,-0.112535 z m 2.5848,-20.221575 c 0.0198,-0.03563 0.0321,-0.07055 0.0321,-0.09948 -0.001,-0.223661 -0.11747,-0.451908 -0.17462,-0.668514 -0.03,-0.113594 -0.0437,-0.255058 -0.084,-0.378178 0.10019,-0.08079 0.20214,-0.159455 0.30656,-0.235655 0.23848,0.957086 0.50483,1.90888 0.7807,2.855736 0.26176,0.898525 0.44874,1.899354 0.86113,2.739319 0.0339,0.06844 0.1076,0.06808 0.18733,0.03281 0.037,0.600075 0.25259,1.181806 0.67451,1.641123 0.14958,0.141816 0.30515,0.26952 0.46602,0.38735 -0.0251,0.03845 -0.0378,0.07655 -0.0293,0.108302 0.29351,1.092551 0.73554,2.155118 1.12042,3.218391 0.0748,0.206023 0.14887,0.414867 0.22578,0.623359 -1.63125,-3.335515 -3.01872,-6.76275 -4.36669,-10.224559 z m 3.36163,11.016544 c -0.78353,-1.939925 -1.49543,-3.908425 -2.26272,-5.855404 -0.71791,-1.821746 -1.36172,-3.709107 -2.20486,-5.478287 0.14217,-0.156986 0.29104,-0.308328 0.44697,-0.453672 0.0152,0.09137 0.0374,0.18168 0.0582,0.269875 -0.0349,0.04586 -0.0536,0.0956 -0.0413,0.138289 1.17792,3.997324 2.86279,7.867649 4.73427,11.592982 -0.24306,-0.06808 -0.48718,-0.138993 -0.7306,-0.213783 z m -1.02694,-0.342194 c -1.28552,-3.312583 -2.64372,-6.654093 -4.3113,-9.796286 0.13688,-0.239889 0.28928,-0.469547 0.45438,-0.690033 0.5461,1.852436 1.31586,3.664654 2.01859,5.458178 0.67804,1.730726 1.42311,3.426176 2.14419,5.136798 -0.10266,-0.03493 -0.20426,-0.07162 -0.30586,-0.108657 z m -1.33033,-0.56656 -0.008,-0.03387 c -1.1236,-2.649363 -2.34526,-5.262033 -3.54118,-7.879998 0.0843,-0.277283 0.18768,-0.543983 0.30551,-0.801864 1.20402,2.984148 2.49766,5.930196 3.68229,8.922808 -0.14817,-0.06597 -0.29457,-0.135112 -0.43886,-0.207079 z m -1.02976,-0.597255 c -0.0342,-0.133701 -0.0769,-0.267051 -0.12664,-0.399695 0.0663,0.150283 0.13511,0.299508 0.20179,0.449437 z m -2.79929,-5.082116 c -0.003,-0.09313 -0.002,-0.183796 -0.002,-0.275167 0.33444,0.920398 0.67451,1.837973 1.02764,2.752021 0.21132,0.546452 0.42299,1.092904 0.64241,1.636536 l 0.012,0.03034 c -1.07138,-1.119716 -1.62242,-2.522714 -1.67957,-4.143729 z m 0.11783,-1.571271 c 0.46814,1.206146 0.94298,2.411942 1.4344,3.611034 l -0.002,-0.0042 c -0.45332,-1.075973 -0.91264,-2.148771 -1.37337,-3.221566 -0.0208,-0.04868 -0.0621,-0.06844 -0.11112,-0.06809 0.0152,-0.106892 0.0321,-0.213077 0.0519,-0.317146 z m 3.5433,-4.732514 c 0.37924,1.539522 0.93239,3.036711 1.31163,4.580466 l 0.0279,0.05786 c -0.0533,0.121708 -0.0981,0.246591 -0.13617,0.373237 -0.18697,-0.705202 -0.46391,-1.409347 -0.6791,-2.08668 -0.2861,-0.9017 -0.58102,-1.801636 -0.90241,-2.690989 0.12383,-0.08079 0.24977,-0.15875 0.37818,-0.233891 z m 1.05798,-0.536575 c 0.42616,1.280936 0.85443,2.562225 1.28835,3.839986 l 0.0169,0.03316 c -0.17251,0.136525 -0.33338,0.286808 -0.47943,0.451908 -0.35595,-1.373717 -0.74506,-2.803525 -1.3723,-4.06788 0.17885,-0.09066 0.36089,-0.176389 0.54645,-0.257175 z m 1.05198,-0.391584 c 0.18804,0.681567 0.46744,1.3462 0.71967,2.005542 0.19932,0.5207 0.35102,1.12783 0.63465,1.620661 -0.18521,0.07867 -0.36654,0.166864 -0.54081,0.265289 -0.38947,-1.251656 -0.85866,-2.49167 -1.39065,-3.691114 0.19015,-0.07197 0.38241,-0.139347 0.57714,-0.200378 z m 0.94263,-0.251177 c 0.63958,1.164166 1.03011,2.424994 1.40441,3.692524 -0.0956,-0.07338 -0.27764,-0.06844 -0.36619,-0.04127 l -0.019,0.006 c -0.12841,-0.667808 -0.49777,-1.343025 -0.75177,-1.965677 -0.2159,-0.530931 -0.4198,-1.078089 -0.67698,-1.592439 0.13582,-0.03563 0.27199,-0.06879 0.40958,-0.09913 z m 0.50165,-0.1016 c 0.14252,-0.0254 0.28116,-0.11042 0.38523,-0.225073 0.62195,1.373364 1.2894,2.727325 1.83021,4.135967 0.48542,1.262944 0.73413,2.675467 1.4471,3.837868 l 0.0212,0.02434 c 0,0.343255 0,0.686507 0,1.029758 -0.0885,-0.214135 -0.1651,-0.42686 -0.22472,-0.535516 -0.20708,-0.375709 -0.42651,-0.744712 -0.62371,-1.125712 -0.44098,-0.8509 -0.75848,-1.755071 -1.05728,-2.663474 -0.50588,-1.538816 -0.95497,-3.082219 -1.78788,-4.476397 z m 0.56091,-2.193925 c 0.29422,1.258711 0.76483,2.463799 1.27,3.658305 -0.36195,-0.747889 -0.74894,-1.483783 -1.15287,-2.209094 -0.0233,-0.04128 -0.067,-0.0508 -0.11713,-0.04057 0,-0.469547 0,-0.939094 0,-1.408641 z m 0,-1.896534 c 0.11889,0 0.23778,0 0.35666,0 -0.0564,0.640292 0.25259,1.356431 0.43709,1.958975 0.22437,0.731309 0.4692,1.456267 0.73519,2.173464 0.24624,0.663575 0.50024,1.342319 0.78141,2.009422 -0.8509,-1.83515 -1.7967,-3.632905 -2.16394,-5.641269 -0.0124,-0.06773 -0.0759,-0.07303 -0.14641,-0.04586 0,-0.151695 0,-0.303036 0,-0.454732 z m 1.12925,0 c 0.36195,1.3843 0.93627,2.740378 1.44074,4.071761 0.45791,1.207911 0.87171,2.484614 1.42699,3.661834 l -0.0794,-0.01623 -0.0878,-0.0078 c -0.57997,-1.344436 -1.24178,-2.644069 -1.75895,-4.018138 -0.254,-0.675217 -0.48966,-1.357137 -0.70662,-2.045406 -0.15381,-0.489303 -0.23107,-1.170164 -0.49671,-1.646061 0.0871,0 0.17463,0 0.26176,0 z m 1.06574,0 c 0.20955,1.305631 0.5969,2.599972 1.01988,3.8608 -0.049,-0.121708 -0.0984,-0.243769 -0.14605,-0.365478 -0.44556,-1.152172 -0.82444,-2.355144 -1.31375,-3.495322 0.14676,0 0.29316,0 0.43992,0 z m 1.29505,0 c 0,0.829381 0,1.659114 0,2.488495 -0.24201,-0.828675 -0.46603,-1.661584 -0.71579,-2.488495 0.23848,0 0.47731,0 0.71579,0 z m 1.13629,4.226983 c 0.37042,1.341967 0.77541,2.681817 1.20227,4.008261 -0.0561,-0.01976 -0.11254,-0.03951 -0.16898,-0.05856 -0.58526,-1.340202 -1.16487,-2.674408 -1.65065,-4.056591 0.20532,0.03281 0.41099,0.06809 0.61736,0.106891 z m 1.14124,0.249767 c 0.28469,0.830792 0.56585,1.662995 0.85654,2.49167 0.20179,0.576086 0.35701,1.246716 0.59725,1.846086 -0.19967,-0.09631 -0.40216,-0.187325 -0.60642,-0.274109 -0.4325,-1.402291 -0.895,-2.805994 -1.38924,-4.190647 0.18098,0.03951 0.3616,0.08185 0.54187,0.127 z m 1.02411,0.289983 c 0.0152,0.06562 0.0321,0.131234 0.0452,0.195792 0.0374,0.18415 0.0617,0.373945 0.17286,0.529872 0.0392,0.05503 0.10478,0.05468 0.17286,0.02646 0.10584,0.358069 0.22225,0.803627 0.2406,0.862189 0.13617,0.42545 0.27658,0.849488 0.41875,1.273175 l 0.61383,1.826683 c -0.1464,-0.08784 -0.29387,-0.172861 -0.44274,-0.255764 -0.10548,-0.892175 -0.60043,-1.827036 -0.91581,-2.667353 -0.24236,-0.646289 -0.49742,-1.287639 -0.75565,-1.92793 0.15064,0.04339 0.30057,0.0889 0.45015,0.136877 z m 1.07844,0.397581 c 0.31045,1.102783 0.63677,2.182283 0.86643,3.298825 -0.15629,-0.447322 -0.31256,-0.894997 -0.4692,-1.342672 -0.14711,-0.419806 -0.2988,-0.837847 -0.45191,-1.255184 -0.0882,-0.240594 -0.15593,-0.574322 -0.28328,-0.836788 0.1136,0.04374 0.22578,0.0889 0.33796,0.135819 z m 1.15288,0.558094 -0.007,0.04551 c 0.11183,0.794808 0.31821,1.627364 0.5715,2.389364 0.0229,0.06879 0.0801,0.08819 0.14781,0.07761 -0.0854,0.187325 -0.17074,0.375002 -0.25611,0.561975 -0.20391,-1.113014 -0.47378,-2.257072 -0.90805,-3.314347 0.15275,0.0762 0.30339,0.15628 0.45226,0.239888 z m 0.69004,0.42157 c -0.0342,0.0448 -0.055,0.09243 -0.0497,0.134408 0.01,0.07796 0.0201,0.161572 0.0317,0.246945 -0.0557,-0.171098 -0.11536,-0.340431 -0.17816,-0.506942 0.0656,0.04198 0.13194,0.0822 0.19615,0.125589 z m 0.72601,0.544336 c -0.0349,0.07655 -0.0695,0.153106 -0.10442,0.229306 -0.0194,-0.04904 -0.0392,-0.09807 -0.0554,-0.147814 -0.0289,-0.08855 -0.0522,-0.178153 -0.0759,-0.267759 0.079,0.06138 0.15875,0.122061 0.23566,0.186267 z m -1.3141,2.886075 c -0.0127,-0.03598 -0.0254,-0.07197 -0.0378,-0.10795 0.0328,-0.0071 0.0677,-0.02046 0.10337,-0.03634 -0.0219,0.04833 -0.0437,0.09631 -0.0656,0.144286 z m -5.01297,11.449401 c 0.67487,0.394758 1.19839,0.93345 1.24778,1.8161 -0.0385,0.988838 -0.42263,1.686983 -1.24778,2.088798 0,-1.30175 0,-2.603148 0,-3.904898 z m -0.65228,-5.611281 0.0434,0.01093 c 0.56585,1.277056 1.14582,2.547056 1.7339,3.813527 -0.11148,0.02294 -0.25718,0.151341 -0.23389,0.244829 0.0871,0.345017 0.18203,0.698146 0.29174,1.047747 -0.0759,-0.05644 -0.1531,-0.111476 -0.23389,-0.163335 0.0303,-0.05644 0.0437,-0.113241 0.0293,-0.164393 -0.44732,-1.61149 -1.04034,-3.207457 -1.63054,-4.789311 z m -0.73907,-8.355895 c 0.16051,0.33655 0.33126,0.665692 0.51329,0.985308 -0.0275,0.03986 -0.0508,0.08185 -0.0692,0.125236 -0.13723,-0.374297 -0.2861,-0.744008 -0.44415,-1.110544 z m 0.0547,2.176992 c 0.0476,0.135466 0.20214,0.123825 0.34749,0.04868 0,0.329142 0,0.658283 0,0.987072 -0.23319,-0.611364 -0.43604,-1.234722 -0.65159,-1.853847 0.10549,0.271286 0.20814,0.54363 0.3041,0.818092 z m 0.15769,4.75862 0.0617,0.03034 c 0.0409,0.01553 0.0843,0.01799 0.12806,0.01304 0,0.156985 0,0.313971 0,0.470958 -0.0635,-0.17145 -0.12736,-0.343254 -0.1898,-0.51435 z m -2.52906,-5.709004 c 0,-0.06279 0,-0.125589 0,-0.188383 0.0332,0.112536 0.0663,0.225072 0.0995,0.337608 -0.0325,-0.05045 -0.066,-0.09984 -0.0995,-0.149225 z m 0.80292,2.997554 c 0.39017,0.982133 0.74506,1.978377 1.09044,2.977092 0.27587,0.797628 0.52951,1.608312 0.78492,2.418995 -0.20037,-0.491067 -0.39969,-0.982485 -0.60254,-1.472493 -0.56197,-1.356784 -1.12995,-2.708982 -1.71626,-4.054827 -0.0317,-0.351367 -0.0857,-0.698148 -0.20426,-1.03223 -0.024,-0.06844 -0.0847,-0.08643 -0.15522,-0.07373 0,-0.18909 0,-0.378531 0,-0.567973 0.27163,0.600427 0.56056,1.19521 0.80292,1.805166 z m 0.92322,5.516737 c -0.25753,-0.576437 -0.51012,-1.154993 -0.768,-1.731433 -0.24871,-0.555625 -0.44521,-1.205087 -0.83961,-1.671109 -0.03,-0.03563 -0.0734,-0.03774 -0.11853,-0.024 0,-0.627946 0,-1.255538 0,-1.883482 0.51505,1.437569 1.04951,2.867025 1.58961,4.295775 0.27729,0.732719 0.55916,1.463675 0.84208,2.194277 0.23742,0.612423 0.42475,1.285875 0.73978,1.868313 l -0.0586,0.02787 c -0.32385,-1.051632 -0.94015,-2.077157 -1.38677,-3.076223 z m -2.36397,-2.488493 c 0.19721,-0.02117 0.39229,-0.1397 0.51365,-0.302332 0.12841,0.4826 0.36089,0.950032 0.5468,1.407583 0.23778,0.587024 0.4879,1.169107 0.73766,1.750838 0.45226,1.052687 0.83115,2.307519 1.48202,3.249081 l 0.0765,0.0501 c 0,0.210254 0,0.42051 0,0.630767 -0.9211,-2.35585 -2.48955,-4.409723 -3.35668,-6.786033 z m 3.18418,7.823903 c 0.0554,-0.01024 0.11571,-0.03669 0.17251,-0.07161 0,0.134409 0,0.268817 0,0.403577 -0.0571,-0.110773 -0.11395,-0.221543 -0.17251,-0.331965 z m -2.54635,-2.723443 c 0.0543,0.05398 0.14181,0.0501 0.23142,0.01093 0.40005,0.727072 0.85125,1.429806 1.24813,2.157587 0.43074,0.789517 0.83537,1.589617 1.23931,2.39254 0,0.411337 0,0.823029 0,1.234369 -0.77012,-1.920524 -1.62737,-3.80365 -2.59398,-5.643386 -0.0215,-0.04092 -0.072,-0.03986 -0.12488,-0.01622 0,-0.04516 0,-0.09066 0,-0.13582 z m -1.85209,-6.915502 c -0.57503,-0.626533 -0.73801,-1.455915 -0.50553,-2.276123 0.20249,-0.71508 0.73202,-1.149702 1.36843,-1.420283 0,1.437216 0,2.874081 0,4.311298 -0.30974,-0.169686 -0.60255,-0.368652 -0.8629,-0.614892 z m 1.2132,13.70965 c 0.16087,0.594077 0.44733,1.177925 0.65511,1.745192 0.26035,0.710845 0.52458,1.420283 0.77505,2.134658 0.0243,0.06914 0.0473,0.138642 0.0713,0.208137 -0.56056,-1.349375 -1.10631,-2.704394 -1.60584,-4.081285 0.0349,2.64e-4 0.0695,-0.0019 0.10442,-0.0067 z m -1.05515,-12.296423 c 0.17639,0.09525 0.35771,0.183446 0.54574,0.264583 0.65405,2.543882 2.24508,4.677833 3.21275,7.090833 -0.49424,-0.853016 -1.04034,-1.674987 -1.65135,-2.403475 -0.91475,-1.560335 -1.38042,-3.307643 -2.10714,-4.951941 z m 6.18349,1.886656 c 0.21237,0.765882 0.75,1.551869 1.0675,2.237317 0.47907,1.034698 0.87771,2.079625 1.21744,3.167237 0.20955,0.67028 0.44273,1.337733 0.69391,1.999192 -0.3362,-0.681212 -0.67275,-1.363134 -1.00894,-2.044346 -0.92499,-1.87466 -1.86196,-3.74156 -2.82787,-5.594702 0.28398,0.07373 0.57079,0.152046 0.85796,0.235302 z m 6.17996,5.794727 c -0.1457,-0.600075 -0.31256,-1.195917 -0.49989,-1.785408 0.25929,0.566915 0.42333,1.16981 0.49989,1.785408 z m 0.51505,-2.202392 c -1.22696,-3.005312 -4.58294,-4.069643 -7.47642,-4.791778 0,-1.955448 0,-3.911248 0,-5.866696 1.67041,0.433211 3.20287,1.203678 4.62033,2.210506 0.28117,0.199318 0.7433,-0.171802 0.85337,-0.413457 0.62407,-1.37054 1.24813,-2.741435 1.87219,-4.111976 0.0635,-0.139348 0.0437,-0.251884 -0.0684,-0.350662 -1.88524,-1.659113 -4.46616,-2.415116 -6.91021,-2.793294 0,-1.308453 0,-2.617258 0,-3.925711 0,-0.152753 -0.1965,-0.186267 -0.30515,-0.186267 -1.49331,0 -2.98627,0 -4.47922,0 -0.33302,0 -0.68368,0.327731 -0.68368,0.656873 0,1.197327 0,2.394302 0,3.591277 -3.88444,0.875595 -7.6006,3.675945 -7.77558,7.951965 -0.0878,2.138537 0.53305,4.027662 2.13325,5.479695 1.64465,1.491899 3.93805,2.144184 6.0459,2.710747 0,1.908172 0,3.816702 0,5.72558 -0.97049,-0.154868 -1.90535,-0.413808 -2.80317,-0.770818 -0.024,-0.03775 -0.0635,-0.04974 -0.10936,-0.04374 -0.99695,-0.4064 -1.94733,-0.934863 -2.84586,-1.58115 -0.27975,-0.201438 -0.74401,0.17286 -0.85337,0.413102 -0.62406,1.370894 -1.24813,2.741435 -1.87219,4.111977 -0.0603,0.132292 -0.0494,0.26035 0.0684,0.351015 2.30823,1.775883 5.15267,2.569985 8.01194,2.875843 0,1.280938 0,2.561873 0,3.842809 0,0.152754 0.19614,0.186266 0.3048,0.186266 1.49331,0 2.98626,0 4.47922,0 0.33302,0 0.68403,-0.327728 0.68403,-0.65687 0,-1.208617 0,-2.417233 0,-3.62585 2.00625,-0.437446 3.87562,-1.309158 5.35658,-2.768248 2.06728,-2.142067 2.90512,-5.398559 1.7526,-8.221134" />
      <path
         inkscape:connector-curvature="0"
         id="path410"
         style="fill:#1f1e21;fill-opacity:1;fill-rule:nonzero;stroke:none;stroke-width:0.20971541"
         d="m -343.99182,48.55511 c -0.99095,0.75424 -2.4033,0.396523 -3.46717,-0.04551 -0.36075,-0.149929 -0.71727,-0.355246 -1.0856,-0.657929 -1.90211,-1.562807 -2.86039,-4.128207 -3.46371,-6.439255 -0.44137,-1.690862 -0.78906,-3.428645 -0.85313,-5.179128 -0.0324,-0.886532 0.0172,-1.781882 0.17763,-2.655359 0.88166,-4.797778 5.45302,0.547159 6.45431,2.451452 1.32126,2.512483 2.30064,5.4229 2.7933,8.214077 0.23562,1.334558 0.71561,3.344688 -0.55563,4.31165 z m 4.56777,1.489075 c -0.86995,-0.149225 -1.7399,-0.298095 -2.6096,-0.449437 -0.3948,-0.06879 -0.78959,-0.137583 -1.18428,-0.208492 0.41631,-0.317148 0.74884,-0.742246 0.93719,-1.285171 0.6029,-1.738487 0.15889,-3.919008 -0.25837,-5.653617 -0.45752,-1.902528 -1.09774,-3.80153 -1.88405,-5.594347 -1.00513,-2.29094 -3.05276,-5.337175 -5.64032,-6.023681 1.3443,-0.755299 2.91455,-1.131359 4.4238,-1.324682 0.25753,-0.03316 0.57147,-0.247649 0.46673,-0.535163 -0.11162,-0.306564 -0.63017,-0.288572 -0.8708,-0.257528 -2.04967,0.264584 -3.82309,1.032933 -5.74156,1.731081 -0.17544,0.06385 -0.21499,0.18909 -0.16923,0.327025 -0.27563,-0.83185 -1.65848,1.450623 -1.76431,1.823156 -0.41205,1.448152 -0.40693,3.046236 -0.30773,4.534959 0.13959,2.089502 0.6084,4.212164 1.28033,6.194422 0.55799,1.646415 1.36398,3.25755 2.58107,4.519438 1.11802,1.158168 2.62339,2.09056 4.254,2.240492 0.44951,0.04127 0.91091,0.01304 1.3509,-0.08643 0.38639,0.128765 0.80877,0.180269 1.24149,0.24906 1.23236,0.195792 2.46267,0.405342 3.69327,0.612775 0.82465,0.138997 1.0529,-0.66816 0.20147,-0.813858" />
      <path
         inkscape:connector-curvature="0"
         id="path412"
         style="fill:#1f1e21;fill-opacity:1;fill-rule:nonzero;stroke:none;stroke-width:0.20971541"
         d="m -270.64667,24.903831 c 0.18979,0.602192 0.38029,1.235428 0.46249,1.861961 0.0727,0.556684 0.0579,1.966736 -0.76341,2.110317 -1.10561,0.193322 -1.04917,-2.742494 -0.97684,-3.376083 0.0871,-0.761648 0.29845,-1.501775 0.61947,-2.192161 0.27799,0.513291 0.49072,1.06433 0.65829,1.595966 z m -17.78918,35.818585 c -0.42439,1.345142 -0.89288,2.675467 -1.40582,3.989211 -0.0497,0.127706 -0.17391,0.569738 -0.21378,0.600075 -0.1457,0.110421 -0.72319,0.04163 -0.89182,0.05115 -0.29386,0.01622 -0.58773,0.03175 -0.88124,0.04798 -0.2413,0.01304 -0.67134,0.10654 -0.98813,0.10019 -0.0931,-0.301625 -0.0624,-0.69568 -0.0868,-0.969433 -0.0423,-0.479074 -0.084,-0.958147 -0.12806,-1.437217 -0.0896,-0.968375 -0.18168,-1.937105 -0.29986,-2.902657 -0.0162,-0.132998 -0.139,-0.272698 -0.30127,-0.388056 1.78929,-0.781754 3.50555,-1.72367 5.15267,-2.773185 0.46108,-0.294217 0.89711,-0.60184 1.30951,-0.923573 -0.36583,1.549754 -0.78634,3.0861 -1.26541,4.605514 z m -41.80875,3.983215 c -1.18321,-0.08572 -2.33927,0.0032 -3.50484,0.23001 -0.9137,-3.448756 -1.84327,-6.892925 -2.77319,-10.337093 2.08139,2.051754 4.51661,3.680883 7.15222,4.939945 -0.27164,1.725438 -0.57785,3.445934 -0.87419,5.167138 z m 67.04048,-45.639919 c -2.6162,-0.807861 -5.67725,-0.299861 -7.73465,1.569508 -0.23848,0.217311 -0.4625,0.452261 -0.67064,0.701675 -0.52281,-0.402872 -1.11442,-0.709083 -1.77306,-0.877358 -2.34703,-0.600075 -5.00203,0.574322 -6.30308,2.581275 -0.56479,-1.457678 -1.31621,-2.846211 -2.22214,-4.182181 -6.57684,-9.7027997 -17.91053,-15.6220578 -29.585,-15.8443078 -6.41174,-0.1220611 -12.80302,1.4576777 -18.41747,4.5388387 -3.60963,-2.0161249 -7.89129,-2.877961 -11.98609,-2.9174721 -0.36823,-0.00317 -0.31598,0.3457222 -0.10378,0.6568722 -0.0965,-7.064e-4 -0.19333,-7.064e-4 -0.29076,0.00176 -0.29323,0.00776 -0.69865,0.075847 -0.81884,0.3929943 -1.58348,4.1871193 -2.53724,9.5807387 -0.17639,13.6764887 -0.0604,0.03069 -0.11176,0.07091 -0.14841,0.121355 -0.85436,1.178278 -1.28224,2.464506 -1.57441,3.877028 -0.33002,1.597025 -0.60978,3.215922 -0.79414,4.83623 l 0.0117,0.0028 c 0.0328,0.557741 1.20329,0.948619 1.31438,0.325261 0.27616,-1.550459 0.4892,-3.110442 0.7856,-4.657372 0.26169,-1.364545 0.57246,-2.830689 1.45768,-3.944056 l 0.0586,-0.09243 c 0.15724,-0.03951 0.24183,-0.151694 0.15653,-0.37218 -0.86678,-2.242609 -1.34814,-4.427714 -1.23719,-6.844242 0.10156,-2.21368 0.61803,-4.3765606 1.36109,-6.457244 2.93811,0.2106084 5.43687,2.2122694 7.65196,4.01073 0.42298,0.343253 1.67357,-0.2412996 1.22661,-0.6011329 -1.87361,-1.5088304 -3.88303,-3.036711 -6.15559,-3.7920081 2.92837,0.1742721 5.68322,1.007886 8.35551,2.2898804 -0.16863,0.098778 -0.33691,0.198614 -0.50377,0.300214 -0.508,0.309386 0.59373,1.150761 1.06292,0.8583083 10.01501,-6.2459304 22.84448,-7.0774276 33.45674,-1.838678 4.82247,2.3805444 9.12036,5.9044413 12.39343,10.1726993 1.82528,2.380192 3.44735,5.025673 4.0894,7.988653 0.66922,3.087511 0.56163,6.376813 0.30128,9.507009 -0.30763,3.696758 -1.0407,7.361415 -2.16218,10.8966 -0.79904,2.51954 -1.97132,4.922308 -3.57082,6.973006 -0.35807,-0.0441 -0.75882,0.05962 -0.81597,0.358775 -0.0504,0.26176 -0.10266,0.523169 -0.15593,0.784225 -1.01,1.089729 -2.16253,2.050344 -3.46922,2.835627 -4.47287,2.68746 -9.53205,4.341635 -14.69425,5.033785 -3.98251,0.533755 -8.03628,0.52705 -12.02831,0.09878 -3.76908,-0.404638 -7.52792,-1.234371 -11.01972,-2.732971 0.0141,-0.07373 0.0268,-0.147461 0.0409,-0.220837 0.0843,-0.430742 -0.83538,-0.594784 -1.22802,-0.321382 -3.55776,-1.722615 -6.76839,-4.218868 -9.0805,-7.443258 -0.16404,-0.228952 -0.51047,-0.577498 -0.83301,-0.492477 -0.29185,0.07655 -0.34163,0.35842 -0.17184,0.601837 0.32329,0.464256 0.66372,0.910873 1.01649,1.34338 -0.0208,0.0575 -0.0233,0.129468 -3.4e-4,0.219778 1.06539,4.203348 2.12619,8.407755 3.2131,12.605457 0.0931,0.360185 0.76447,0.366183 1.01706,0.286102 1.29222,-0.408162 2.667,-0.474486 4.00473,-0.280104 0.25859,0.03739 0.92781,0.02328 0.99378,-0.359482 0.29245,-1.706739 0.56374,-3.420181 0.87559,-5.124098 2.7425,1.161347 5.66456,1.950509 8.6039,2.420409 8.22783,1.315508 16.93827,0.793046 24.73783,-2.261304 0.0575,-0.02257 0.1143,-0.04727 0.17181,-0.0702 0.048,1.052338 0.13934,2.103967 0.22366,3.15313 0.0441,0.550685 0.0836,1.101725 0.13299,1.652058 0.0332,0.370769 0.043,0.7366 0.33832,1.004004 0.60925,0.55245 1.70533,0.288221 2.43452,0.244123 0.71155,-0.04339 1.97273,0.138994 2.52765,-0.411692 0.31574,-0.312914 0.43533,-0.880885 0.59055,-1.289756 0.18944,-0.499179 0.37254,-1.000477 0.54998,-1.503892 0.36724,-1.043162 0.70979,-2.094793 1.02482,-3.154537 0.52881,-1.780116 0.97755,-3.581754 1.35467,-5.399265 1.8415,-1.952273 3.09844,-4.291189 4.07035,-6.996641 1.14864,-3.196167 1.93781,-6.529917 2.39748,-9.8933 0.44661,-3.268837 0.65757,-6.649154 0.3429,-9.94022 -0.0878,-0.922161 -0.25048,-1.815394 -0.47625,-2.684286 0.33302,-1.210028 1.14899,-2.228497 2.19956,-2.909711 1.09468,-0.709789 2.65007,-1.229783 3.87844,-0.566561 0.30057,0.162278 0.56727,0.368653 0.8054,0.604661 -1.0795,1.698625 -1.50425,3.853039 -0.94827,5.788378 0.32632,1.136297 1.25659,2.036235 2.51037,1.872193 1.28869,-0.168981 1.90394,-1.354316 1.83691,-2.553407 -0.0949,-1.703211 -0.74542,-3.610328 -1.9043,-4.989336 0.0586,-0.08255 0.11536,-0.166159 0.17745,-0.246592 1.58891,-2.054578 4.36739,-2.923822 6.84036,-2.157942 0.68686,0.212725 1.34903,-0.487186 0.45932,-0.762" />
      <path
         inkscape:connector-curvature="0"
         id="path414"
         style="fill:#1f1e21;fill-opacity:1;fill-rule:nonzero;stroke:none;stroke-width:0.20971541"
         d="m -349.91108,39.378656 c -0.0516,-0.506235 -1.25758,-1.145823 -1.20466,-0.428625 0.0885,1.203325 0.36078,2.450394 0.95719,3.510844 0.15462,0.275166 0.4899,0.556683 0.82614,0.542573 0.30095,-0.0127 0.45349,-0.205317 0.32533,-0.496007 -0.45061,-1.021291 -0.79015,-2.014714 -0.904,-3.128785" />
      <path
         inkscape:connector-curvature="0"
         id="path416"
         style="fill:#1f1e21;fill-opacity:1;fill-rule:nonzero;stroke:none;stroke-width:0.20971541"
         d="m -347.23519,38.627946 c -0.0935,-0.410281 -1.22438,-1.0033 -1.16981,-0.306917 0.0995,1.272117 0.38749,2.569986 0.76345,3.787773 0.1524,0.493538 1.47408,0.820563 1.27219,0.129823 -0.35031,-1.197327 -0.58883,-2.396773 -0.86583,-3.610679" />
      <path
         inkscape:connector-curvature="0"
         id="path418"
         style="fill:#1f1e21;fill-opacity:1;fill-rule:nonzero;stroke:none;stroke-width:0.20971541"
         d="m -335.16373,28.522273 c 0.067,0.576086 1.76107,0.942622 1.79634,0.293511 0.0416,-0.772936 0.0307,-1.547283 0.0286,-2.321631 -0.002,-0.600075 0.10407,-1.285169 -0.16263,-1.833738 -0.16898,-0.347134 -1.44392,-1.172986 -1.58009,-0.404637 -0.13617,0.765175 -0.10477,1.541639 -0.10618,2.316339 -7.2e-4,0.642409 -0.0501,1.311628 0.024,1.950156" />
      <path
         inkscape:connector-curvature="0"
         id="path420"
         style="fill:#1f1e21;fill-opacity:1;fill-rule:nonzero;stroke:none;stroke-width:0.20971541"
         d="m -313.17192,8.7265009 c 0.41981,0.71755 0.83326,1.4382751 1.27424,2.1463001 0.0226,0.03634 0.054,0.0702 0.0921,0.101247 -0.10795,-0.0018 -0.2159,-0.0049 -0.32385,-0.0049 -0.005,-0.0441 -0.0198,-0.09137 -0.0512,-0.141111 -0.44274,-0.703086 -0.95321,-1.3807719 -1.45062,-2.0598692 0.1531,-0.015169 0.30621,-0.028928 0.45931,-0.041628 z m 1.1363,-0.071614 c 0.4953,0.7852834 0.96132,1.6002001 1.5046,2.3632581 -0.0776,-0.0039 -0.15452,-0.0099 -0.23178,-0.01341 0.0141,-0.06209 -0.002,-0.140758 -0.0628,-0.239183 -0.43674,-0.708378 -0.89958,-1.4054667 -1.35749,-2.104672 0.049,-0.00246 0.0984,-0.00388 0.14746,-0.006 z m 1.86125,-0.022577 c 0.0124,0.037042 0.0293,0.076905 0.0529,0.1210027 0.47132,0.8766527 1.05128,1.6972134 1.73426,2.4581554 -0.32456,-0.04092 -0.64982,-0.07796 -0.97579,-0.108303 -0.49918,-0.847019 -1.11125,-1.6594662 -1.67675,-2.4754412 0.28857,-0.00282 0.57715,-0.00106 0.86536,0.00459 z m 1.4277,0.06738 0.0303,0.062089 c 0.51964,0.922161 1.10878,1.8746611 1.86196,2.6835801 -0.0656,-0.01199 -0.13053,-0.0254 -0.19615,-0.03669 l -0.0102,-0.01093 c -0.83573,-0.837494 -1.54411,-1.7328445 -2.11843,-2.7174472 l -0.007,-0.00988 c 0.14641,0.00811 0.29281,0.01905 0.43921,0.02928 z m 2.43804,0.2751667 c 0.63395,1.011061 1.24919,2.0394084 1.93429,3.0247164 -0.37254,-0.09984 -0.74719,-0.19438 -1.12466,-0.280105 l -0.0162,-0.02858 c -0.70415,-0.974725 -1.5053,-1.8630192 -2.11561,-2.8927776 0.44274,0.048331 0.88336,0.1075973 1.32221,0.1767417 z m 2.02742,0.396875 c 0.49918,1.0195274 0.89182,2.0905614 1.43686,3.0861004 -0.0451,-0.01482 -0.09,-0.03104 -0.13547,-0.04586 0.007,-0.04304 -0.005,-0.09525 -0.0427,-0.157692 -0.63288,-1.046339 -1.37301,-2.051756 -2.08421,-3.0638751 0.27623,0.056092 0.5514,0.1167694 0.8255,0.1813277 z m 1.34796,0.3559527 c 0.049,0.13335 0.0981,0.2674056 0.14641,0.4018137 -0.0808,-0.1442858 -0.16228,-0.2882191 -0.24378,-0.4310941 0.0325,0.00917 0.0646,0.019756 0.0974,0.02928 z m -10.75019,1.2742337 c -0.53834,-0.610658 -1.11443,-1.1994442 -1.60162,-1.8453803 -0.0378,-0.049742 -0.0885,-0.103011 -0.14781,-0.1534583 0.27199,-0.04445 0.54434,-0.083608 0.81774,-0.1202973 0.43709,0.6614583 0.86395,1.3338529 1.35608,1.9614439 0.0378,0.04798 0.0829,0.09454 0.13264,0.138995 -0.18556,0.0053 -0.37147,0.0095 -0.55703,0.0187 z m -1.46827,0.105481 c -0.62336,-0.587023 -1.22978,-1.1761613 -1.78011,-1.8203336 0.2159,-0.047272 0.43215,-0.091369 0.64911,-0.13335 0.0155,0.037747 0.0346,0.075142 0.0596,0.111478 0.42333,0.6067777 0.86818,1.2403666 1.38042,1.8150416 -0.10301,0.0088 -0.20602,0.01728 -0.30904,0.02716 z m -1.58538,0.195086 c -0.51012,-0.572911 -1.07244,-1.116895 -1.61325,-1.6693446 0.18485,-0.050447 0.37041,-0.098072 0.55633,-0.1446387 0.49353,0.6050133 1.02341,1.1920363 1.60514,1.7370773 -0.1831,0.02399 -0.36583,0.04974 -0.54822,0.07691 z m -1.34479,0.232833 c -0.54892,-0.481542 -1.06927,-0.979311 -1.53776,-1.523294 0.14817,-0.048331 0.29775,-0.093486 0.44662,-0.1389946 0.47943,0.5312836 0.94298,1.0812636 1.44745,1.5952606 -0.11889,0.02187 -0.23777,0.04339 -0.35631,0.06703 z m -1.14582,0.250472 c -0.41981,-0.493889 -0.84667,-0.983191 -1.27212,-1.4732 l 0.0794,-0.02752 c 0.4258,0.51435 0.88971,1.000125 1.39806,1.453445 -0.0684,0.01588 -0.13688,0.03069 -0.20532,0.04727 z m -1.1998,0.315031 c -0.39334,-0.448733 -0.75953,-0.903464 -1.06574,-1.407583 0.0547,-0.02258 0.11007,-0.04269 0.16475,-0.06491 0.37853,0.459669 0.75459,0.92075 1.14017,1.376186 l 0.0233,0.02434 c -0.0875,0.02399 -0.17532,0.04692 -0.26246,0.07197 z m -1.51342,0.479072 c -0.14499,-0.367947 -0.28222,-0.736953 -0.43144,-1.110544 -0.0455,-0.115006 -0.13829,-0.211667 -0.25153,-0.286809 l 0.008,-0.0025 c 0.10442,-0.04868 0.21061,-0.09384 0.31574,-0.141111 0.2868,0.465667 0.61418,0.918281 0.99553,1.327503 -0.21307,0.06879 -0.42509,0.1397 -0.63606,0.21343 z m 20.77015,-2.269419 c -0.10477,0.04163 -0.15311,0.141464 -0.0843,0.326672 0.28434,0.762705 0.51894,1.557161 0.87489,2.296583 0.0459,0.09525 0.18803,0.195439 0.35666,0.271992 -0.0878,0.07902 -0.17675,0.157692 -0.26423,0.23742 l -0.0716,-0.03069 c -0.38453,-1.115131 -0.89394,-2.210859 -1.37301,-3.303764 0.18838,0.06491 0.37535,0.132997 0.56162,0.201789 z m 1.15076,0.461786 c 0.01,0.05821 0.0328,0.105833 0.0762,0.116064 0.0409,0.0099 0.13018,0.244827 0.15945,0.297039 0.0649,0.116063 0.13018,0.23248 0.19509,0.348544 0.121,0.2159 0.24271,0.4318 0.36407,0.647347 0.0384,0.06773 0.0974,0.129822 0.16686,0.184856 -0.11042,0.09454 -0.22366,0.186619 -0.33337,0.281869 -0.23001,-0.639586 -0.53481,-1.26753 -0.7934,-1.895828 l -0.0385,-0.06773 c 0.0684,0.02858 0.13582,0.05856 0.20355,0.08784 z m 1.81822,0.869244 c -0.0603,0.04974 -0.11889,0.101247 -0.17886,0.151342 -0.0716,-0.118886 -0.14393,-0.237772 -0.21696,-0.356306 0.13264,0.06738 0.26494,0.135114 0.39582,0.204964 z m -16.87054,-3.5510614 c -2.90654,0.339725 -5.74851,1.084086 -8.37283,2.2546024 -0.29527,0.131939 -0.12912,0.45332 0.15099,0.666397 -0.14993,0.01482 -0.28892,0.07091 -0.27693,0.214137 0.0593,0.720372 0.34043,1.55963 0.76306,2.186164 0.19896,0.295275 1.19415,0.467783 1.22978,0.105833 2.00801,-0.805745 4.13279,-1.345847 6.29567,-1.624189 0.22155,0.04868 0.46567,0.02505 0.57856,-0.06738 0.1845,-0.01976 0.369,-0.03704 0.55386,-0.05292 l 0.0233,0.02152 c 0.18979,0.164747 0.50377,0.330553 0.7874,0.272697 0.20884,-0.04269 0.32985,-0.1905 0.23319,-0.363008 4.27108,-0.200025 8.58978,0.6096 12.37367,2.430286 0.20179,0.09737 0.49954,0.140053 0.74225,0.07973 0.23319,0.105481 0.49318,0.134408 0.64417,-0.0088 0.83291,-0.78987 1.69298,-1.564923 2.60033,-2.293409 -0.073,-0.05397 -0.13935,-0.118534 -0.19544,-0.189795 0.085,0.10795 -0.0138,-0.0127 -0.031,-0.03246 -0.0388,-0.0448 -0.0783,-0.0889 -0.11818,-0.132644 -0.0674,-0.07338 -0.13617,-0.145697 -0.20567,-0.217311 -0.10407,-0.106539 -0.21096,-0.210608 -0.3175,-0.315031 -1.46826,-0.73413 -3.01872,-1.3430247 -4.62315,-1.8231551 -0.23107,-0.1647473 -0.57221,-0.2737557 -0.75706,-0.216253 -0.27658,-0.075142 -0.55492,-0.1467554 -0.83432,-0.214136 -0.13547,-0.053269 -0.27834,-0.087842 -0.39829,-0.093133 -2.74849,-0.6265334 -5.61269,-0.8900584 -8.45432,-0.7747 -0.30621,-0.3623027 -1.20121,-0.4935361 -0.94192,0.052564 -0.2166,0.015169 -0.43321,0.03175 -0.64946,0.051505 -0.32491,-0.1756833 -0.79375,-0.1785054 -0.8001,0.082903" />
    </g>
  </g>
</svg>
