<?xml version="1.0" encoding="UTF-8" standalone="no"?>
<!-- Created with Inkscape (http://www.inkscape.org/) -->

<svg
   xmlns:dc="http://purl.org/dc/elements/1.1/"
   xmlns:cc="http://creativecommons.org/ns#"
   xmlns:rdf="http://www.w3.org/1999/02/22-rdf-syntax-ns#"
   xmlns:svg="http://www.w3.org/2000/svg"
   xmlns="http://www.w3.org/2000/svg"
   xmlns:sodipodi="http://sodipodi.sourceforge.net/DTD/sodipodi-0.dtd"
   xmlns:inkscape="http://www.inkscape.org/namespaces/inkscape"
   width="60"
   height="60"
   viewBox="0 0 15.875 15.875001"
   version="1.1"
   id="svg1651"
   inkscape:version="0.92.3 (2405546, 2018-03-11)"
   sodipodi:docname="planning.svg">
  <defs
     id="defs1645" />
  <sodipodi:namedview
     id="base"
     pagecolor="#ffffff"
     bordercolor="#666666"
     borderopacity="1.0"
     inkscape:pageopacity="0.0"
     inkscape:pageshadow="2"
     inkscape:zoom="6.1286237"
     inkscape:cx="30.598439"
     inkscape:cy="29.615124"
     inkscape:document-units="px"
     inkscape:current-layer="layer1"
     showgrid="false"
     fit-margin-top="0"
     fit-margin-left="0"
     fit-margin-right="0"
     fit-margin-bottom="0"
     units="px"
     inkscape:window-width="1890"
     inkscape:window-height="1052"
     inkscape:window-x="30"
     inkscape:window-y="0"
     inkscape:window-maximized="1" />
  <metadata
     id="metadata1648">
    <rdf:RDF>
      <cc:Work
         rdf:about="">
        <dc:format>image/svg+xml</dc:format>
        <dc:type
           rdf:resource="http://purl.org/dc/dcmitype/StillImage" />
        <dc:title></dc:title>
      </cc:Work>
    </rdf:RDF>
  </metadata>
  <g
     inkscape:label="Layer 1"
     inkscape:groupmode="layer"
     id="layer1"
     transform="translate(-92.44571,-134.74651)">
    <g
       id="g2314"
       transform="matrix(0.17134688,0,0,0.17134688,83.15573,118.2181)"
       style="stroke-width:5.83611441">
      <path
         inkscape:connector-curvature="0"
         id="path220"
         style="fill:#7497c1;fill-opacity:1;fill-rule:nonzero;stroke:none;stroke-width:0.20588516"
         d="m 112.14078,170.48856 c -0.10231,-0.26818 -0.34572,-0.52214 -0.635,-0.5891 -0.18697,-0.0459 -0.51506,-0.0106 -0.46214,0.27506 0.25753,1.3794 0.82903,2.87514 1.57692,4.0641 0.1658,0.26099 0.49389,0.4444 0.81139,0.42676 0.22577,-0.014 0.5468,-0.14813 0.39863,-0.43737 -0.64205,-1.24175 -1.17827,-2.42715 -1.6898,-3.73945" />
      <path
         inkscape:connector-curvature="0"
         id="path222"
         style="fill:#7497c1;fill-opacity:1;fill-rule:nonzero;stroke:none;stroke-width:0.20588516"
         d="m 114.3527,171.87843 c -0.67028,-1.02305 -1.22767,-2.11666 -1.74625,-3.22072 -0.20109,-0.42693 -1.36525,-0.86088 -1.08656,-0.10597 0.37394,1.00898 0.82903,1.9721 1.35819,2.90696 0.508,0.89958 1.06892,1.89798 1.82739,2.61401 0.20109,0.19057 1.34761,0.40926 1.0407,-0.1622 -0.38453,-0.71618 -0.9525,-1.34758 -1.39347,-2.03208" />
      <path
         inkscape:connector-curvature="0"
         id="path224"
         style="fill:#7497c1;fill-opacity:1;fill-rule:nonzero;stroke:none;stroke-width:0.20588516"
         d="m 117.32308,173.65294 c -1.64394,-2.43057 -3.23144,-4.87895 -4.64961,-7.45423 -0.14464,-0.26098 -0.45155,-0.53618 -0.77258,-0.52916 -0.26106,0.004 -0.45861,0.187 -0.3175,0.46221 1.4605,2.82222 3.05506,5.6268 4.90714,8.21612 0.19403,0.27178 0.67733,0.43395 0.99483,0.29986 0.18697,-0.081 0.32809,-0.11285 0.381,-0.3175 0.0741,-0.27862 -0.22225,-0.55382 -0.54328,-0.6773" />
      <path
         inkscape:connector-curvature="0"
         id="path226"
         style="fill:#7497c1;fill-opacity:1;fill-rule:nonzero;stroke:none;stroke-width:0.20588516"
         d="m 116.33883,168.67176 c -1.143,-1.61576 -2.36361,-3.1786 -3.64419,-4.68842 -0.16933,-0.20108 -0.55033,-0.48331 -0.83608,-0.36689 -0.27517,0.10583 -0.26811,0.36689 -0.0952,0.58208 0.20108,0.24342 0.39864,0.49043 0.59266,0.73724 -0.0247,0.0707 -0.007,0.16591 0.0706,0.2928 1.58397,2.60714 3.18206,5.23533 4.96358,7.7082 0.067,0.0918 0.254,0.16937 0.45862,0.21166 0.1658,0.26459 0.33161,0.53277 0.50094,0.79375 0.21872,0.33874 1.47461,0.3634 1.23825,-0.14111 -0.85019,-1.80975 -2.09903,-3.49952 -3.24908,-5.12931" />
      <path
         inkscape:connector-curvature="0"
         id="path228"
         style="fill:#7497c1;fill-opacity:1;fill-rule:nonzero;stroke:none;stroke-width:0.20588516"
         d="m 121.49292,173.4096 c -0.0459,-0.0247 -0.0952,-0.0495 -0.14464,-0.0742 -0.0282,-0.0176 -0.0705,-0.0283 -0.11995,-0.0423 -0.635,-0.76909 -1.13947,-1.71097 -1.71802,-2.51534 -0.62089,-0.87133 -1.25942,-1.72861 -1.91559,-2.57168 -1.41816,-1.82397 -2.91041,-3.5807 -4.46616,-5.28818 -0.37395,-0.41275 -1.4852,-0.38453 -0.9137,0.27517 1.58045,1.82037 3.08328,3.70773 4.51556,5.64801 0.71261,0.96311 1.40758,1.94027 2.08491,2.93147 0.39512,0.57867 0.77612,1.16417 1.16064,1.74985 0.25048,0.37744 0.41275,0.56085 0.87489,0.64562 0.24695,0.0459 0.6985,-0.0353 0.80081,-0.30688 l 0.0282,-0.0707 c 0.06,-0.16221 -0.0459,-0.30332 -0.18697,-0.38089" />
      <path
         inkscape:connector-curvature="0"
         id="path230"
         style="fill:#7497c1;fill-opacity:1;fill-rule:nonzero;stroke:none;stroke-width:0.20588516"
         d="m 120.28642,166.3998 c 0.0529,0 0.1023,0 0.15169,-0.004 0.22225,0.36339 0.44097,0.72679 0.66675,1.08659 -0.27164,-0.3598 -0.54328,-0.7232 -0.81844,-1.08313 z m 3.429,4.4698 c 0.26458,0.23632 0.5468,0.45144 0.84314,0.635 0.24694,0.14813 0.60325,0.19402 0.86783,0.0706 0.17639,-0.0812 0.40922,-0.30688 0.19403,-0.50451 -0.31045,-0.2752 -0.59972,-0.55383 -0.88195,-0.83605 0.0529,-0.007 0.10584,-0.0142 0.15875,-0.0319 0.20109,-0.067 0.50448,-0.29626 0.27164,-0.52557 -2.69522,-2.66707 -4.064,-6.15244 -5.79261,-9.45444 -1.98261,-3.79589 -4.33211,-7.366 -6.69925,-10.92906 -0.27869,-0.4198 -1.49578,-0.4833 -1.07244,0.17992 2.33186,3.67947 4.69194,7.36247 6.68161,11.2395 0.13405,0.26105 0.26458,0.52564 0.39511,0.79375 -0.508,-0.86078 -1.03364,-1.71097 -1.53811,-2.56117 -1.47461,-2.46944 -2.8575,-5.05883 -4.51556,-7.40833 -0.22578,-0.32103 -1.4358,-0.45861 -1.13594,0.13053 0.88547,1.74272 1.905,3.43605 2.92805,5.1188 -0.7373,-0.81139 -1.43227,-1.66158 -2.00025,-2.61761 -0.22225,-0.37394 -1.35114,-0.59267 -1.01247,0.06 0.86078,1.65806 2.10256,3.01625 3.33728,4.39561 0.90311,1.00895 1.77447,2.04611 2.59997,3.12209 0.47978,0.85372 0.94545,1.71803 1.397,2.59292 -0.88194,-1.17828 -1.76036,-2.36009 -2.63525,-3.5419 -1.10419,-1.4993 -2.16958,-3.05858 -3.41842,-4.44147 -0.23283,-0.25753 -1.23119,-0.46214 -0.90663,0.16228 0.80433,1.56281 1.9685,2.97744 2.99861,4.39561 1.08655,1.49225 2.17664,2.98098 3.27025,4.46974 1.08655,1.47464 2.18016,2.94209 3.2773,4.40972 0.55034,0.73021 1.10067,1.46042 1.651,2.19064 0.16228,0.21526 0.32456,0.44457 0.48684,0.67388 -0.0353,-0.004 -0.0705,-0.007 -0.10584,-0.007 -0.20108,-0.22931 -0.38453,-0.55743 -0.51153,-0.7232 -0.17638,-0.2329 -0.3563,-0.46221 -0.53269,-0.69508 -0.41275,-0.53622 -0.8255,-1.07583 -1.23825,-1.61561 -0.91017,-1.18181 -1.81681,-2.37063 -2.72697,-3.55604 -0.82197,-1.07251 -1.64747,-2.14489 -2.47297,-3.2138 -0.889,-1.15359 -1.72509,-2.49767 -2.83634,-3.43606 -0.29633,-0.254 -0.9525,-0.28575 -0.77964,0.25753 0.22578,0.72319 0.8502,1.36877 1.31586,1.97202 -0.22225,-0.21166 -0.4445,-0.42686 -0.6738,-0.635 -0.3422,-0.31397 -1.3335,-0.36336 -0.83256,0.29986 0.81492,1.08656 1.78153,2.07081 2.67759,3.09387 0.94897,1.09012 1.88383,2.19075 2.79752,3.30902 1.83445,2.24014 3.52778,4.56847 5.25639,6.88619 0.29281,0.39511 1.51342,0.0812 1.2065,-0.45156 -0.11641,-0.21167 -0.24694,-0.41617 -0.37394,-0.62082 l -0.0212,-0.0318 c 0.11289,-0.06 0.20814,-0.14457 0.27164,-0.254 0.21519,0.28222 0.4445,0.55041 0.69497,0.78317 0.24342,0.22585 1.524,0.26113 1.21356,-0.27506 -0.57856,-1.00542 -1.32997,-1.9473 -2.07786,-2.87515" />
      <path
         inkscape:connector-curvature="0"
         id="path232"
         style="fill:#7497c1;fill-opacity:1;fill-rule:nonzero;stroke:none;stroke-width:0.20588516"
         d="m 125.43345,167.07364 c 0.41627,0.24694 1.41463,-0.014 1.03011,-0.50793 -5.56331,-7.15085 -8.70656,-15.8186 -14.29809,-22.94471 -0.18697,-0.23636 -0.53269,-0.45861 -0.84666,-0.39864 -0.25753,0.0494 -0.42334,0.26106 -0.23636,0.508 2.06727,2.7552 3.78883,5.72912 5.43983,8.74537 -1.30528,-1.82034 -2.71639,-3.56306 -4.22981,-5.23875 -0.45508,-0.50448 -1.31233,-0.23989 -0.73025,0.41627 2.921,3.29495 5.35517,6.98148 7.4295,10.8585 1.93675,3.62303 3.72534,7.36244 6.52286,10.42459 0.33162,0.36339 1.59103,0.0742 1.13242,-0.42333 -0.42686,-0.46221 -0.82903,-0.94548 -1.21355,-1.43937" />
      <path
         inkscape:connector-curvature="0"
         id="path234"
         style="fill:#7497c1;fill-opacity:1;fill-rule:nonzero;stroke:none;stroke-width:0.20588516"
         d="m 111.92911,142.36511 c 2.52589,3.79237 4.99886,7.62 7.17197,11.62756 1.89089,3.48544 3.70064,7.05203 6.3112,10.06475 0.32455,0.37042 1.58397,0.10231 1.13947,-0.40922 -1.04775,-1.21003 -1.9685,-2.50472 -2.82222,-3.84528 0.40217,0.54328 0.81492,1.07597 1.24883,1.59103 0.3175,0.37747 1.55575,0.0388 1.10772,-0.48331 -2.80811,-3.28083 -4.8648,-7.21078 -7.0873,-10.90083 -2.01436,-3.34081 -4.02872,-6.68161 -6.05014,-10.01536 -0.15522,-0.25753 -0.47272,-0.51859 -0.79375,-0.49742 -0.26106,0.0177 -0.45156,0.20814 -0.29633,0.47625 0.98072,1.68275 1.96497,3.36903 2.94922,5.05178 -0.64558,-0.95956 -1.2947,-1.91206 -1.94381,-2.86808 -0.32102,-0.4692 -1.41464,-0.51506 -0.93486,0.20813" />
      <path
         inkscape:connector-curvature="0"
         id="path236"
         style="fill:#7497c1;fill-opacity:1;fill-rule:nonzero;stroke:none;stroke-width:0.20588516"
         d="m 112.07728,137.24278 c -0.36336,-0.37394 -1.35114,-0.23283 -0.81492,0.34572 2.74461,2.95628 4.91067,6.38528 7.00264,9.81781 2.20133,3.60892 4.34975,7.24253 6.57578,10.83733 0.23636,0.38453 1.10419,0.29281 1.26647,-0.12347 0.0317,-0.0882 0.0706,-0.17639 0.10936,-0.26458 0.12347,-0.27164 -0.15522,-0.45861 -0.47978,-0.52211 -0.42686,-0.70203 -0.85372,-1.40406 -1.28411,-2.10256 0.0388,0.0388 0.0776,0.0776 0.11995,0.11642 0.27164,0.25047 1.48519,0.26458 1.10066,-0.30339 -0.56444,-0.83256 -1.24883,-1.5875 -1.8415,-2.40242 -0.58208,-0.79728 -1.13594,-1.61219 -1.67922,-2.43769 -1.13594,-1.73214 -2.21191,-3.50661 -3.30553,-5.26698 -2.22955,-3.59833 -4.46263,-7.19313 -6.73805,-10.76325 -0.16581,-0.26458 -0.49036,-0.44802 -0.80786,-0.42686 -0.20814,0.0106 -0.56797,0.15523 -0.39864,0.43392 1.09714,1.83092 2.20839,3.65478 3.32317,5.47511 -0.68087,-0.82903 -1.39348,-1.63689 -2.14842,-2.413" />
      <path
         inkscape:connector-curvature="0"
         id="path238"
         style="fill:#7497c1;fill-opacity:1;fill-rule:nonzero;stroke:none;stroke-width:0.20588516"
         d="m 124.54797,153.21656 c 0.30339,0.41628 1.59103,0.20108 1.27,-0.23636 -4.89302,-6.68514 -8.79827,-14.02645 -13.69836,-20.71158 -0.26105,-0.35631 -1.41816,-0.45509 -1.00541,0.13758 4.70958,6.78744 8.57955,14.12169 13.43377,20.81036" />
      <path
         inkscape:connector-curvature="0"
         id="path240"
         style="fill:#7497c1;fill-opacity:1;fill-rule:nonzero;stroke:none;stroke-width:0.20588516"
         d="m 122.93578,146.21745 c -1.15006,-1.73214 -2.30011,-3.46075 -3.45017,-5.19289 -1.16416,-1.75331 -2.33539,-3.49956 -3.50661,-5.24933 -1.18533,-1.77448 -2.33539,-3.60539 -3.65478,-5.28461 -0.24694,-0.31398 -1.3723,-0.56092 -1.00541,0.11288 1.02658,1.89795 2.30364,3.67595 3.4925,5.47511 1.1818,1.79564 2.36714,3.59128 3.55952,5.38692 1.17828,1.77447 2.35656,3.54895 3.53131,5.32342 1.04422,1.57339 2.00378,3.37255 3.44664,4.62139 0.37042,0.32102 1.63336,0.0177 1.13947,-0.40923 -1.49225,-1.28763 -2.46944,-3.16088 -3.55247,-4.78366" />
      <path
         inkscape:connector-curvature="0"
         id="path242"
         style="fill:#7497c1;fill-opacity:1;fill-rule:nonzero;stroke:none;stroke-width:0.20588516"
         d="m 114.29978,131.01625 c -0.67381,-0.79022 -1.37583,-1.55927 -2.12372,-2.29764 -0.1905,-0.18732 -0.56445,-0.46037 -0.85373,-0.33126 -0.26458,0.11783 -0.25752,0.38453 -0.067,0.58808 5.46453,5.79791 8.73831,13.23093 13.91003,19.25991 0.32103,0.37394 1.59456,0.16227 1.15711,-0.34925 -0.36689,-0.43039 -0.72672,-0.86784 -1.07597,-1.31234 0.26106,-0.06 0.42686,-0.21519 0.23283,-0.46919 -4.94947,-6.51933 -8.94997,-13.71953 -13.39144,-20.59376 -0.30691,-0.47413 -1.3723,-0.59231 -0.94191,0.16546 1.02305,1.79493 2.08138,3.57258 3.15383,5.33999" />
      <path
         inkscape:connector-curvature="0"
         id="path244"
         style="fill:#7497c1;fill-opacity:1;fill-rule:nonzero;stroke:none;stroke-width:0.20588516"
         d="m 118.6072,135.04145 c 0.99836,1.53458 1.98966,3.07269 2.98802,4.60728 1.00542,1.54163 1.93323,3.20322 3.05859,4.66372 0.28927,0.37394 1.55575,0.18697 1.2453,-0.34572 -0.13053,-0.21873 -0.26105,-0.43745 -0.39158,-0.65264 0.39511,0.0141 0.8008,-0.11289 0.62442,-0.42686 -0.79728,-1.41817 -1.8662,-2.72345 -2.75873,-4.09223 -0.90664,-1.38994 -1.778,-2.80458 -2.62114,-4.23686 -1.77094,-2.99155 -3.37255,-6.07977 -4.91066,-9.19691 -0.17992,-0.36583 -1.37936,-0.66323 -1.13947,-0.0815 0.85019,2.05669 1.82738,4.06435 2.87161,6.03285 -1.41464,-2.05317 -2.87867,-4.06965 -4.43442,-6.02509 -0.27164,-0.34114 -1.42169,-0.4184 -0.99836,0.17991 2.23308,3.13867 4.36739,6.34612 6.46642,9.57404" />
      <path
         inkscape:connector-curvature="0"
         id="path246"
         style="fill:#7497c1;fill-opacity:1;fill-rule:nonzero;stroke:none;stroke-width:0.20588516"
         d="m 126.65406,140.19553 c -0.067,-0.0811 -0.20109,-0.13053 -0.35631,-0.15522 -0.33161,-0.46214 -0.65617,-0.93133 -0.98072,-1.40053 0.38805,-0.0141 0.77964,-0.18697 0.60678,-0.46567 -1.18181,-1.92969 -2.45886,-3.7853 -3.57011,-5.75733 -1.28412,-2.286 -2.46239,-4.64467 -3.55953,-7.02627 -0.20814,-0.44838 -1.38289,-0.77259 -1.09009,-0.0325 0.42334,1.06327 0.87137,2.11172 1.34762,3.14783 -0.62442,-1.12924 -1.2312,-2.26765 -1.82034,-3.41524 -0.19403,-0.37253 -1.40405,-0.60642 -1.143,-0.0437 2.58586,5.59894 5.81025,10.90824 9.40506,15.91769 0.26458,0.37041 1.05833,0.34219 1.27,-0.0811 0.13758,-0.27517 0.0811,-0.45509 -0.10936,-0.68792" />
      <path
         inkscape:connector-curvature="0"
         id="path248"
         style="fill:#7497c1;fill-opacity:1;fill-rule:nonzero;stroke:none;stroke-width:0.20588516"
         d="m 121.73281,130.59645 c 0.5715,0.97014 1.17122,1.92264 1.79916,2.85397 0.62442,0.93133 1.26295,2.06728 2.09903,2.81869 0.2787,0.25048 1.43933,0.30692 1.1042,-0.29986 -0.51153,-0.93133 -1.28412,-1.76036 -1.89089,-2.63172 -0.67028,-0.95955 -1.30881,-1.94028 -1.91911,-2.94216 -1.19592,-1.97027 -2.22603,-4.02626 -3.26673,-6.0826 -0.13405,-0.26705 -0.43039,-0.55069 -0.75141,-0.55492 -0.28223,-0.004 -0.4445,0.17075 -0.33514,0.4512 0.8643,2.21827 1.95439,4.33811 3.16089,6.3874" />
      <path
         inkscape:connector-curvature="0"
         id="path250"
         style="fill:#7497c1;fill-opacity:1;fill-rule:nonzero;stroke:none;stroke-width:0.20588516"
         d="m 122.84758,129.59456 c 0.39512,0.71614 0.80081,1.42875 1.21709,2.13431 0.31044,0.52916 0.60678,1.04775 1.12889,1.38994 0.30691,0.20108 1.52752,0.007 1.04422,-0.46567 -0.44097,-0.42686 -0.81139,-0.93839 -1.14653,-1.48166 0.42333,0.21519 1.25942,0.0635 1.07597,-0.39511 -0.4198,-1.0407 -0.89252,-2.06658 -1.34761,-3.09351 -0.22225,-0.49636 -0.44803,-0.9899 -0.6738,-1.48414 -0.18345,-0.40181 -0.29634,-0.74789 -0.70203,-0.95814 -0.26458,-0.13653 -0.61383,-0.18803 -0.86078,0.008 l -0.0459,0.0367 c -0.13406,0.1083 -0.0565,0.31432 0.0282,0.42051 l 0.0317,0.0388 c 0.0318,0.0388 0.0847,0.0776 0.1517,0.11394 0.1905,0.34432 0.31044,0.82092 0.4445,1.1483 0.18697,0.45226 0.37747,0.90311 0.56797,1.35325 0.26811,0.62724 0.52211,1.26295 0.79728,1.88736 -0.2152,-0.39158 -0.42334,-0.77964 -0.635,-1.15076 -0.79023,-1.38324 -1.524,-2.79717 -2.33186,-4.17124 -0.14817,-0.25824 -0.45862,-0.52599 -0.77964,-0.51259 -0.28575,0.012 -0.42334,0.19368 -0.30692,0.46849 0.69144,1.61819 1.49225,3.17359 2.34244,4.71346" />
      <path
         inkscape:connector-curvature="0"
         id="path252"
         style="fill:#66afa4;fill-opacity:1;fill-rule:nonzero;stroke:none;stroke-width:0.20588516"
         d="m 94.731199,170.24864 c -0.55387,-0.87133 -1.10773,-1.73923 -1.66159,-2.61056 -0.16228,-0.25037 -0.49036,-0.50091 -0.80786,-0.46923 -0.26458,0.0247 -0.44097,0.22229 -0.28222,0.48687 0.46919,0.76909 0.93839,1.53818 1.40758,2.30713 -0.40569,-0.13053 -0.91016,-0.0564 -0.76553,0.37758 0.41275,1.25938 0.98425,2.68453 1.88737,3.67936 0.25752,0.28579 1.44638,0.33528 1.11477,-0.254 -0.25047,-0.44439 -0.508,-0.87474 -0.75494,-1.31229 0.1905,0.30346 0.38805,0.59616 0.60325,0.87492 0.21167,0.26818 1.43933,0.57506 1.143,-0.0459 -0.508,-1.06189 -1.25236,-2.03909 -1.88383,-3.03389" />
      <path
         inkscape:connector-curvature="0"
         id="path254"
         style="fill:#66afa4;fill-opacity:1;fill-rule:nonzero;stroke:none;stroke-width:0.20588516"
         d="m 95.909469,169.69827 c -0.8255,-1.32637 -1.60161,-2.68457 -2.4518,-3.99345 -0.23284,-0.3562 -1.36172,-0.5891 -1.01247,0.0706 0.70555,1.33354 1.50988,2.61776 2.25425,3.93348 0.70908,1.24893 1.36525,2.57527 2.17663,3.75708 0.22578,0.32455 1.48873,0.37401 1.24178,-0.1269 -0.62441,-1.25952 -1.46755,-2.44838 -2.20839,-3.64077" />
      <path
         inkscape:connector-curvature="0"
         id="path256"
         style="fill:#66afa4;fill-opacity:1;fill-rule:nonzero;stroke:none;stroke-width:0.20588516"
         d="m 92.685079,171.98787 c -0.17286,-0.22931 -0.49388,-0.49389 -0.80786,-0.43036 -0.30056,0.0635 -0.27516,0.36682 -0.13758,0.57492 0.45156,0.68086 0.85019,1.46058 1.38642,2.07434 0.19402,0.22228 0.4833,0.38103 0.79022,0.3634 0.19403,-0.0106 0.49036,-0.15516 0.35278,-0.4057 -0.42334,-0.77953 -1.05128,-1.46759 -1.58398,-2.1766" />
      <path
         inkscape:connector-curvature="0"
         id="path258"
         style="fill:#66afa4;fill-opacity:1;fill-rule:nonzero;stroke:none;stroke-width:0.20588516"
         d="m 96.431579,167.95558 c -1.143,-1.9509 -2.286,-3.90168 -3.47838,-5.82433 -0.25753,-0.41627 -1.46721,-0.61383 -1.08303,0.0882 1.07597,1.97204 2.18722,3.92293 3.30905,5.87023 1.10067,1.91202 2.13784,3.87695 3.30906,5.74668 0.25753,0.40929 1.559281,0.33514 1.28058,-0.17981 -1.04775,-1.93326 -2.22603,-3.80298 -3.33728,-5.70096" />
      <path
         inkscape:connector-curvature="0"
         id="path260"
         style="fill:#66afa4;fill-opacity:1;fill-rule:nonzero;stroke:none;stroke-width:0.20588516"
         d="m 99.356109,170.00871 c -0.71966,-1.08299 -1.37583,-2.20486 -2.03553,-3.32655 -1.32291,-2.24726 -2.68463,-4.49799 -4.5473,-6.35007 -0.1905,-0.18698 -0.56445,-0.45861 -0.85372,-0.33161 -0.26705,0.11994 -0.25294,0.381 -0.067,0.58913 1.77094,1.96498 3.09033,4.27215 4.40619,6.55458 0.62794,1.08299 1.25589,2.16959 1.94028,3.2173 0.67733,1.03368 1.40758,2.17678 2.328331,3.00923 0.32103,0.28924 1.6122,0.20465 1.15358,-0.3598 -0.8008,-0.98778 -1.61572,-1.94028 -2.324801,-3.00221" />
      <path
         inkscape:connector-curvature="0"
         id="path262"
         style="fill:#66afa4;fill-opacity:1;fill-rule:nonzero;stroke:none;stroke-width:0.20588516"
         d="m 106.49633,169.90288 c -0.84666,-1.85551 -2.04258,-3.556 -3.19969,-5.22813 -1.23119,-1.77797 -2.43064,-3.56655 -3.559531,-5.41158 -0.43039,-0.69497 -0.84666,-1.40053 -1.26294,-2.10256 0.51858,0.80434 1.06539,1.59809 1.636891,2.37067 0.61383,0.83256 1.2453,1.651 1.89089,2.45886 0.73377,0.91723 1.44286,1.91912 2.28952,2.73396 0.14111,0.13766 0.50448,0.18355 0.79023,0.13406 0.41627,0.16235 1.28058,0.0106 1.04069,-0.4021 -0.49036,-0.85019 -1.04775,-1.67569 -1.61925,-2.49061 0.4445,0.21166 1.37231,-0.0705 1.08303,-0.47272 -4.41325,-6.14892 -8.572501,-12.45659 -12.618861,-18.84892 -0.23284,-0.37042 -1.3716,-0.56797 -1.00895,0.067 1.71097,3.01625 3.52778,5.97958 5.41514,8.90058 -1.51694,-2.20839 -3.04094,-4.41325 -4.58258,-6.604 -0.31397,-0.44802 -1.42487,-0.59972 -0.94545,0.13406 2.15548,3.31611 4.3427,6.60753 6.5405,9.89542 1.0407,1.55575 2.081391,3.1115 3.122091,4.66725 -0.14111,-0.17639 -0.2787,-0.34925 -0.41628,-0.52564 -1.273531,-1.66159 -2.458861,-3.3902 -3.446641,-5.23875 -0.14111,-0.26459 -0.4445,-0.53975 -0.76553,-0.53975 -0.23636,0.004 -0.42333,0.15522 -0.35278,0.38452 -1.23119,-2.19075 -2.43063,-4.40266 -3.6195,-6.61811 -0.21166,-0.39511 -1.34161,-0.63147 -1.016,0.0141 2.06375,4.05695 4.09928,8.12448 6.42409,12.04031 1.64747,2.76931 3.503081,5.40099 5.214051,8.128 -0.89252,-1.15355 -1.78858,-2.30367 -2.63172,-3.49602 -1.485191,-2.10256 -2.928051,-4.22981 -4.307421,-6.40645 -0.12347,-0.19403 -0.32808,-0.39511 -0.56444,-0.47272 -1.04069,-2.1202 -2.02847,-4.26862 -2.97392,-6.43467 -0.18697,-0.43039 -1.44568,-0.762 -1.19944,-0.13758 1.52753,3.88761 3.29847,7.67291 5.25992,11.35591 0.2293,0.43039 0.45861,0.86078 0.69144,1.29117 -1.53811,-2.49767 -3.00214,-5.04472 -4.40972,-7.61647 -0.14111,-0.26459 -0.44803,-0.53623 -0.76906,-0.5327 -0.26811,0.007 -0.45508,0.1905 -0.3175,0.46214 0.73378,1.48167 1.50284,2.94217 2.30011,4.38503 -0.47625,-0.72672 -0.94897,-1.45345 -1.42875,-2.18017 -0.26458,-0.39864 -1.49754,-0.62441 -1.08655,0.0529 3.35491,5.54567 6.84741,11.00663 10.339911,16.46767 0.23637,0.37042 0.95956,0.2752 1.21356,-0.0283 0.0635,-0.0776 0.10583,-0.15515 0.13406,-0.23273 l 0.0177,0.0175 c 0.28222,0.26459 1.42522,0.28938 1.09714,-0.31394 -0.17639,-0.32811 -0.38806,-0.63842 -0.61031,-0.94547 0.36336,-0.0706 0.68086,-0.29627 0.49742,-0.58209 -1.34761,-2.12009 -2.70934,-4.21912 -4.01109,-6.35702 1.20298,1.73923 2.45181,3.4713 3.82764,5.0588 0.24342,0.28222 1.22767,0.12703 1.24178,-0.21872 0.39864,-0.0177 0.81492,-0.23975 0.65617,-0.58209" />
      <path
         inkscape:connector-curvature="0"
         id="path264"
         style="fill:#66afa4;fill-opacity:1;fill-rule:nonzero;stroke:none;stroke-width:0.20588516"
         d="m 95.038109,145.69181 c 1.00542,1.61572 2.04611,3.21028 3.11856,4.78367 1.04775,1.53458 2.130781,3.04447 3.242031,4.53319 0.57502,0.76906 1.15358,1.53458 1.73919,2.29306 0.58208,0.75141 1.16064,1.7533 1.92617,2.3248 0.28927,0.2152 1.43227,0.30339 1.09714,-0.32455 -0.49037,-0.91723 -1.32292,-1.70392 -1.97203,-2.52237 -0.58209,-0.7373 -1.15359,-1.47813 -1.7145,-2.22955 -1.13242,-1.51342 -2.23309,-3.048 -3.302001,-4.60728 -1.0407,-1.51694 -2.04964,-3.05858 -3.02684,-4.62139 -0.96661,-1.54869 -1.82033,-3.21028 -2.88572,-4.69547 -0.19403,-0.27164 -1.41464,-0.65264 -1.143,-0.0177 0.75847,1.77447 1.90147,3.44664 2.921,5.08353" />
      <path
         inkscape:connector-curvature="0"
         id="path266"
         style="fill:#66afa4;fill-opacity:1;fill-rule:nonzero;stroke:none;stroke-width:0.20588516"
         d="m 98.883389,148.8915 c 1.742721,2.80811 3.912311,5.31284 6.071311,7.80698 0.20108,0.23283 0.5715,0.34572 0.87136,0.26811 0.20461,-0.0494 0.52916,-0.254 0.31397,-0.50095 -2.17311,-2.48708 -4.36386,-4.9918 -6.12422,-7.79991 -0.264591,-0.42334 -0.515061,-0.8502 -0.758481,-1.28059 0.11642,0.18345 0.23284,0.36689 0.34925,0.55034 1.488731,2.286 3.090341,4.57552 4.928311,6.59694 0.31397,0.34925 1.59808,0.21872 1.16417,-0.32103 -1.71098,-2.12725 -3.40431,-4.24039 -4.90714,-6.52639 -1.499311,-2.27541 -2.843391,-4.64608 -4.092221,-7.06261 -0.1905,-0.37394 -1.40406,-0.57855 -1.143,-0.007 0.32808,0.71614 0.6738,1.42875 1.03363,2.13078 -0.51505,-0.79375 -1.07597,-1.55575 -1.72508,-2.27189 -0.34219,-0.37747 -1.33703,-0.31044 -0.83255,0.29986 2.02494,2.45534 3.18558,5.43278 4.85069,8.11742" />
      <path
         inkscape:connector-curvature="0"
         id="path268"
         style="fill:#66afa4;fill-opacity:1;fill-rule:nonzero;stroke:none;stroke-width:0.20588516"
         d="m 104.13272,142.0582 c 0.0494,0.0952 0.0952,0.1905 0.14817,0.28575 -0.0741,-0.0952 -0.14111,-0.19403 -0.21519,-0.29281 z m -3.3408,4.85069 c 1.23119,1.98967 2.44475,4.04989 3.85939,5.91609 0.28575,0.37747 1.53458,0.30338 1.17122,-0.29634 -0.0953,-0.15875 -0.19756,-0.3175 -0.29633,-0.47978 0.43038,0.13406 0.94544,0.10231 0.7373,-0.3563 -0.32455,-0.70908 -0.70203,-1.40406 -1.10419,-2.09197 0.43039,0.14464 1.12536,0.0423 0.9525,-0.32103 -0.34573,-0.71967 -0.71261,-1.43228 -1.09361,-2.13783 0.43391,0.21872 1.17475,0.22225 0.94897,-0.29634 -0.29986,-0.69144 -0.65617,-1.36878 -1.05128,-2.032 0.43744,0.23636 1.20297,0.22225 0.86078,-0.35278 -0.14817,-0.25047 -0.31045,-0.49388 -0.47625,-0.73377 0.1658,0.1023 0.35983,0.16227 0.53975,0.13052 0.18344,-0.0282 0.43039,-0.28927 0.21872,-0.47272 -0.127,-0.11289 -0.26458,-0.39511 -0.36689,-0.54328 -0.0811,-0.12347 -0.16228,-0.24341 -0.23989,-0.36688 -0.1658,-0.26459 -0.32103,-0.5327 -0.46919,-0.80787 -0.11642,-0.22225 -0.32809,-0.42333 -0.57503,-0.50094 -0.12347,-0.20814 -0.35631,-0.37042 -0.5715,-0.42686 -0.0494,-0.0141 -0.10231,-0.0212 -0.15522,-0.0212 l -0.0247,-0.0247 c -0.19756,-0.21872 -0.55033,-0.42333 -0.85372,-0.33161 -0.29634,0.0882 -0.22578,0.40217 -0.067,0.58561 0.0988,0.11642 0.19755,0.23636 0.29986,0.35278 -0.23989,0.0705 -0.26106,0.34572 -0.127,0.55033 0.0564,0.0847 0.10936,0.16934 0.1658,0.25753 -0.24341,-0.32456 -0.49036,-0.63853 -0.73377,-0.94897 -0.25048,-0.3175 -0.89253,-0.37747 -0.95603,-0.0776 -0.16581,-0.26811 -0.33514,-0.5327 -0.50447,-0.80081 -0.30339,-0.47978 -1.397001,-0.5715 -0.941921,0.16581 1.442861,2.32833 2.716391,4.74486 3.989921,7.16139 -0.26812,-0.42334 -0.53975,-0.84314 -0.80081,-1.26295 -1.16417,-1.86267 -2.36361,-3.70769 -3.587751,-5.53508 -0.24694,-0.37042 -1.39347,-0.49742 -1.00894,0.11641 1.15711,1.82739 2.289521,3.66889 3.393721,5.53156 0.2928,0.49742 0.58914,0.99131 0.88194,1.48872 -0.254,-0.38453 -0.508,-0.76905 -0.75494,-1.15711 -1.27353,-2.0073 -2.525891,-4.02519 -3.739451,-6.06778 -0.254,-0.42333 -1.47108,-0.62794 -1.08655,0.0635 1.143,2.07081 2.32128,4.11692 3.566581,6.12423" />
      <path
         inkscape:connector-curvature="0"
         id="path270"
         style="fill:#4c76a8;fill-opacity:1;fill-rule:nonzero;stroke:none;stroke-width:0.20588516"
         d="m 74.024909,172.12196 c -0.25506,-0.90661 -0.50977,-1.81339 -0.77082,-2.71999 -0.139,-0.48327 -1.42699,-0.69854 -1.28341,-0.14468 0.27728,1.07252 0.54716,2.14849 0.85655,3.21028 0.22648,0.77968 0.51928,1.62292 1.20755,2.10619 0.2025,0.14111 1.38183,0.34576 1.02835,-0.2293 -0.45297,-0.74084 -0.8001,-1.37943 -1.03822,-2.2225" />
      <path
         inkscape:connector-curvature="0"
         id="path272"
         style="fill:#4c76a8;fill-opacity:1;fill-rule:nonzero;stroke:none;stroke-width:0.20588516"
         d="m 77.780579,170.46732 c -0.49742,-1.11125 -1.00754,-2.21544 -1.52929,-3.31611 -1.02306,-2.15536 -2.09938,-4.28618 -3.20393,-6.40285 -0.26282,-0.50447 -1.34514,-0.69144 -0.9518,0.0811 0.80469,1.58398 1.5808,3.18206 2.33469,4.79073 -0.39088,-0.80793 -0.79834,-1.60867 -1.22132,-2.40242 -0.26599,-0.49742 -1.3529,-0.6985 -0.95285,0.0741 0.97896,1.88377 1.8609,3.82062 2.62749,5.8032 0.23847,0.61736 0.44026,1.28062 0.65264,1.95089 -0.0885,-0.22228 -0.1771,-0.44457 -0.26776,-0.66326 -0.55069,-1.33353 -1.08197,-2.67765 -1.60761,-4.02166 -0.17992,-0.46221 -1.3529,-0.87492 -1.08056,-0.14111 0.53834,1.45701 1.0922,2.91041 1.65594,4.3568 0.50271,1.2911 0.91299,2.76931 1.84397,3.82764 0.21978,0.25055 0.97014,0.34918 1.07315,0.0812 0.38947,0.30329 1.37901,0.41974 0.98919,-0.21526 -1.05022,-1.70395 -1.56175,-3.71821 -2.32445,-5.56687 -0.14923,-0.3598 -0.30375,-0.7196 -0.46073,-1.07597 0.39334,0.8643 0.78069,1.73221 1.16134,2.59997 0.50377,1.15009 0.9211,2.37779 1.52224,3.47842 0.17709,0.3211 1.34232,0.71618 1.14159,0.0671 -0.35102,-1.13248 -0.91723,-2.2261 -1.40194,-3.30566" />
      <path
         inkscape:connector-curvature="0"
         id="path274"
         style="fill:#4c76a8;fill-opacity:1;fill-rule:nonzero;stroke:none;stroke-width:0.20588516"
         d="m 78.664289,169.44085 c -0.62195,-1.24534 -1.2245,-2.5013 -1.80693,-3.7677 -1.25201,-2.72345 -2.42676,-5.47865 -3.50485,-8.27617 -0.18097,-0.4692 -1.36102,-0.8255 -1.08585,-0.0917 1.03928,2.78341 2.15794,5.53508 3.38878,8.2374 1.20404,2.64223 2.40842,5.38328 3.92007,7.86334 0.19756,0.32452 1.41182,0.62798 1.14335,0.0317 -0.61454,-1.35819 -1.38782,-2.65991 -2.05457,-3.99686" />
      <path
         inkscape:connector-curvature="0"
         id="path276"
         style="fill:#4c76a8;fill-opacity:1;fill-rule:nonzero;stroke:none;stroke-width:0.20588516"
         d="m 78.291049,164.35376 c -1.57057,-3.12562 -3.10057,-6.27592 -4.28061,-9.5744 -0.1651,-0.46213 -1.32045,-0.93133 -1.0735,-0.18344 2.25637,6.81567 5.80178,13.17265 9.00395,19.57917 0.22048,0.43737 1.4986,0.39508 1.18956,-0.21869 -1.61078,-3.20326 -3.22968,-6.39949 -4.8394,-9.60264" />
      <path
         inkscape:connector-curvature="0"
         id="path278"
         style="fill:#4c76a8;fill-opacity:1;fill-rule:nonzero;stroke:none;stroke-width:0.20588516"
         d="m 82.306009,169.41619 c -0.89112,-1.70395 -1.7459,-3.42914 -2.5534,-5.17532 -1.54447,-3.33728 -2.94605,-6.74512 -4.16278,-10.21645 -0.16651,-0.47272 -1.32997,-0.86431 -1.08374,-0.11642 1.17828,3.5807 2.51602,7.09789 4.05977,10.53395 1.50954,3.3655 3.12914,6.8157 5.13997,9.91312 0.22508,0.34559 1.48308,0.33155 1.23614,-0.15532 -0.82233,-1.62278 -1.79247,-3.1714 -2.63596,-4.78356" />
      <path
         inkscape:connector-curvature="0"
         id="path280"
         style="fill:#4c76a8;fill-opacity:1;fill-rule:nonzero;stroke:none;stroke-width:0.20588516"
         d="m 85.634469,171.04598 c -0.0875,-0.14111 -0.17216,-0.28581 -0.25894,-0.42693 0.2159,0.25055 1.47461,0.47985 1.23966,-0.0918 -0.55351,-1.33699 -1.40406,-2.59291 -2.06304,-3.88761 -0.64629,-1.27342 -1.26083,-2.56109 -1.84221,-3.85932 -1.1624,-2.6035 -2.1844,-5.2705 -3.08363,-7.9763 -0.14958,-0.44803 -1.38253,-0.85725 -1.18992,-0.21167 0.84773,2.84339 1.85879,5.63033 3.03742,8.35378 0.57996,1.34056 1.19909,2.66344 1.85702,3.96515 0.32738,0.64918 0.66322,1.2912 1.00824,1.9298 0.0522,0.0952 0.10336,0.19403 0.15487,0.29626 -0.0688,-0.11987 -0.13935,-0.23632 -0.20743,-0.35633 -0.87313,-1.524 -1.69404,-3.07965 -2.46204,-4.66013 -1.53211,-3.15384 -2.86985,-6.40645 -4.0005,-9.72609 -0.0998,-0.2928 -0.38664,-0.54327 -0.69744,-0.59266 -0.21237,-0.0353 -0.58173,0.0282 -0.48507,0.33866 1.07597,3.46075 2.38372,6.84389 3.94935,10.11415 0.77081,1.60859 1.59631,3.19267 2.47438,4.74831 0.43921,0.77612 0.89112,1.54521 1.35643,2.30728 0.44732,0.73367 0.86395,1.61561 1.4799,2.2189 0.26811,0.26102 1.39489,0.41271 1.12007,-0.22931 -0.33937,-0.79375 -0.93239,-1.5205 -1.38712,-2.25418" />
      <path
         inkscape:connector-curvature="0"
         id="path282"
         style="fill:#4c76a8;fill-opacity:1;fill-rule:nonzero;stroke:none;stroke-width:0.20588516"
         d="m 87.554989,168.3683 c -1.56598,-1.9014 -2.57563,-4.14154 -3.45898,-6.42402 -0.96944,-2.50472 -1.90712,-5.02003 -2.87726,-7.52475 -0.11218,-0.28928 -0.40252,-0.52917 -0.71649,-0.56797 -0.21167,-0.0282 -0.58209,0.0459 -0.47343,0.3563 0.95391,2.70228 1.88666,5.41867 2.91148,8.09978 0.87241,2.27891 1.89441,4.51203 3.45616,6.41001 0.31362,0.37744 1.5875,0.17279 1.15852,-0.34935" />
      <path
         inkscape:connector-curvature="0"
         id="path284"
         style="fill:#4c76a8;fill-opacity:1;fill-rule:nonzero;stroke:none;stroke-width:0.20588516"
         d="m 83.393619,158.73753 c 0.59549,1.60867 1.0795,3.38667 1.8849,4.90009 0.18132,0.33866 1.40335,0.54328 1.24565,-0.0212 -0.35419,-1.26295 -0.89076,-2.5012 -1.40264,-3.72534 0.34325,0.28928 1.25554,0.41981 1.12924,-0.0388 -0.1785,-0.65264 -0.3877,-1.30881 -0.6156,-1.95792 0.28505,0.29986 1.25201,0.63853 1.08021,0.0282 -0.27129,-0.96308 -0.70379,-1.8803 -0.97014,-2.85397 -0.084,-0.30691 -0.34078,-0.55739 -0.65017,-0.64205 -0.2099,-0.06 -0.58067,-0.0141 -0.50941,0.29986 0.0769,0.33866 0.15699,0.68791 0.24659,1.04069 -0.14993,-0.37747 -0.30092,-0.74789 -0.45226,-1.11478 -0.14358,-0.35277 -1.29328,-0.83961 -1.12465,-0.20461 0.29915,1.12184 0.64452,2.26484 1.03363,3.38314 -0.51188,-1.27705 -1.02693,-2.55411 -1.54798,-3.83116 -0.18945,-0.46214 -1.35326,-0.79023 -1.08903,-0.0423 0.56515,1.59808 1.15288,3.18911 1.74166,4.78013" />
      <path
         inkscape:connector-curvature="0"
         id="path286"
         style="fill:#42a068;fill-opacity:1;fill-rule:nonzero;stroke:none;stroke-width:0.20588516"
         d="m 125.73683,101.14303 -0.0459,0.024 c -0.10936,0.0169 -0.20108,0.0603 -0.26105,0.13159 -1.90147,0.97155 -3.85234,1.84608 -5.81025,2.7058 -1.58045,0.69462 -3.33375,1.27353 -4.826,2.14207 -0.94545,0.55069 0.0564,1.16593 0.78669,0.70697 0.79728,-0.50271 1.85561,-0.80469 2.72345,-1.17616 0.81844,-0.35102 1.64041,-0.69921 2.45886,-1.05022 0.96661,-0.41416 1.93675,-0.83926 2.91747,-1.2439 -3.37608,3.75074 -6.72394,7.52581 -10.04711,11.32382 -1.82386,2.08809 -3.6442,4.18394 -5.45042,6.28791 -0.86783,1.00577 -1.72861,2.01365 -2.58939,3.0233 -0.35983,0.42016 -0.70202,0.91793 -1.15358,1.24425 -0.76906,0.55915 -1.42875,-0.25753 -1.91206,-0.80363 -2.48708,-2.8194 -4.272131,-6.93667 -8.621881,-6.9349 -4.74028,0.002 -8.33473,4.27919 -11.35239,7.3727 -2.15583,2.2098 -4.3173,4.41219 -6.47524,6.62058 -2.20204,2.25425 -4.36598,4.57905 -6.70313,6.69219 -0.50518,0.45861 0.97755,1.27353 1.43651,0.75495 3.77508,-4.2792 7.83978,-8.31497 11.79654,-12.4266 1.80022,-1.87007 3.53907,-3.8608 5.54567,-5.51533 1.84326,-1.52012 4.22098,-2.95063 6.68337,-2.12619 1.85208,0.62054 3.1115,2.21192 4.22628,3.72957 0.56797,0.76905 1.111251,1.55363 1.721551,2.29094 0.58209,0.70837 1.24531,1.58785 2.20839,1.7339 2.16958,0.32738 3.75708,-2.31493 4.93183,-3.69499 1.80975,-2.12267 3.62656,-4.23792 5.45042,-6.34542 3.83822,-4.42877 7.71878,-8.81662 11.63814,-13.17237 -0.51858,3.00708 -1.04069,6.0131 -1.61219,9.01206 -0.13759,0.72708 1.49225,0.54681 1.62277,-0.0836 0.69145,-3.38172 1.34409,-6.77792 1.87325,-10.19034 0.57503,-0.29386 -0.56797,-1.33985 -1.16064,-1.03293" />
      <path
         inkscape:connector-curvature="0"
         id="path288"
         style="fill:#1f1e21;fill-opacity:1;fill-rule:nonzero;stroke:none;stroke-width:0.20588516"
         d="m 84.306609,154.51831 c 0.44944,0 0.89888,0 1.34832,0 0,5.78555 0,11.57457 0,17.36372 0,0.56804 0,1.13591 0,1.70036 -3.76237,0 -7.5244,0 -11.28677,0 -0.44944,0 -0.89888,0 -1.34832,0 0,-5.78912 0,-11.57461 0,-17.36369 0,-0.56797 0,-1.13595 0,-1.70039 3.76238,0 7.5244,0 11.28677,0 z m -12.09287,20.05887 c 4.03084,0 8.06203,0 12.09287,0 0.56939,0 1.13877,0 1.70815,0 0.26141,0 0.57821,-0.26458 0.71896,-0.51854 0.0533,-0.0846 0.0871,-0.16937 0.0871,-0.25757 0,-5.85953 0,-11.72273 0,-17.58237 0,-0.8255 0,-1.651 0,-2.4765 0,-0.17992 -0.23106,-0.21872 -0.35947,-0.21872 -4.0312,0 -8.06203,0 -12.09323,0 -0.56938,0 -1.13841,0 -1.70779,0 -0.393,0 -0.80645,0.38452 -0.80645,0.77258 0,5.86317 0,11.72284 0,17.58597 0,0.82543 0,1.65104 0,2.47647 0,0.17998 0.23107,0.21868 0.35983,0.21868" />
      <path
         inkscape:connector-curvature="0"
         id="path290"
         style="fill:#1f1e21;fill-opacity:1;fill-rule:nonzero;stroke:none;stroke-width:0.20588516"
         d="m 103.98103,141.09864 c 0.44803,0 0.89958,0 1.34761,0 0,3.70417 0,7.40834 0,11.11603 0,5.99722 0,11.99445 0,17.99167 0,1.12529 0,2.25076 0,3.37605 -3.76061,0 -7.524751,0 -11.285361,0 -0.45156,0 -0.89958,0 -1.35114,0 0,-3.70417 0,-7.4119 0,-11.116 0,-5.99722 0,-11.99444 0,-17.99166 0,-1.12537 0,-2.25073 0,-3.37609 3.76414,0 7.524751,0 11.288891,0 z m -12.093221,33.47854 c 4.03225,0 8.06097,0 12.093221,0 0.56797,0 1.13947,0 1.70744,0 0.26106,0 0.57856,-0.26458 0.71967,-0.51854 0.0529,-0.0846 0.0882,-0.16937 0.0882,-0.25757 0,-3.77814 0,-7.55646 0,-11.33468 0,-5.99722 0,-11.99444 0,-17.99166 0,-1.38289 0,-2.76931 0,-4.1522 0,-0.17992 -0.23283,-0.21872 -0.35983,-0.21872 -4.03225,0 -8.064501,0 -12.093221,0 -0.5715,0 -1.13948,0 -1.71098,0 -0.39158,0 -0.80468,0.38453 -0.80468,0.77258 0,3.78178 0,7.56003 0,11.33828 0,5.99722 0,11.99445 0,17.99167 0,1.38285 0,2.7657 0,4.15216 0,0.17998 0.23318,0.21868 0.36018,0.21868" />
      <path
         inkscape:connector-curvature="0"
         id="path292"
         style="fill:#1f1e21;fill-opacity:1;fill-rule:nonzero;stroke:none;stroke-width:0.20588516"
         d="m 123.65545,125.62334 c 0.44802,0 0.89605,0 1.34761,0 0,5.467 0,10.93152 0,16.39605 0,8.763 0,17.52953 0,26.29599 0,1.75687 0,3.51014 0,5.26701 -3.76414,0 -7.52475,0 -11.28889,0 -0.44803,0 -0.89606,0 -1.34761,0 0,-5.46446 0,-10.92903 0,-16.39355 0,-8.76653 0,-17.52953 0,-26.29606 0,-1.75648 0,-3.51296 0,-5.26944 3.76414,0 7.52475,0 11.28889,0 z m -12.09323,48.95384 c 4.02873,0 8.06098,0 12.09323,0 0.56797,0 1.13594,0 1.70744,0 0.26106,0 0.57856,-0.26458 0.71967,-0.51854 0.0529,-0.0846 0.0847,-0.16937 0.0847,-0.25757 0,-5.53501 0,-11.07362 0,-16.61223 0,-8.76653 0,-17.52953 0,-26.29606 0,-2.01471 0,-4.02907 0,-6.04343 0,-0.18027 -0.22931,-0.21979 -0.35984,-0.21979 -4.02872,0 -8.06097,0 -12.09322,0 -0.56797,0 -1.13594,0 -1.70744,0 -0.39159,0 -0.80434,0.3863 -0.80434,0.77435 0,5.53826 0,11.07687 0,16.61548 0,8.763 0,17.52953 0,26.29599 0,2.01443 0,4.02872 0,6.04312 0,0.17998 0.22931,0.21868 0.35984,0.21868" />
      <path
         inkscape:connector-curvature="0"
         id="path294"
         style="fill:#1f1e21;fill-opacity:1;fill-rule:nonzero;stroke:none;stroke-width:0.20588516"
         d="m 141.76705,181.10015 c -0.0388,-0.0142 -0.0741,-0.0319 -0.10936,-0.0459 -0.20461,-0.0846 -0.50447,0.0353 -0.7232,0.21527 l -0.0459,-0.007 c -0.0776,-0.17639 -0.39511,-0.29987 -0.62441,-0.34216 0.25752,-0.11646 0.40922,-0.32107 0.20108,-0.52215 l -0.0106,-0.0104 c 0.47625,0.22211 0.95603,0.43737 1.43933,0.64544 -0.0423,0.0248 -0.0847,0.0459 -0.127,0.0671 z m -4.28978,1.54161 c 0.0811,-0.39166 0.1517,-0.78314 0.21167,-1.17835 0.13053,0.15529 0.28575,0.2964 0.46567,0.41987 0.17286,0.11645 0.45155,0.20465 0.69497,0.18341 0.19403,0.0389 0.38805,0.0529 0.58561,0.0423 -0.63853,0.21887 -1.29117,0.39868 -1.95792,0.53277 z m -0.0318,-3.78877 c 0.45509,0.25397 0.91722,0.49731 1.38289,0.73724 -0.14464,0.0106 -0.28575,0.0459 -0.43039,0.11645 l -0.0882,0.0529 c -0.21872,-0.13769 -0.56444,-0.17999 -0.80786,-0.10241 -0.0459,-0.0247 -0.0952,-0.0459 -0.14464,-0.0634 0.0247,-0.24709 0.0529,-0.49403 0.0882,-0.74083 z M 62.344029,116.52873 c 0.22155,-0.61595 0.42757,-1.23755 0.61913,-1.86373 -0.0254,0.59514 -0.0494,1.18992 -0.0723,1.78471 -0.18274,0.0215 -0.36548,0.0476 -0.54681,0.079 z m 1.83621,-1.47391 c 0.16757,0.45085 0.33584,0.901 0.50518,1.35044 -0.17921,-0.0123 -0.35878,-0.0194 -0.53799,-0.0215 0.0106,-0.44274 0.0215,-0.88583 0.0328,-1.32892 z m 78.920261,65.622 c -1.97203,-0.79033 -3.90878,-1.72861 -5.70089,-2.87172 -0.27869,-0.17981 -1.06539,-0.32794 -1.15005,0.15875 -0.1517,0.84325 -0.23989,1.68991 -0.27164,2.5436 -5.34106,0.0776 -10.68564,-0.0952 -16.01964,-0.13049 -10.25877,-0.0671 -20.517551,-0.0741 -30.781271,-0.0247 -8.55415,0.0423 -17.11501,0.22211 -25.67022,0.29266 -0.0808,-4.00745 -0.0501,-8.02911 -0.0656,-12.03314 -0.067,-17.12387 0.26882,-34.23359 0.68474,-51.34896 0.31009,-0.008 0.62195,7.1e-4 0.93627,0.0226 0.10725,0.0833 0.27623,0.0893 0.45226,0.0413 l 0.0801,0.008 c 0.48648,0.0572 0.60924,-0.17251 0.50976,-0.40711 0.0688,-0.10759 0.0977,-0.22436 0.0557,-0.33972 -0.72708,-1.98547 -1.47108,-3.96879 -2.24825,-5.93552 -0.17428,-0.44168 -1.19345,-0.47449 -1.3014,0.0282 -0.46849,2.17981 -1.06574,4.30918 -1.87255,6.38951 -0.17286,0.44626 0.73943,0.65369 1.01212,0.5715 0.36901,-0.11113 0.73696,-0.19403 1.1049,-0.25577 -0.14393,3.91337 -0.24659,7.82814 -0.3436,11.74256 -0.22472,9.06357 -0.34925,18.12643 -0.38347,27.18929 -0.0307,8.11389 0.10477,16.22422 0.14499,24.33811 -1.43827,0.0106 -2.87584,0.0177 -4.31341,0.0177 -0.8502,0 -0.49777,0.92784 0.16545,0.9102 1.38359,-0.0423 2.76684,-0.0742 4.15008,-0.10237 0.004,0.85725 0.007,1.71453 0.008,2.57182 7.1e-4,0.58208 1.34373,0.56804 1.3215,0 -0.0339,-0.86431 -0.0586,-1.72501 -0.0794,-2.59292 4.03013,-0.0635 8.05956,-0.0847 12.08722,-0.12347 10.22985,-0.10224 20.45935,-0.14471 30.682851,-0.1305 5.11528,0.007 10.23055,0.0283 15.34583,0.067 2.55764,0.0177 5.11528,0.0389 7.66939,0.0635 2.21544,0.0247 4.44499,-0.014 6.65691,0.0988 0.004,0.13395 0.007,0.26459 0.0106,0.39508 0.004,0.15173 0.11642,0.23992 0.27164,0.28582 -0.067,0.30688 -0.13758,0.61376 -0.21872,0.92065 -0.127,0.47984 0.65616,0.66325 0.98072,0.62438 1.68275,-0.21509 3.31258,-0.68086 4.84011,-1.38642 0.06,0.0106 0.11994,0.0212 0.17992,0.0353 0.23989,0.0495 1.22061,-0.28568 0.91369,-0.59256 0.17286,-0.0952 0.34572,-0.19403 0.51506,-0.29644 0.43391,-0.26099 -0.0988,-0.63843 -0.35984,-0.74426" />
    </g>
  </g>
</svg>
