<?xml version="1.0" encoding="UTF-8" standalone="no"?>
<!-- Created with Inkscape (http://www.inkscape.org/) -->

<svg
   xmlns:dc="http://purl.org/dc/elements/1.1/"
   xmlns:cc="http://creativecommons.org/ns#"
   xmlns:rdf="http://www.w3.org/1999/02/22-rdf-syntax-ns#"
   xmlns:svg="http://www.w3.org/2000/svg"
   xmlns="http://www.w3.org/2000/svg"
   xmlns:sodipodi="http://sodipodi.sourceforge.net/DTD/sodipodi-0.dtd"
   xmlns:inkscape="http://www.inkscape.org/namespaces/inkscape"
   width="60"
   height="60"
   viewBox="0 0 15.875 15.875"
   version="1.1"
   id="svg2998"
   inkscape:version="0.92.3 (2405546, 2018-03-11)"
   sodipodi:docname="scheme.svg">
  <defs
     id="defs2992" />
  <sodipodi:namedview
     id="base"
     pagecolor="#ffffff"
     bordercolor="#666666"
     borderopacity="1.0"
     inkscape:pageopacity="0.0"
     inkscape:pageshadow="2"
     inkscape:zoom="7.2911747"
     inkscape:cx="25.714402"
     inkscape:cy="28.571382"
     inkscape:document-units="px"
     inkscape:current-layer="layer1"
     showgrid="false"
     units="px"
     inkscape:window-width="1890"
     inkscape:window-height="1052"
     inkscape:window-x="30"
     inkscape:window-y="0"
     inkscape:window-maximized="1" />
  <metadata
     id="metadata2995">
    <rdf:RDF>
      <cc:Work
         rdf:about="">
        <dc:format>image/svg+xml</dc:format>
        <dc:type
           rdf:resource="http://purl.org/dc/dcmitype/StillImage" />
        <dc:title></dc:title>
      </cc:Work>
    </rdf:RDF>
  </metadata>
  <g
     inkscape:label="Layer 1"
     inkscape:groupmode="layer"
     id="layer1"
     transform="translate(0,-281.12499)">
    <g
       id="g2972"
       transform="matrix(0.00679892,0,0,-0.00679892,-53.877653,270.77793)"
       style="stroke-width:5.18873453">
      <path
         inkscape:connector-curvature="0"
         id="path154"
         style="fill:#547cb5;fill-opacity:1;fill-rule:nonzero;stroke:none;stroke-width:5.18873453"
         d="m 9191.9293,-2504.8288 c -40.05,76.53 -77.74,153.68 -114.35,231.88 -2.7,6.11 -5.5,12.18 -8.5,18.18 -6.27,12.51 -44.2,19.15 -36.25,-0.15 8.78,-21.33 17.96,-42.61 27.43,-63.79 4.35,-12.99 8.3,-26.15 12.2,-39.23 -4.35,4.51 -9.92,7.96 -16.04,8.1 -7.97,0.19 -13.92,-5.04 -10.12,-13.42 4.96,-10.94 10.04,-21.84 15.12,-32.74 -12,6.68 -30.82,4.28 -19.53,-11.88 7.05,-10.09 13.8,-20.4 20.23,-30.9 -4.08,-0.94 -6.2,-4.43 -3.74,-11.81 4.49,-13.57 8.73,-27.29 13.03,-41.01 -4.6,2.3 -9.51,3.33 -13.62,2.08 -2.81,-0.37 -6.23,-1.39 -7.36,-3.98 -5.63,-12.93 3.47,-25.81 8.04,-38.04 6.19,-16.52 10.16,-33.52 15.53,-50.27 3.75,-11.68 39.91,-20.21 37.18,-3.48 -0.94,5.82 -2.26,11.49 -3.79,17.07 11.95,-5.37 26.51,-5.67 22.43,7.37 -0.62,1.98 -1.29,3.95 -1.93,5.92 10.1,-3.18 21,-2.25 19.46,8.31 10.15,-2.38 19.51,-0.3 16.08,10.92 -2.95,9.68 -5.99,19.32 -8.98,28.98 2.99,-5.37 5.94,-10.77 8.96,-16.12 5.6,-9.88 23.72,-14.2 33.24,-8.13 4.42,2.83 5.48,3.99 8.13,8.88 3.52,6.48 -3.74,13.56 -12.85,17.26" />
      <path
         inkscape:connector-curvature="0"
         id="path156"
         style="fill:#547cb5;fill-opacity:1;fill-rule:nonzero;stroke:none;stroke-width:5.18873453"
         d="m 9202.5493,-2429.4788 c -13.92,27.51 -27.26,55.31 -40.04,83.37 -25.46,55.91 -48.65,112.85 -69.75,170.54 -4.94,13.5 -42.39,24.19 -35.87,5.26 20.21,-58.76 42.67,-116.66 67.74,-173.52 12.2,-27.68 24.95,-55.12 38.25,-82.29 13.87,-28.34 26.72,-59.67 45.48,-85.09 6.98,-9.46 41.74,-14.01 33.97,4.65 -11.05,26.5 -26.82,51.44 -39.78,77.08" />
      <path
         inkscape:connector-curvature="0"
         id="path158"
         style="fill:#547cb5;fill-opacity:1;fill-rule:nonzero;stroke:none;stroke-width:5.18873453"
         d="m 9116.6093,-2045.9388 c -1.51,3.44 -5.29,6.21 -9.93,8.14 -12.92,33.83 -25.41,67.77 -36.45,102.38 -4.64,14.54 -43.45,19.9 -38.52,3.89 15.94,-51.85 33.11,-103.98 54.84,-153.74 1.01,-2.29 3.56,-4.63 6.87,-6.7 1.69,-4.84 3.36,-9.71 5.08,-14.55 -12.86,6.25 -31.29,5.79 -22.81,-9.7 69.59,-127.18 98.26,-276.69 197.49,-386.74 5.88,-6.53 15.15,-9.4 23.82,-8.23 4.83,0.64 17.19,4.7 13.3,12.29 -26.58,51.92 -52.26,104.26 -76.63,157.16 20.93,-32.38 42.91,-63.99 66.03,-94.56 8.71,-11.5 46.99,-8.48 35.25,8.48 -84.01,121.43 -158.7,246.55 -218.34,381.88" />
      <path
         inkscape:connector-curvature="0"
         id="path160"
         style="fill:#547cb5;fill-opacity:1;fill-rule:nonzero;stroke:none;stroke-width:5.18873453"
         d="m 9315.8693,-2227.2888 c -29.78,46.48 -56.39,94.9 -81.67,143.95 -51.98,100.84 -97.89,204.64 -149.64,305.6 -5.85,11.41 -42.28,17.18 -34.28,0.56 10.9,-22.63 21.54,-45.38 32.09,-68.18 -11.68,6.93 -30.5,9.1 -25.83,-3.88 36.09,-100.27 78.19,-198.09 126.54,-293.06 21.58,-42.4 44.26,-84.22 68.06,-125.4 13.52,-23.37 27.37,-46.54 41.57,-69.49 12.73,-20.57 24.69,-46.55 42.58,-62.95 7.72,-7.08 41.9,-14.21 33.79,5.76 -8.39,20.7 -23.84,39.48 -35.8,58.41 -20.46,32.39 -40.22,65.24 -59.26,98.49 -23.02,40.16 -45.06,80.86 -66.03,122.13 -28.72,56.54 -55.75,114.06 -80.82,172.39 23.23,-50.62 46.73,-101.1 71.87,-150.79 25.74,-50.9 53.55,-100.84 84.55,-148.74 30.15,-46.59 63.36,-99.41 105.42,-136.11 8.9,-7.76 44.27,-3.64 32.02,12.25 -35.73,46.34 -73.44,89.53 -105.16,139.06" />
      <path
         inkscape:connector-curvature="0"
         id="path162"
         style="fill:#547cb5;fill-opacity:1;fill-rule:nonzero;stroke:none;stroke-width:5.18873453"
         d="m 9361.7193,-1987.6888 c 1.67,-2.01 3.34,-4.05 5.02,-6.02 5.11,-6.01 13.42,-11.85 21.84,-11.96 31.67,-70.35 63.42,-140.66 95.25,-210.93 -39.14,77.14 -79.88,153.44 -122.11,228.91 z m 38.79,-271.28 c -36.11,54.17 -70.25,109.55 -102.69,165.91 9.43,-2.18 20.43,-1.42 22.51,3.66 27.41,-56.16 54.29,-112.58 80.18,-169.57 z m -191.1,391.15 c 34.21,-67.27 68.25,-134.53 101.49,-202.2 -21.05,33.23 -41.53,66.68 -59.12,101.97 -16.24,32.61 -29.51,66.27 -42.37,100.23 z m 112.81,81.58 c -6.33,13.49 -42.26,22.86 -32.64,1.32 20.61,-46.14 41.33,-92.23 62.03,-138.33 -6.82,10.26 -13.46,20.65 -19.77,31.28 -19.76,33.29 -34.91,68.48 -52.75,102.7 -6.14,11.8 -40.18,26.89 -32.52,3.1 0.99,-3.04 2.06,-6.08 3.11,-9.13 -6.39,10.54 -43.77,10.47 -37.02,-4.88 4.69,-10.64 9.3,-21.32 13.95,-31.97 -14.23,25.2 -28.67,50.27 -43.42,75.14 -8.55,14.45 -40.34,19.99 -28.45,-3.4 11.73,-23.09 23.48,-46.15 35.22,-69.2 -3.92,2.4 -8.08,3.84 -11.8,3.67 -3.22,0.27 -6.23,-0.35 -7.84,-3.06 -2.47,-4.16 -3.06,-9.25 -2.58,-14.72 -11.55,24.39 -22.88,48.89 -33.96,73.51 -5.84,12.99 -41.06,26.12 -32.45,3.81 76.7,-198.54 180.73,-385.16 302.84,-559.32 4.78,-6.82 18.89,-7.88 28.21,-4.5 7.79,-12.39 43.97,-9.54 37.67,6.6 -32,82.02 -65.11,163.63 -98.96,244.94 40.61,-75.6 79.8,-151.96 117.37,-229.12 6.76,-13.87 45.94,-10.47 38.41,4.96 -2.42,4.95 -4.91,9.86 -7.34,14.8 12.85,-7.17 38.25,-4.31 32.5,8.15 -76.1,164.79 -152.65,329.35 -229.81,493.65" />
      <path
         inkscape:connector-curvature="0"
         id="path164"
         style="fill:#547cb5;fill-opacity:1;fill-rule:nonzero;stroke:none;stroke-width:5.18873453"
         d="m 9743.6893,-2145.2388 c -16.12,33.76 -37.76,65.72 -56.78,97.95 -7.43,12.58 -43.97,20.05 -32.66,-0.82 12.51,-23.06 24.25,-47.16 37.26,-70.27 -41.83,50.08 -75.5,107.78 -112.73,161.07 -6.1,8.74 -42.92,18.36 -34.28,0.23 10.95,-22.99 21.1,-46.34 31.09,-69.76 -20.34,43.1 -38.47,87.46 -58.65,129.76 -4,8.38 -13.35,14.85 -22.79,15.27 -6.58,0.3 -17.07,-2.77 -13.29,-11.75 7.51,-22.48 16.18,-44.67 25.62,-66.59 3.29,-9.16 6.53,-18.35 9.74,-27.55 -17.43,42.55 -33.55,85.86 -49.58,129.65 -5.11,13.96 -39.76,26.11 -32.49,3.46 27.5,-85.71 56.01,-175.46 97.72,-257.17 -53.61,96.58 -96.5,199.16 -138.66,301.3 -5.66,13.74 -41.1,25.33 -32.48,3.46 60.84,-154.25 122.67,-310.11 221.98,-444.37 5.5,-7.45 16.12,-11.85 25.39,-10.38 6.18,0.98 16.53,6.31 10.66,14.19 -11.68,15.67 -22.84,31.64 -33.6,47.83 3.48,-4.8 6.94,-9.63 10.57,-14.33 5.96,-7.73 44.05,-15.88 37.32,1.25 -7.27,18.52 -14.56,37.09 -21.84,55.7 11,-14.48 23.24,-27.78 37.32,-38.91 8.1,-6.41 43.2,-10.89 33.27,8.27 -12.89,24.89 -24.16,50.76 -35.36,76.59 8.55,-11.14 17.4,-22 26.64,-32.49 7.47,-8.49 29.13,-8.03 33.77,-0.22 0.9,-1.38 1.76,-2.79 2.67,-4.17 6.52,-9.76 42.7,-15.07 34.17,2.8" />
      <path
         inkscape:connector-curvature="0"
         id="path166"
         style="fill:#1f1e21;fill-opacity:1;fill-rule:nonzero;stroke:none;stroke-width:5.18873453"
         d="m 9800.2593,-2780.7288 c -0.72,-6.2 -0.59,-12.62 -1.18,-18.87 -1.79,-18.9 -4.64,-37.72 -7.59,-56.47 -6.72,-42.55 -14.6,-84.94 -23.22,-127.15 -24.38,-119.37 -85.02,-232.18 -161.37,-326.35 -191.32,-235.94 -505.57,-346.78 -803.62,-298.84 -145.1,23.34 -287.93,72.01 -407.74,158.81 -110.4,79.97 -196.28,197.85 -253.27,320.82 -30.68,66.2 -47.19,136.96 -58.6,208.8 -13.29,83.74 -16.98,169.11 -6.01,253.35 19.15,147.12 79.2,292.1 165.61,412.34 132.99,185.07 346.94,319.72 574.94,345.65 34.53,3.93 69.22,5.69 103.95,6.1 1.66,-96.06 -0.04,-192.32 -0.04,-288.38 -0.01,-157.04 -0.01,-314.08 -0.02,-471.13 0,-36.37 -0.01,-72.75 -0.01,-109.13 0,-5.39 6.94,-6.57 10.79,-6.57 98.37,0 196.75,0 295.12,0 157.04,0 314.08,0 471.12,0 33.75,0 67.49,0 101.24,0 0.04,-0.78 0.04,-1.71 -0.1,-2.98 z m 25.3,32.57 c -1.02,0.21 -2.1,0.23 -3.21,0.14 l -0.71,0.06 c -98.37,0 -196.75,0 -295.12,0 -157.05,0 -314.09,0 -471.13,0 -32.78,0 -65.55,0 -98.33,0 0,96.18 0.01,192.37 0.01,288.54 0.01,157.05 0.02,314.09 0.01,471.13 0,36.35 0.66,72.78 -0.03,109.13 -0.1,5.39 -6.85,6.59 -10.78,6.58 -113.73,-0.43 -228.82,-16.75 -333.25,-63.61 -123.57,-55.45 -235.89,-126.9 -328.19,-227.24 -103.48,-112.49 -176.84,-250.17 -217.91,-397.09 -45.99,-164.45 -38.98,-343.96 10.37,-507.16 40.46,-133.75 126.54,-263.37 228.5,-358.2 112.12,-104.27 259.09,-166.2 407.15,-198.79 153.05,-33.73 310.48,-32.93 461.93,9.04 150.51,41.75 289.68,122.14 399.73,233.13 55.66,56.12 103.4,119.54 142.48,188.22 33,58 63.53,122.17 78.97,187.4 9.09,38.4 16.05,77.42 22.92,116.26 6.91,39.03 15.45,79.32 16.24,119.09 0.17,8.46 1.15,21.17 -9.65,23.37" />
      <path
         inkscape:connector-curvature="0"
         id="path168"
         style="fill:#1f1e21;fill-opacity:1;fill-rule:nonzero;stroke:none;stroke-width:5.18873453"
         d="m 10109.089,-2657.1888 c -16.04,32.82 -38.83,63.46 -58.7,94.01 -21.91,33.67 -44.07,67.18 -66.6397,100.41 -44.13,64.98 -87.68,132.42 -138.68,192.33 5.79,4.05 11.58,8.1 17.36,12.16 79.35,-108.02 153.6797,-218.61 221.9197,-334.08 3.1,-5.25 11.86,-5.67 19.39,-3.26 1.56,-9.07 3.24,-18.12 4.61,-27.21 1.68,-11.13 3.26,-22.34 4,-33.58 l 0.02,-0.78 c -1.09,0 -2.18,0 -3.28,0 z m -251.8397,141.94 c -19.17,28.91 -38.02,58.02 -56.36,87.46 -17.44,27.97 -32.46,60.13 -54.19,85.02 -0.46,0.53 -1.26,1.17 -2.27,1.85 5.46,3.82 10.91,7.65 16.37,11.46 l 2.59,-0.71 c 8.07,-12.87 14.95,-26.85 22.62,-39.58 9.94,-16.49 20.07,-32.86 30.38,-49.12 18.99,-29.92 38.77,-59.34 59.12,-88.36 20.29,-28.93 41.17,-57.45 62.61,-85.53 15.97,-20.91 31.7,-44.2 49.57,-64.43 -9.96,0 -19.93,0 -29.9,0 -33.85,47.07 -68.45,93.52 -100.54,141.94 z m 41.47,-141.94 c -63.02,97.37 -125.23,195.22 -186.61,293.64 4.16,2.91 8.32,5.82 12.48,8.73 11.13,-27.02 28.82,-52.41 43.63,-77.17 18.51,-30.92 37.52,-61.56 57.21,-91.74 29.11,-44.62 58.51,-90.37 90.63,-133.46 -5.78,0 -11.56,0 -17.34,0 z m -421.43,0 c 0.15,1.21 -0.12,2.54 -1.05,4.01 -18.23,28.65 -40.88,54.17 -58.66,83.37 2.99,2.09 5.97,4.18 8.96,6.27 23.53,-33.91 50.27,-65.58 80.56,-93.65 -7.12,0 -14.24,0 -21.36,0 -2.81,0 -5.63,0 -8.45,0 z m -165.52,13.28 1.73,-1.8 c 2.59,-2.31 5.18,-4.61 7.78,-6.91 1.79,-1.59 3.59,-3.05 5.37,-4.57 -11.28,0 -22.56,0 -33.84,0 6.32,4.42 12.64,8.85 18.96,13.28 z m 25.24,17.67 c 4.82,-5.94 9.49,-12.04 14.12,-18.17 -5.61,4.63 -11.51,8.97 -17.11,13.26 l -1.93,1.47 c 1.64,1.15 3.28,2.29 4.92,3.44 z m 62,-30.95 c -11.97,15.7 -25.83,30.28 -38.88,45.04 l -1.17,1.28 c 2.03,1.42 4.06,2.85 6.09,4.27 13.1,-17.13 26.85,-33.8 40.4,-50.59 -2.15,0 -4.3,0 -6.44,0 z m 40.96,0 c -18.46,21.44 -36.69,43.06 -55.5,64.19 4.06,2.84 8.11,5.68 12.16,8.52 14.42,-25.18 30.41,-51.85 50.61,-71.7 l 1.22,-1.01 c -2.83,0 -5.66,0 -8.49,0 z m 100.93,0 c -34.66,32.72 -66.66,66.24 -94.07,105.48 l -1.2,1.54 c 4.48,3.14 8.97,6.28 13.45,9.42 0.31,-0.85 0.67,-1.73 1.23,-2.73 22.29,-39.92 54.16,-81.87 89.27,-113.71 -2.89,0 -5.79,0 -8.68,0 z m -29.02,153.42 c 38.88,-54.27 81.58,-107.47 130.07,-153.42 -5.34,0 -10.67,0 -16,0 -21.36,18.54 -44.54,35.3 -64.79,55.24 -24.66,24.3 -47.13,50.56 -67.76,78.34 -1.08,1.45 -2.66,2.69 -4.49,3.75 3.47,2.43 6.94,4.86 10.41,7.29 4.19,2.93 8.37,5.86 12.56,8.8 z m 260.31,-153.42 c -1.36,0 -2.72,0 -4.08,0 0.93,0.59 1.84,1.21 2.48,2.02 z m -33.78,51.29 c 0.92,-1.4 1.82,-2.8 2.74,-4.2 3.09,-4.66 6.13,-9.53 9.19,-14.43 -4.21,6.05 -8.14,12.54 -11.93,18.63 z m -126.61,172.1 c 5.09,3.57 10.18,7.13 15.28,10.7 23.13,-41.11 46.78,-81.95 71.97,-121.84 10.76,-17.04 21.69,-33.95 32.72,-50.81 l -1.11,1.58 c -12.25,16.83 -24.53,33.65 -36.83,50.46 -26.48,36.19 -53.83,71.73 -80.29,107.94 z m 113.55,-217.2 c -2.58,5.43 -5.14,10.87 -7.68,16.33 -1.66,3.56 -7.52,6.74 -13.78,8.5 -44.53,48.67 -92.66,97.03 -119.64,157.16 -1.48,3.3 -5.62,6.42 -10.42,8.63 6.47,4.52 12.94,9.05 19.41,13.58 37.53,-54.58 74.83,-109.29 112.95,-163.47 9.48,-13.48 19.93,-38.12 36.34,-46.92 -5.66,0 -11.32,0 -16.99,0 1.01,1.53 1.09,3.56 -0.19,6.19 z m -47.23,-5.74 c -50.51,54.64 -101.55,107.2 -146.24,166.97 7.98,5.59 15.95,11.17 23.93,16.76 12.61,-33.73 35.29,-62.51 57.91,-90.15 25.86,-31.59 52.22,-63.04 80.25,-92.74 l 1.71,-1.29 c -5.74,0 -11.48,0 -17.23,0 z m 68.85,112.64 c 16.65,-28.51 33.35,-56.99 50.11,-85.43 6.46,-10.97 10.56,-20.94 16.48,-27.66 -1.21,0 -2.44,0 -3.65,0 -10.81,18.33 -24.39,35.44 -36.35,52.88 -15.94,23.23 -31.51,46.7 -46.84,70.33 -26.88,41.46 -53.4,83.1 -78.84,125.44 4.94,3.47 9.9,6.94 14.84,10.4 27.91,-48.76 55.91,-97.45 84.25,-145.96 z m 100.19,-105.89 c -27.41,40.89 -51.18,84.74 -76.77,126.8 -28.51,46.84 -57.39,93.44 -86.19,140.09 2.33,1.63 4.66,3.27 6.99,4.9 53.76,-94.63 110.16,-187.78 169.56,-278.99 -2.99,0 -5.98,0 -8.98,0 -0.16,2.5 -1.84,5.12 -4.61,7.2 z m -56.25,341.62 c 36.08,-64.5 80.38,-125.16 122.12,-185.98 28.98,-42.21 58.23,-84.22 87.7597,-126.03 -15.3897,18.87 -31.3597,37.39 -45.8797,56.55 -24.26,32.03 -47.77,64.64 -70.5,97.79 -24.6,35.86 -48.48,72.23 -71.42,109.18 -6.93,11.14 -16.34,30.77 -28.57,43.94 2.16,1.52 4.33,3.03 6.49,4.55 z m 274.3297,-348.82 c -42.31,58.16 -84.1797,116.65 -125.2397,175.7 -42.67,61.36 -83.15,124.57 -128.36,184.11 l -2.12,2.04 c 5.18,3.63 10.35,7.26 15.53,10.88 39.57,-64.66 85.6,-125.89 127.54,-188.97 21.24,-31.92 42.33,-63.94 63.1497,-96.13 10.8,-16.68 21.52,-33.4 32.19,-50.17 7.59,-11.93 14.46,-25.83 23.18,-37.46 -1.96,0 -3.92,0 -5.87,0 z m -169.9897,421.88 c 4.68,-9.87 11.53,-18.94 18.33,-28.52 17.3,-24.4 34.56,-48.83 51.96,-73.16 31.25,-43.66 61.8897,-87.86 93.9297,-130.95 1.38,-1.85 3.6,-3.18 6.24,-4.06 1.54,-3.51 3.12,-7 4.67,-10.46 4.41,-9.87 8.7,-19.91 14.79,-28.86 l 2.2,-2.17 c 2.32,-10.34 4.53,-20.71 6.69,-31.09 -62.94,105.3 -134.5897,204.97 -212.4797,299.71 1.21,0.85 2.43,1.7 3.64,2.55 3.34,2.34 6.68,4.68 10.03,7.01 z m 100.95,-62.05 c 11.3097,-15.86 22.6697,-31.68 33.9697,-47.55 6.98,-9.78 13.51,-20.94 21.16,-30.83 5.43,-15.94 10.16,-32.21 14.62,-49.19 -20.06,27.93 -40.33,55.72 -60.46,83.59 -13.9697,19.34 -27.9897,38.64 -42.0397,57.93 -13.13,18.03 -39.35,43.54 -42.02,66.44 4.12,2.89 8.24,5.78 12.37,8.67 20.72,-29.75 41.36,-59.54 62.4,-89.06 z m -39.83,113.09 0.47,-0.19 0.84,-0.88 c -1.86,0.35 -2.02,1.23 -1.31,1.07 z m 9.76,-14.47 c 7.6,-12.46 14.42,-25.42 21.17,-38.35 -10.91,14.45 -21.81,28.89 -32.72,43.34 1.86,1.3 3.71,2.6 5.57,3.9 1.7,-3.05 4.26,-6.08 5.98,-8.89 z m 180.7597,-435.81 c -5.51,62.92 -21.4,125.81 -36.16,187.06 -4.75,19.73 -9.62,39.11 -15.11,58.21 -0.13,1.21 -0.44,2.53 -1.17,4.12 l -0.1,0.18 c -8.12,27.66 -17.62,54.74 -30.31,81.32 -15.95,33.42 -32.16,66.76 -49.61,99.42 -6.99,13.07 -22.6897,56.09 -44.2197,48.44 l -0.96,-0.38 c -2.53,-0.72 -5.27,-1.97 -8.17,-4 -7.99,-5.59 -15.98,-11.19 -23.96,-16.78 -11.48,4.07 -26.85,2.36 -18.22,-9.97 l 1.31,-1.87 c -5.94,-4.16 -11.87,-8.31 -17.81,-12.47 -6.64,1.43 -12.55,-0.16 -12.92,-7.13 l 0.05,-1.89 c -11.82,-8.27 -23.64,-16.55 -35.47,-24.83 -1.28,-0.47 -2.29,-1.14 -2.91,-2.04 -29.75,-20.84 -59.5,-41.67 -89.25,-62.51 -5.01,0.54 -10.33,-0.36 -15.99,-3.43 -1.62,-1.13 -2.54,-2.67 -2.77,-4.61 l 0.18,-4.93 0.01,-0.03 c -8.02,-5.61 -16.03,-11.23 -24.05,-16.84 -9.81,-6.87 -19.62,-13.75 -29.43,-20.62 -5.9,0.29 -10.49,-1.68 -9.79,-6.85 -4.21,-2.95 -8.42,-5.9 -12.64,-8.85 -10.78,3.61 -24.02,1.44 -16.96,-10.92 l 0.39,-0.68 c -7.3,-5.12 -14.6,-10.22 -21.9,-15.34 -9.25,2.29 -18.15,0.28 -13.49,-9.45 -92.89,-65.05 -185.78,-130.09 -278.66,-195.14 -1.22,0.09 -2.47,0.12 -3.76,-0.01 -6.64,-0.64 -9.48,-4.55 -9.28,-9.12 -26.58,-18.62 -53.16,-37.23 -79.73,-55.84 -9.17,-6.42 -17.56,-24.66 0.09,-24.66 199.62,0 399.25,0 598.87,0 32.07,0 64.14,0 96.22,0 2.99,-3.72 5.95,-7.5 9.01,-11.16 7.96,-9.55 39.93,-1.74 31.09,10.84 l -0.23,0.32 c 43.4197,0 86.8297,0 130.2397,0 7.3,0 13.28,-0.43 20.23,2.82 20.47,9.55 18.99,30.72 17.34,49.62" />
      <path
         inkscape:connector-curvature="0"
         id="path170"
         style="fill:#1f1e21;fill-opacity:1;fill-rule:nonzero;stroke:none;stroke-width:5.18873453"
         d="m 9069.3893,-2495.2788 c 1.4,70.87 2.82,141.74 4.05,212.62 2.62,150.43 6.02,301.12 2.72,451.56 -0.52,23.53 -0.99,47.18 -3.15,70.63 265.94,-10.22 514.25,-144.01 671,-359.42 -75.1,-52.59 -150.2,-105.18 -225.3,-157.77 -128.64,-90.09 -257.28,-180.18 -385.92,-270.26 -21.15,-14.82 -42.31,-29.63 -63.47,-44.45 -0.44,8.47 -1.41,17.24 -1.27,25.93 0.39,23.72 0.87,47.44 1.34,71.16 z m -12.41,-134.75 c 80.58,56.43 161.17,112.86 241.75,169.29 128.64,90.09 257.27,180.18 385.91,270.26 29.8,20.87 59.6,41.73 89.39,62.6 5.5,3.85 14.66,13.73 9.47,21.07 -127.12,179.77 -318.39,308.75 -533.72,356.14 -63.36,13.95 -128.05,20.41 -192.89,20.66 -8.63,0.04 -19.3,-9.48 -22.68,-17.77 -2.18,-4.24 -2.26,-8.1 1.1,-10.26 0.22,-0.7 0.5,-1.69 0.8,-3.37 1.05,-5.89 1.62,-11.84 2.13,-17.79 1.74,-20.3 2.27,-40.73 2.78,-61.09 1.62,-65.39 1.32,-130.84 0.85,-196.24 -1.06,-150.07 -4.07,-300.13 -7.05,-450.18 -0.56,-28.01 -1.12,-56.02 -1.61,-84.04 -0.26,-15.76 3.71,-39.42 -0.49,-54.38 -4.16,-14.86 18.75,-8.76 24.26,-4.9" />
    </g>
  </g>
</svg>
